M48
;Layer_Color=6321
;FILE_FORMAT=4:4
METRIC,LZ
;TYPE=PLATED
T2F00S00C0.7000
;TYPE=NON_PLATED
%
G90
G05
T02
G00X005085Y003175
M15
G01X005205
M16
G00X005085Y003905
M15
G01X005205
M16
G00X004935Y004975
M15
G01X005055
M16
G00X004935Y005705
M15
G01X005055
M16
G00X004875Y010395
M15
G01Y010275
M16
G00X005605Y010395
M15
G01Y010275
M16
G00X008425Y0103525
M15
G01Y0104025
M16
G00X0084575Y0106575
M15
G01Y0106975
M16
G00X0089425Y0106575
M15
G01Y0106975
M16
G00X008975Y0103525
M15
G01Y0104025
M16
G00X012095Y012185
M15
G01Y012305
M16
G00X011365Y012185
M15
G01Y012305
M16
G00X010415Y0122875
M15
G01Y0122375
M16
G00X0103825Y0119825
M15
G01Y0119425
M16
G00X0098975Y0119825
M15
G01Y0119425
M16
G00X009865Y0122875
M15
G01Y0122375
M16
M17
M30
