G04*
G04 #@! TF.GenerationSoftware,Altium Limited,CircuitStudio,1.5.2 (1.5.2.30)*
G04*
G04 Layer_Physical_Order=2*
G04 Layer_Color=16711680*
%FSLAX25Y25*%
%MOIN*%
G70*
G01*
G75*
%ADD26C,0.01969*%
%ADD27C,0.01000*%
%ADD28C,0.00984*%
%ADD32C,0.00000*%
%ADD33C,0.06102*%
%ADD34O,0.06693X0.10630*%
%ADD35O,0.04331X0.06496*%
%ADD36C,0.02559*%
%ADD37R,0.04724X0.06299*%
%ADD38R,0.05118X0.07087*%
%ADD39C,0.14016*%
%ADD40C,0.11811*%
%ADD41C,0.09055*%
%ADD42C,0.05622*%
%ADD43R,0.05622X0.05622*%
%ADD44O,0.10630X0.06693*%
%ADD45O,0.06496X0.04331*%
%ADD46R,0.07087X0.07087*%
%ADD47C,0.07087*%
%ADD48C,0.12598*%
%ADD49R,0.07087X0.07087*%
%ADD50C,0.05000*%
G36*
X258826Y489759D02*
X258991Y489747D01*
X259154Y489725D01*
X259316Y489695D01*
X259477Y489656D01*
X259635Y489610D01*
X259790Y489555D01*
X259943Y489492D01*
X260091Y489421D01*
X260236Y489342D01*
X260377Y489256D01*
X260513Y489162D01*
X260644Y489062D01*
X260769Y488955D01*
X260889Y488841D01*
X261002Y488722D01*
X261109Y488596D01*
X261210Y488465D01*
X261303Y488330D01*
X261389Y488189D01*
X261468Y488044D01*
X261539Y487895D01*
X261602Y487743D01*
X261657Y487587D01*
X261704Y487429D01*
X261742Y487269D01*
X261772Y487107D01*
X261794Y486943D01*
X261807Y486779D01*
X261811Y486614D01*
Y481890D01*
Y477165D01*
X261807Y477001D01*
X261794Y476836D01*
X261772Y476673D01*
X261742Y476510D01*
X261704Y476350D01*
X261657Y476192D01*
X261602Y476037D01*
X261539Y475884D01*
X261468Y475736D01*
X261389Y475591D01*
X261303Y475450D01*
X261210Y475314D01*
X261109Y475183D01*
X261002Y475058D01*
X260889Y474938D01*
X260769Y474825D01*
X260644Y474718D01*
X260513Y474617D01*
X260377Y474524D01*
X260236Y474438D01*
X260091Y474359D01*
X259943Y474288D01*
X259790Y474225D01*
X259635Y474170D01*
X259477Y474123D01*
X259316Y474085D01*
X259154Y474054D01*
X258991Y474033D01*
X258826Y474020D01*
X258661Y474016D01*
X258497Y474020D01*
X258332Y474033D01*
X258169Y474054D01*
X258007Y474085D01*
X257846Y474123D01*
X257688Y474170D01*
X257533Y474225D01*
X257380Y474288D01*
X257231Y474359D01*
X257087Y474438D01*
X256946Y474524D01*
X256810Y474617D01*
X256679Y474718D01*
X256554Y474825D01*
X256434Y474938D01*
X256321Y475058D01*
X256214Y475183D01*
X256113Y475314D01*
X256020Y475450D01*
X255934Y475591D01*
X255855Y475736D01*
X255784Y475884D01*
X255721Y476037D01*
X255666Y476192D01*
X255619Y476350D01*
X255581Y476510D01*
X255551Y476673D01*
X255529Y476836D01*
X255516Y477001D01*
X255512Y477165D01*
Y481890D01*
Y486614D01*
X255516Y486779D01*
X255529Y486943D01*
X255551Y487107D01*
X255581Y487269D01*
X255619Y487429D01*
X255666Y487587D01*
X255721Y487743D01*
X255784Y487895D01*
X255855Y488044D01*
X255934Y488189D01*
X256020Y488330D01*
X256113Y488465D01*
X256214Y488596D01*
X256321Y488722D01*
X256434Y488841D01*
X256554Y488955D01*
X256679Y489062D01*
X256810Y489162D01*
X256946Y489256D01*
X257087Y489342D01*
X257231Y489421D01*
X257380Y489492D01*
X257533Y489555D01*
X257688Y489610D01*
X257846Y489656D01*
X258007Y489695D01*
X258169Y489725D01*
X258332Y489747D01*
X258497Y489759D01*
X258661Y489764D01*
X258826Y489759D01*
D02*
G37*
G36*
X303708D02*
X303872Y489747D01*
X304036Y489725D01*
X304198Y489695D01*
X304359Y489656D01*
X304517Y489610D01*
X304672Y489555D01*
X304824Y489492D01*
X304973Y489421D01*
X305118Y489342D01*
X305259Y489256D01*
X305395Y489162D01*
X305525Y489062D01*
X305651Y488955D01*
X305770Y488841D01*
X305884Y488722D01*
X305991Y488596D01*
X306091Y488465D01*
X306185Y488330D01*
X306271Y488189D01*
X306350Y488044D01*
X306421Y487895D01*
X306484Y487743D01*
X306539Y487587D01*
X306586Y487429D01*
X306624Y487269D01*
X306654Y487107D01*
X306676Y486943D01*
X306689Y486779D01*
X306693Y486614D01*
Y481890D01*
Y477165D01*
X306689Y477001D01*
X306676Y476836D01*
X306654Y476673D01*
X306624Y476510D01*
X306586Y476350D01*
X306539Y476192D01*
X306484Y476037D01*
X306421Y475884D01*
X306350Y475736D01*
X306271Y475591D01*
X306185Y475450D01*
X306091Y475314D01*
X305991Y475183D01*
X305884Y475058D01*
X305770Y474938D01*
X305651Y474825D01*
X305525Y474718D01*
X305395Y474617D01*
X305259Y474524D01*
X305118Y474438D01*
X304973Y474359D01*
X304824Y474288D01*
X304672Y474225D01*
X304517Y474170D01*
X304359Y474123D01*
X304198Y474085D01*
X304036Y474054D01*
X303872Y474033D01*
X303708Y474020D01*
X303543Y474016D01*
X303379Y474020D01*
X303214Y474033D01*
X303051Y474054D01*
X302888Y474085D01*
X302728Y474123D01*
X302570Y474170D01*
X302415Y474225D01*
X302262Y474288D01*
X302113Y474359D01*
X301969Y474438D01*
X301828Y474524D01*
X301692Y474617D01*
X301561Y474718D01*
X301436Y474825D01*
X301316Y474938D01*
X301203Y475058D01*
X301096Y475183D01*
X300995Y475314D01*
X300902Y475450D01*
X300816Y475591D01*
X300737Y475736D01*
X300666Y475884D01*
X300603Y476037D01*
X300548Y476192D01*
X300501Y476350D01*
X300463Y476510D01*
X300432Y476673D01*
X300411Y476836D01*
X300398Y477001D01*
X300394Y477165D01*
Y481890D01*
Y486614D01*
X300398Y486779D01*
X300411Y486943D01*
X300432Y487107D01*
X300463Y487269D01*
X300501Y487429D01*
X300548Y487587D01*
X300603Y487743D01*
X300666Y487895D01*
X300737Y488044D01*
X300816Y488189D01*
X300902Y488330D01*
X300995Y488465D01*
X301096Y488596D01*
X301203Y488722D01*
X301316Y488841D01*
X301436Y488955D01*
X301561Y489062D01*
X301692Y489162D01*
X301828Y489256D01*
X301969Y489342D01*
X302113Y489421D01*
X302262Y489492D01*
X302415Y489555D01*
X302570Y489610D01*
X302728Y489656D01*
X302888Y489695D01*
X303051Y489725D01*
X303214Y489747D01*
X303379Y489759D01*
X303543Y489764D01*
X303708Y489759D01*
D02*
G37*
G36*
X226937D02*
X227101Y489747D01*
X227264Y489725D01*
X227427Y489695D01*
X227587Y489656D01*
X227745Y489610D01*
X227900Y489555D01*
X228053Y489492D01*
X228202Y489421D01*
X228346Y489342D01*
X228487Y489256D01*
X228623Y489162D01*
X228754Y489062D01*
X228879Y488955D01*
X228999Y488841D01*
X229112Y488722D01*
X229219Y488596D01*
X229320Y488465D01*
X229413Y488330D01*
X229499Y488189D01*
X229578Y488044D01*
X229649Y487895D01*
X229712Y487743D01*
X229767Y487587D01*
X229814Y487429D01*
X229852Y487269D01*
X229883Y487107D01*
X229904Y486943D01*
X229917Y486779D01*
X229921Y486614D01*
Y481890D01*
Y477165D01*
X229917Y477001D01*
X229904Y476836D01*
X229883Y476673D01*
X229852Y476510D01*
X229814Y476350D01*
X229767Y476192D01*
X229712Y476037D01*
X229649Y475884D01*
X229578Y475736D01*
X229499Y475591D01*
X229413Y475450D01*
X229320Y475314D01*
X229219Y475183D01*
X229112Y475058D01*
X228999Y474938D01*
X228879Y474825D01*
X228754Y474718D01*
X228623Y474617D01*
X228487Y474524D01*
X228346Y474438D01*
X228202Y474359D01*
X228053Y474288D01*
X227900Y474225D01*
X227745Y474170D01*
X227587Y474123D01*
X227427Y474085D01*
X227264Y474054D01*
X227101Y474033D01*
X226937Y474020D01*
X226772Y474016D01*
X226607Y474020D01*
X226442Y474033D01*
X226279Y474054D01*
X226117Y474085D01*
X225957Y474123D01*
X225798Y474170D01*
X225643Y474225D01*
X225491Y474288D01*
X225342Y474359D01*
X225197Y474438D01*
X225056Y474524D01*
X224920Y474617D01*
X224790Y474718D01*
X224664Y474825D01*
X224545Y474938D01*
X224431Y475058D01*
X224324Y475183D01*
X224224Y475314D01*
X224130Y475450D01*
X224044Y475591D01*
X223965Y475736D01*
X223894Y475884D01*
X223831Y476037D01*
X223776Y476192D01*
X223729Y476350D01*
X223691Y476510D01*
X223661Y476673D01*
X223639Y476836D01*
X223626Y477001D01*
X223622Y477165D01*
Y481890D01*
Y486614D01*
X223626Y486779D01*
X223639Y486943D01*
X223661Y487107D01*
X223691Y487269D01*
X223729Y487429D01*
X223776Y487587D01*
X223831Y487743D01*
X223894Y487895D01*
X223965Y488044D01*
X224044Y488189D01*
X224130Y488330D01*
X224224Y488465D01*
X224324Y488596D01*
X224431Y488722D01*
X224545Y488841D01*
X224664Y488955D01*
X224790Y489062D01*
X224920Y489162D01*
X225056Y489256D01*
X225197Y489342D01*
X225342Y489421D01*
X225491Y489492D01*
X225643Y489555D01*
X225798Y489610D01*
X225957Y489656D01*
X226117Y489695D01*
X226279Y489725D01*
X226442Y489747D01*
X226607Y489759D01*
X226772Y489764D01*
X226937Y489759D01*
D02*
G37*
G36*
X491187Y361068D02*
X490725Y361045D01*
X490702Y361044D01*
X490689Y361044D01*
X490687Y361043D01*
X490663Y361289D01*
Y361289D01*
X490565Y362279D01*
X490171Y363581D01*
X489529Y364780D01*
X488666Y365832D01*
X487615Y366695D01*
X486415Y367336D01*
X485114Y367731D01*
X483760Y367864D01*
X482406Y367731D01*
X481105Y367336D01*
X479905Y366695D01*
X478853Y365832D01*
X477990Y364780D01*
X477349Y363581D01*
X476954Y362279D01*
X476821Y360925D01*
X476954Y359572D01*
X477349Y358270D01*
X477990Y357070D01*
X478853Y356019D01*
X479905Y355156D01*
X481105Y354515D01*
X482406Y354120D01*
X483760Y353986D01*
X485114Y354120D01*
X486415Y354515D01*
X487615Y355156D01*
X488666Y356019D01*
X489529Y357070D01*
X490171Y358270D01*
X490565Y359572D01*
X490663Y360561D01*
Y360561D01*
X490687Y360807D01*
X490689Y360807D01*
X490702Y360806D01*
X490725Y360805D01*
X491187Y360782D01*
Y291816D01*
X490725Y291793D01*
X490702Y291792D01*
X490689Y291792D01*
X490687Y291791D01*
X490663Y292037D01*
Y292037D01*
X490565Y293027D01*
X490171Y294329D01*
X489529Y295528D01*
X488666Y296580D01*
X487615Y297443D01*
X486415Y298084D01*
X485114Y298479D01*
X483760Y298612D01*
X482406Y298479D01*
X481105Y298084D01*
X479905Y297443D01*
X478853Y296580D01*
X477990Y295528D01*
X477349Y294329D01*
X476954Y293027D01*
X476821Y291673D01*
X476954Y290319D01*
X477349Y289018D01*
X477990Y287818D01*
X478853Y286767D01*
X479905Y285904D01*
X481105Y285262D01*
X482406Y284868D01*
X483760Y284734D01*
X485114Y284868D01*
X486415Y285262D01*
X487615Y285904D01*
X488666Y286767D01*
X489529Y287818D01*
X490171Y289018D01*
X490565Y290319D01*
X490663Y291309D01*
Y291309D01*
X490687Y291555D01*
X490689Y291555D01*
X490702Y291554D01*
X490725Y291553D01*
X491187Y291530D01*
Y250197D01*
Y248228D01*
Y102514D01*
X102514D01*
Y491187D01*
X180483D01*
X180808Y490687D01*
X180792Y490650D01*
X180579Y490571D01*
X180576Y490571D01*
X180421Y490516D01*
X180397Y490502D01*
X180371Y490497D01*
X180219Y490434D01*
X180196Y490418D01*
X180170Y490412D01*
X180021Y490341D01*
X179999Y490324D01*
X179973Y490316D01*
X179828Y490238D01*
X179808Y490220D01*
X179782Y490211D01*
X179642Y490125D01*
X179622Y490107D01*
X179597Y490096D01*
X179461Y490002D01*
X179442Y489983D01*
X179418Y489971D01*
X179287Y489871D01*
X179269Y489850D01*
X179245Y489837D01*
X179120Y489730D01*
X179103Y489709D01*
X179080Y489694D01*
X178961Y489581D01*
X178945Y489559D01*
X178923Y489543D01*
X178810Y489424D01*
X178795Y489401D01*
X178774Y489384D01*
X178667Y489258D01*
X178654Y489235D01*
X178633Y489217D01*
X178533Y489086D01*
X178521Y489062D01*
X178501Y489043D01*
X178408Y488907D01*
X178397Y488882D01*
X178379Y488862D01*
X178293Y488722D01*
X178283Y488696D01*
X178266Y488675D01*
X178187Y488531D01*
X178179Y488505D01*
X178163Y488483D01*
X178092Y488334D01*
X178085Y488308D01*
X178070Y488285D01*
X178007Y488133D01*
X178002Y488106D01*
X177988Y488083D01*
X177933Y487928D01*
X177929Y487901D01*
X177917Y487877D01*
X177870Y487719D01*
X177867Y487692D01*
X177856Y487667D01*
X177818Y487507D01*
X177816Y487480D01*
X177806Y487455D01*
X177776Y487293D01*
X177777Y487266D01*
X177768Y487240D01*
X177747Y487077D01*
X177748Y487049D01*
X177741Y487023D01*
X177728Y486859D01*
X177731Y486832D01*
X177725Y486806D01*
X177721Y486641D01*
X177723Y486627D01*
X177721Y486614D01*
Y481890D01*
Y477165D01*
X177723Y477152D01*
X177721Y477139D01*
X177725Y476974D01*
X177731Y476947D01*
X177728Y476921D01*
X177741Y476756D01*
X177748Y476730D01*
X177747Y476703D01*
X177768Y476540D01*
X177777Y476514D01*
X177776Y476487D01*
X177806Y476325D01*
X177816Y476300D01*
X177818Y476272D01*
X177856Y476112D01*
X177867Y476088D01*
X177870Y476061D01*
X177917Y475903D01*
X177929Y475878D01*
X177933Y475852D01*
X177988Y475696D01*
X178002Y475673D01*
X178007Y475646D01*
X178070Y475494D01*
X178085Y475472D01*
X178092Y475445D01*
X178163Y475296D01*
X178179Y475275D01*
X178187Y475249D01*
X178266Y475104D01*
X178283Y475083D01*
X178293Y475058D01*
X178379Y474917D01*
X178397Y474897D01*
X178408Y474872D01*
X178501Y474736D01*
X178521Y474718D01*
X178533Y474693D01*
X178633Y474563D01*
X178654Y474545D01*
X178667Y474521D01*
X178774Y474396D01*
X178795Y474379D01*
X178810Y474356D01*
X178923Y474236D01*
X178945Y474221D01*
X178961Y474199D01*
X179080Y474085D01*
X179103Y474071D01*
X179120Y474049D01*
X179245Y473942D01*
X179269Y473929D01*
X179287Y473909D01*
X179418Y473808D01*
X179442Y473796D01*
X179461Y473777D01*
X179597Y473684D01*
X179622Y473673D01*
X179642Y473655D01*
X179782Y473568D01*
X179808Y473559D01*
X179828Y473542D01*
X179973Y473463D01*
X179999Y473455D01*
X180021Y473439D01*
X180170Y473368D01*
X180196Y473361D01*
X180219Y473346D01*
X180371Y473283D01*
X180397Y473278D01*
X180421Y473264D01*
X180576Y473209D01*
X180603Y473205D01*
X180627Y473192D01*
X180785Y473145D01*
X180812Y473143D01*
X180837Y473132D01*
X180997Y473093D01*
X181024Y473092D01*
X181049Y473082D01*
X181211Y473052D01*
X181238Y473052D01*
X181264Y473044D01*
X181428Y473022D01*
X181455Y473024D01*
X181481Y473017D01*
X181645Y473004D01*
X181672Y473007D01*
X181698Y473001D01*
X181863Y472997D01*
X181890Y473001D01*
X181916Y472997D01*
X182081Y473001D01*
X182108Y473007D01*
X182135Y473004D01*
X182299Y473017D01*
X182325Y473024D01*
X182352Y473022D01*
X182516Y473044D01*
X182541Y473052D01*
X182568Y473052D01*
X182730Y473082D01*
X182756Y473092D01*
X182783Y473093D01*
X182943Y473132D01*
X182968Y473143D01*
X182995Y473145D01*
X183153Y473192D01*
X183177Y473205D01*
X183203Y473209D01*
X183359Y473264D01*
X183382Y473278D01*
X183409Y473283D01*
X183561Y473346D01*
X183583Y473361D01*
X183610Y473368D01*
X183759Y473439D01*
X183780Y473455D01*
X183806Y473463D01*
X183951Y473542D01*
X183972Y473559D01*
X183997Y473568D01*
X184138Y473655D01*
X184158Y473673D01*
X184183Y473684D01*
X184319Y473777D01*
X184337Y473796D01*
X184362Y473808D01*
X184493Y473909D01*
X184510Y473929D01*
X184534Y473942D01*
X184659Y474049D01*
X184676Y474071D01*
X184699Y474085D01*
X184819Y474199D01*
X184834Y474221D01*
X184856Y474236D01*
X184970Y474356D01*
X184984Y474379D01*
X185006Y474396D01*
X185113Y474521D01*
X185126Y474545D01*
X185146Y474563D01*
X185247Y474693D01*
X185259Y474718D01*
X185278Y474736D01*
X185371Y474872D01*
X185382Y474897D01*
X185401Y474917D01*
X185487Y475058D01*
X185496Y475083D01*
X185513Y475104D01*
X185592Y475249D01*
X185600Y475275D01*
X185616Y475296D01*
X185687Y475445D01*
X185694Y475472D01*
X185709Y475494D01*
X185772Y475646D01*
X185777Y475673D01*
X185791Y475696D01*
X185846Y475852D01*
X185850Y475878D01*
X185863Y475903D01*
X185910Y476061D01*
X185912Y476088D01*
X185924Y476112D01*
X185962Y476272D01*
X185963Y476299D01*
X185973Y476325D01*
X186003Y476487D01*
X186003Y476514D01*
X186011Y476540D01*
X186033Y476703D01*
X186031Y476730D01*
X186039Y476756D01*
X186051Y476921D01*
X186048Y476947D01*
X186054Y476974D01*
X186059Y477139D01*
X186056Y477152D01*
X186059Y477165D01*
Y481890D01*
Y486614D01*
X186056Y486627D01*
X186059Y486641D01*
X186054Y486806D01*
X186048Y486832D01*
X186051Y486859D01*
X186039Y487023D01*
X186031Y487049D01*
X186033Y487077D01*
X186011Y487240D01*
X186003Y487266D01*
X186003Y487293D01*
X185973Y487455D01*
X185963Y487480D01*
X185962Y487507D01*
X185924Y487667D01*
X185912Y487692D01*
X185910Y487719D01*
X185863Y487877D01*
X185850Y487901D01*
X185846Y487928D01*
X185791Y488083D01*
X185777Y488106D01*
X185772Y488133D01*
X185709Y488285D01*
X185694Y488308D01*
X185687Y488334D01*
X185616Y488483D01*
X185600Y488505D01*
X185592Y488531D01*
X185513Y488675D01*
X185496Y488696D01*
X185487Y488722D01*
X185401Y488862D01*
X185382Y488882D01*
X185371Y488907D01*
X185278Y489043D01*
X185259Y489062D01*
X185247Y489086D01*
X185146Y489217D01*
X185126Y489235D01*
X185113Y489258D01*
X185006Y489384D01*
X184984Y489401D01*
X184970Y489424D01*
X184856Y489543D01*
X184834Y489559D01*
X184819Y489581D01*
X184699Y489694D01*
X184676Y489709D01*
X184659Y489730D01*
X184534Y489837D01*
X184510Y489850D01*
X184493Y489871D01*
X184362Y489971D01*
X184337Y489983D01*
X184319Y490002D01*
X184183Y490096D01*
X184158Y490107D01*
X184138Y490125D01*
X183997Y490211D01*
X183972Y490220D01*
X183951Y490238D01*
X183806Y490316D01*
X183780Y490324D01*
X183759Y490341D01*
X183610Y490412D01*
X183583Y490418D01*
X183561Y490434D01*
X183409Y490497D01*
X183382Y490502D01*
X183359Y490516D01*
X183203Y490571D01*
X183200Y490571D01*
X182987Y490650D01*
X182971Y490687D01*
X183296Y491187D01*
X225365D01*
X225690Y490687D01*
X225674Y490650D01*
X225461Y490571D01*
X225458Y490571D01*
X225303Y490516D01*
X225279Y490502D01*
X225253Y490497D01*
X225100Y490434D01*
X225078Y490418D01*
X225052Y490412D01*
X224903Y490341D01*
X224881Y490324D01*
X224855Y490316D01*
X224710Y490238D01*
X224690Y490220D01*
X224664Y490211D01*
X224523Y490125D01*
X224504Y490107D01*
X224479Y490096D01*
X224343Y490002D01*
X224324Y489983D01*
X224300Y489971D01*
X224169Y489871D01*
X224151Y489850D01*
X224127Y489837D01*
X224002Y489730D01*
X223985Y489709D01*
X223962Y489694D01*
X223843Y489581D01*
X223827Y489559D01*
X223805Y489543D01*
X223692Y489424D01*
X223677Y489401D01*
X223656Y489384D01*
X223549Y489258D01*
X223535Y489235D01*
X223515Y489217D01*
X223415Y489086D01*
X223403Y489062D01*
X223383Y489043D01*
X223290Y488907D01*
X223279Y488882D01*
X223261Y488862D01*
X223175Y488722D01*
X223165Y488696D01*
X223148Y488675D01*
X223069Y488531D01*
X223061Y488505D01*
X223045Y488483D01*
X222974Y488334D01*
X222967Y488308D01*
X222952Y488285D01*
X222889Y488133D01*
X222884Y488106D01*
X222870Y488083D01*
X222815Y487928D01*
X222811Y487901D01*
X222799Y487877D01*
X222752Y487719D01*
X222749Y487692D01*
X222738Y487667D01*
X222699Y487507D01*
X222698Y487480D01*
X222688Y487455D01*
X222658Y487293D01*
X222659Y487266D01*
X222650Y487240D01*
X222628Y487077D01*
X222630Y487049D01*
X222623Y487023D01*
X222610Y486859D01*
X222613Y486832D01*
X222607Y486806D01*
X222603Y486641D01*
X222605Y486627D01*
X222603Y486614D01*
Y481890D01*
Y477165D01*
X222605Y477152D01*
X222603Y477139D01*
X222607Y476974D01*
X222613Y476947D01*
X222610Y476921D01*
X222623Y476756D01*
X222630Y476730D01*
X222628Y476703D01*
X222650Y476540D01*
X222659Y476514D01*
X222658Y476487D01*
X222688Y476325D01*
X222698Y476300D01*
X222699Y476272D01*
X222738Y476112D01*
X222749Y476088D01*
X222752Y476061D01*
X222799Y475903D01*
X222811Y475878D01*
X222815Y475852D01*
X222870Y475696D01*
X222884Y475673D01*
X222889Y475646D01*
X222952Y475494D01*
X222967Y475472D01*
X222974Y475445D01*
X223045Y475296D01*
X223061Y475275D01*
X223069Y475249D01*
X223148Y475104D01*
X223165Y475083D01*
X223175Y475058D01*
X223261Y474917D01*
X223279Y474897D01*
X223290Y474872D01*
X223383Y474736D01*
X223403Y474718D01*
X223415Y474693D01*
X223515Y474563D01*
X223535Y474545D01*
X223549Y474521D01*
X223656Y474396D01*
X223677Y474379D01*
X223692Y474356D01*
X223805Y474236D01*
X223827Y474221D01*
X223843Y474199D01*
X223962Y474085D01*
X223985Y474071D01*
X224002Y474049D01*
X224127Y473942D01*
X224151Y473929D01*
X224169Y473909D01*
X224300Y473808D01*
X224324Y473796D01*
X224343Y473777D01*
X224479Y473684D01*
X224504Y473673D01*
X224523Y473655D01*
X224664Y473568D01*
X224690Y473559D01*
X224710Y473542D01*
X224855Y473463D01*
X224881Y473455D01*
X224903Y473439D01*
X225052Y473368D01*
X225078Y473361D01*
X225100Y473346D01*
X225253Y473283D01*
X225279Y473278D01*
X225303Y473264D01*
X225458Y473209D01*
X225485Y473205D01*
X225509Y473192D01*
X225667Y473145D01*
X225694Y473143D01*
X225718Y473132D01*
X225879Y473093D01*
X225906Y473092D01*
X225931Y473082D01*
X226093Y473052D01*
X226120Y473052D01*
X226146Y473044D01*
X226309Y473022D01*
X226336Y473024D01*
X226362Y473017D01*
X226527Y473004D01*
X226554Y473007D01*
X226580Y473001D01*
X226745Y472997D01*
X226772Y473001D01*
X226798Y472997D01*
X226963Y473001D01*
X226990Y473007D01*
X227016Y473004D01*
X227181Y473017D01*
X227207Y473024D01*
X227234Y473022D01*
X227397Y473044D01*
X227423Y473052D01*
X227450Y473052D01*
X227612Y473082D01*
X227637Y473092D01*
X227664Y473093D01*
X227825Y473132D01*
X227849Y473143D01*
X227876Y473145D01*
X228034Y473192D01*
X228059Y473205D01*
X228085Y473209D01*
X228241Y473264D01*
X228264Y473278D01*
X228291Y473283D01*
X228443Y473346D01*
X228465Y473361D01*
X228492Y473368D01*
X228641Y473439D01*
X228662Y473455D01*
X228688Y473463D01*
X228833Y473542D01*
X228854Y473559D01*
X228879Y473568D01*
X229020Y473655D01*
X229040Y473673D01*
X229065Y473684D01*
X229201Y473777D01*
X229219Y473796D01*
X229244Y473808D01*
X229374Y473909D01*
X229392Y473929D01*
X229416Y473942D01*
X229541Y474049D01*
X229558Y474071D01*
X229581Y474085D01*
X229701Y474199D01*
X229716Y474221D01*
X229738Y474236D01*
X229852Y474356D01*
X229866Y474379D01*
X229888Y474396D01*
X229995Y474521D01*
X230008Y474545D01*
X230028Y474563D01*
X230129Y474693D01*
X230141Y474718D01*
X230160Y474736D01*
X230253Y474872D01*
X230264Y474897D01*
X230282Y474917D01*
X230369Y475058D01*
X230378Y475083D01*
X230395Y475104D01*
X230474Y475249D01*
X230482Y475275D01*
X230498Y475296D01*
X230569Y475445D01*
X230576Y475472D01*
X230591Y475494D01*
X230654Y475646D01*
X230659Y475673D01*
X230673Y475696D01*
X230728Y475852D01*
X230732Y475878D01*
X230745Y475903D01*
X230792Y476061D01*
X230794Y476088D01*
X230805Y476112D01*
X230844Y476272D01*
X230845Y476299D01*
X230855Y476325D01*
X230885Y476487D01*
X230885Y476514D01*
X230893Y476540D01*
X230915Y476703D01*
X230913Y476730D01*
X230921Y476756D01*
X230933Y476921D01*
X230930Y476947D01*
X230936Y476974D01*
X230941Y477139D01*
X230938Y477152D01*
X230941Y477165D01*
Y481890D01*
Y486614D01*
X230938Y486627D01*
X230941Y486641D01*
X230936Y486806D01*
X230930Y486832D01*
X230933Y486859D01*
X230921Y487023D01*
X230913Y487049D01*
X230915Y487077D01*
X230893Y487240D01*
X230885Y487266D01*
X230885Y487293D01*
X230855Y487455D01*
X230845Y487480D01*
X230844Y487507D01*
X230805Y487667D01*
X230794Y487692D01*
X230792Y487719D01*
X230745Y487877D01*
X230732Y487901D01*
X230728Y487928D01*
X230673Y488083D01*
X230659Y488106D01*
X230654Y488133D01*
X230591Y488285D01*
X230576Y488308D01*
X230569Y488334D01*
X230498Y488483D01*
X230482Y488505D01*
X230474Y488531D01*
X230395Y488675D01*
X230378Y488696D01*
X230369Y488722D01*
X230282Y488862D01*
X230264Y488882D01*
X230253Y488907D01*
X230160Y489043D01*
X230141Y489062D01*
X230129Y489086D01*
X230028Y489217D01*
X230008Y489235D01*
X229995Y489258D01*
X229888Y489384D01*
X229866Y489401D01*
X229852Y489424D01*
X229738Y489543D01*
X229716Y489559D01*
X229701Y489581D01*
X229581Y489694D01*
X229558Y489709D01*
X229541Y489730D01*
X229416Y489837D01*
X229392Y489850D01*
X229374Y489871D01*
X229244Y489971D01*
X229219Y489983D01*
X229201Y490002D01*
X229065Y490096D01*
X229040Y490107D01*
X229020Y490125D01*
X228879Y490211D01*
X228854Y490220D01*
X228833Y490238D01*
X228688Y490316D01*
X228662Y490324D01*
X228641Y490341D01*
X228492Y490412D01*
X228465Y490418D01*
X228443Y490434D01*
X228291Y490497D01*
X228264Y490502D01*
X228241Y490516D01*
X228085Y490571D01*
X228082Y490571D01*
X227869Y490650D01*
X227853Y490687D01*
X228178Y491187D01*
X257255D01*
X257580Y490687D01*
X257564Y490650D01*
X257351Y490571D01*
X257348Y490571D01*
X257192Y490516D01*
X257169Y490502D01*
X257142Y490497D01*
X256990Y490434D01*
X256968Y490418D01*
X256941Y490412D01*
X256793Y490341D01*
X256771Y490324D01*
X256745Y490316D01*
X256600Y490238D01*
X256579Y490220D01*
X256554Y490211D01*
X256413Y490125D01*
X256393Y490107D01*
X256368Y490096D01*
X256233Y490002D01*
X256214Y489983D01*
X256189Y489971D01*
X256059Y489871D01*
X256041Y489850D01*
X256017Y489837D01*
X255892Y489730D01*
X255875Y489709D01*
X255852Y489694D01*
X255732Y489581D01*
X255717Y489559D01*
X255695Y489543D01*
X255581Y489424D01*
X255567Y489401D01*
X255545Y489384D01*
X255438Y489258D01*
X255425Y489235D01*
X255405Y489217D01*
X255304Y489086D01*
X255293Y489062D01*
X255273Y489043D01*
X255180Y488907D01*
X255169Y488882D01*
X255151Y488862D01*
X255064Y488722D01*
X255055Y488696D01*
X255038Y488675D01*
X254959Y488531D01*
X254951Y488505D01*
X254935Y488483D01*
X254864Y488334D01*
X254857Y488308D01*
X254842Y488285D01*
X254779Y488133D01*
X254774Y488106D01*
X254760Y488083D01*
X254705Y487928D01*
X254701Y487901D01*
X254688Y487877D01*
X254642Y487719D01*
X254639Y487692D01*
X254628Y487667D01*
X254589Y487507D01*
X254588Y487480D01*
X254578Y487455D01*
X254548Y487293D01*
X254548Y487266D01*
X254540Y487240D01*
X254518Y487077D01*
X254520Y487049D01*
X254513Y487023D01*
X254500Y486859D01*
X254503Y486832D01*
X254497Y486806D01*
X254493Y486641D01*
X254495Y486627D01*
X254492Y486614D01*
Y481890D01*
Y477165D01*
X254495Y477152D01*
X254493Y477139D01*
X254497Y476974D01*
X254503Y476947D01*
X254500Y476921D01*
X254513Y476756D01*
X254520Y476730D01*
X254518Y476703D01*
X254540Y476540D01*
X254548Y476514D01*
X254548Y476487D01*
X254578Y476325D01*
X254588Y476300D01*
X254589Y476272D01*
X254628Y476112D01*
X254639Y476088D01*
X254642Y476061D01*
X254688Y475903D01*
X254701Y475878D01*
X254705Y475852D01*
X254760Y475696D01*
X254774Y475673D01*
X254779Y475646D01*
X254842Y475494D01*
X254857Y475472D01*
X254864Y475445D01*
X254935Y475296D01*
X254951Y475275D01*
X254959Y475249D01*
X255038Y475104D01*
X255055Y475083D01*
X255064Y475058D01*
X255151Y474917D01*
X255169Y474897D01*
X255180Y474872D01*
X255273Y474736D01*
X255293Y474718D01*
X255304Y474693D01*
X255405Y474563D01*
X255425Y474545D01*
X255438Y474521D01*
X255545Y474396D01*
X255567Y474379D01*
X255581Y474356D01*
X255695Y474236D01*
X255717Y474221D01*
X255732Y474199D01*
X255852Y474085D01*
X255875Y474071D01*
X255892Y474049D01*
X256017Y473942D01*
X256041Y473929D01*
X256059Y473909D01*
X256189Y473808D01*
X256214Y473796D01*
X256233Y473777D01*
X256368Y473684D01*
X256393Y473673D01*
X256413Y473655D01*
X256554Y473568D01*
X256579Y473559D01*
X256600Y473542D01*
X256745Y473463D01*
X256771Y473455D01*
X256793Y473439D01*
X256941Y473368D01*
X256968Y473361D01*
X256990Y473346D01*
X257142Y473283D01*
X257169Y473278D01*
X257192Y473264D01*
X257348Y473209D01*
X257375Y473205D01*
X257399Y473192D01*
X257557Y473145D01*
X257584Y473143D01*
X257608Y473132D01*
X257769Y473093D01*
X257796Y473092D01*
X257821Y473082D01*
X257983Y473052D01*
X258010Y473052D01*
X258036Y473044D01*
X258199Y473022D01*
X258226Y473024D01*
X258252Y473017D01*
X258417Y473004D01*
X258443Y473007D01*
X258470Y473001D01*
X258635Y472997D01*
X258661Y473001D01*
X258688Y472997D01*
X258853Y473001D01*
X258879Y473007D01*
X258906Y473004D01*
X259071Y473017D01*
X259097Y473024D01*
X259124Y473022D01*
X259287Y473044D01*
X259313Y473052D01*
X259340Y473052D01*
X259502Y473082D01*
X259527Y473092D01*
X259554Y473093D01*
X259715Y473132D01*
X259739Y473143D01*
X259766Y473145D01*
X259924Y473192D01*
X259948Y473205D01*
X259975Y473209D01*
X260131Y473264D01*
X260154Y473278D01*
X260180Y473283D01*
X260333Y473346D01*
X260355Y473361D01*
X260381Y473368D01*
X260530Y473439D01*
X260552Y473455D01*
X260578Y473463D01*
X260723Y473542D01*
X260744Y473559D01*
X260769Y473568D01*
X260910Y473655D01*
X260929Y473673D01*
X260954Y473684D01*
X261090Y473777D01*
X261109Y473796D01*
X261133Y473808D01*
X261264Y473909D01*
X261282Y473929D01*
X261306Y473942D01*
X261431Y474049D01*
X261448Y474071D01*
X261471Y474085D01*
X261590Y474199D01*
X261606Y474221D01*
X261628Y474236D01*
X261742Y474356D01*
X261756Y474379D01*
X261777Y474396D01*
X261884Y474521D01*
X261898Y474545D01*
X261918Y474563D01*
X262018Y474693D01*
X262030Y474718D01*
X262050Y474736D01*
X262143Y474872D01*
X262154Y474897D01*
X262172Y474917D01*
X262258Y475058D01*
X262268Y475083D01*
X262285Y475104D01*
X262364Y475249D01*
X262372Y475275D01*
X262388Y475296D01*
X262459Y475445D01*
X262466Y475472D01*
X262481Y475494D01*
X262544Y475646D01*
X262549Y475673D01*
X262563Y475696D01*
X262618Y475852D01*
X262622Y475878D01*
X262634Y475903D01*
X262681Y476061D01*
X262684Y476088D01*
X262695Y476112D01*
X262734Y476272D01*
X262735Y476299D01*
X262745Y476325D01*
X262775Y476487D01*
X262774Y476514D01*
X262783Y476540D01*
X262805Y476703D01*
X262803Y476730D01*
X262810Y476756D01*
X262823Y476921D01*
X262820Y476947D01*
X262826Y476974D01*
X262830Y477139D01*
X262828Y477152D01*
X262831Y477165D01*
Y481890D01*
Y486614D01*
X262828Y486627D01*
X262830Y486641D01*
X262826Y486806D01*
X262820Y486832D01*
X262823Y486859D01*
X262810Y487023D01*
X262803Y487049D01*
X262805Y487077D01*
X262783Y487240D01*
X262774Y487266D01*
X262775Y487293D01*
X262745Y487455D01*
X262735Y487480D01*
X262734Y487507D01*
X262695Y487667D01*
X262684Y487692D01*
X262681Y487719D01*
X262634Y487877D01*
X262622Y487901D01*
X262618Y487928D01*
X262563Y488083D01*
X262549Y488106D01*
X262544Y488133D01*
X262481Y488285D01*
X262466Y488308D01*
X262459Y488334D01*
X262388Y488483D01*
X262372Y488505D01*
X262364Y488531D01*
X262285Y488675D01*
X262268Y488696D01*
X262258Y488722D01*
X262172Y488862D01*
X262154Y488882D01*
X262143Y488907D01*
X262050Y489043D01*
X262030Y489062D01*
X262018Y489086D01*
X261918Y489217D01*
X261898Y489235D01*
X261884Y489258D01*
X261777Y489384D01*
X261756Y489401D01*
X261742Y489424D01*
X261628Y489543D01*
X261606Y489559D01*
X261590Y489581D01*
X261471Y489694D01*
X261448Y489709D01*
X261431Y489730D01*
X261306Y489837D01*
X261282Y489850D01*
X261264Y489871D01*
X261133Y489971D01*
X261109Y489983D01*
X261090Y490002D01*
X260954Y490096D01*
X260929Y490107D01*
X260910Y490125D01*
X260769Y490211D01*
X260744Y490220D01*
X260723Y490238D01*
X260578Y490316D01*
X260552Y490324D01*
X260530Y490341D01*
X260381Y490412D01*
X260355Y490418D01*
X260333Y490434D01*
X260180Y490497D01*
X260154Y490502D01*
X260131Y490516D01*
X259975Y490571D01*
X259972Y490571D01*
X259759Y490650D01*
X259743Y490687D01*
X260068Y491187D01*
X302137D01*
X302462Y490687D01*
X302446Y490650D01*
X302233Y490571D01*
X302230Y490571D01*
X302074Y490516D01*
X302051Y490502D01*
X302024Y490497D01*
X301872Y490434D01*
X301850Y490418D01*
X301823Y490412D01*
X301675Y490341D01*
X301653Y490324D01*
X301627Y490316D01*
X301482Y490238D01*
X301461Y490220D01*
X301436Y490211D01*
X301295Y490125D01*
X301275Y490107D01*
X301250Y490096D01*
X301115Y490002D01*
X301096Y489983D01*
X301071Y489971D01*
X300940Y489871D01*
X300923Y489850D01*
X300899Y489837D01*
X300774Y489730D01*
X300757Y489709D01*
X300734Y489694D01*
X300614Y489581D01*
X300599Y489559D01*
X300577Y489543D01*
X300463Y489424D01*
X300449Y489401D01*
X300427Y489384D01*
X300320Y489258D01*
X300307Y489235D01*
X300287Y489217D01*
X300186Y489086D01*
X300174Y489062D01*
X300155Y489043D01*
X300062Y488907D01*
X300051Y488882D01*
X300032Y488862D01*
X299946Y488722D01*
X299937Y488696D01*
X299920Y488675D01*
X299841Y488531D01*
X299833Y488505D01*
X299817Y488483D01*
X299746Y488334D01*
X299739Y488308D01*
X299724Y488285D01*
X299661Y488133D01*
X299656Y488106D01*
X299642Y488083D01*
X299587Y487928D01*
X299583Y487901D01*
X299570Y487877D01*
X299523Y487719D01*
X299521Y487692D01*
X299510Y487667D01*
X299471Y487507D01*
X299470Y487480D01*
X299460Y487455D01*
X299430Y487293D01*
X299430Y487266D01*
X299422Y487240D01*
X299400Y487077D01*
X299402Y487049D01*
X299394Y487023D01*
X299382Y486859D01*
X299385Y486832D01*
X299379Y486806D01*
X299375Y486641D01*
X299377Y486627D01*
X299374Y486614D01*
Y481890D01*
Y477165D01*
X299377Y477152D01*
X299375Y477139D01*
X299379Y476974D01*
X299385Y476947D01*
X299382Y476921D01*
X299394Y476756D01*
X299402Y476730D01*
X299400Y476703D01*
X299422Y476540D01*
X299430Y476514D01*
X299430Y476487D01*
X299460Y476325D01*
X299470Y476300D01*
X299471Y476272D01*
X299510Y476112D01*
X299521Y476088D01*
X299523Y476061D01*
X299570Y475903D01*
X299583Y475878D01*
X299587Y475852D01*
X299642Y475696D01*
X299656Y475673D01*
X299661Y475646D01*
X299724Y475494D01*
X299739Y475472D01*
X299746Y475445D01*
X299817Y475296D01*
X299833Y475275D01*
X299841Y475249D01*
X299920Y475104D01*
X299937Y475083D01*
X299946Y475058D01*
X300032Y474917D01*
X300051Y474897D01*
X300062Y474872D01*
X300155Y474736D01*
X300174Y474718D01*
X300186Y474693D01*
X300287Y474563D01*
X300307Y474545D01*
X300320Y474521D01*
X300427Y474396D01*
X300449Y474379D01*
X300463Y474356D01*
X300577Y474236D01*
X300599Y474221D01*
X300614Y474199D01*
X300734Y474085D01*
X300757Y474071D01*
X300774Y474049D01*
X300899Y473942D01*
X300923Y473929D01*
X300940Y473909D01*
X301071Y473808D01*
X301096Y473796D01*
X301115Y473777D01*
X301250Y473684D01*
X301275Y473673D01*
X301295Y473655D01*
X301436Y473568D01*
X301461Y473559D01*
X301482Y473542D01*
X301627Y473463D01*
X301653Y473455D01*
X301675Y473439D01*
X301823Y473368D01*
X301850Y473361D01*
X301872Y473346D01*
X302024Y473283D01*
X302051Y473278D01*
X302074Y473264D01*
X302230Y473209D01*
X302256Y473205D01*
X302280Y473192D01*
X302438Y473145D01*
X302466Y473143D01*
X302490Y473132D01*
X302650Y473093D01*
X302677Y473092D01*
X302703Y473082D01*
X302865Y473052D01*
X302892Y473052D01*
X302918Y473044D01*
X303081Y473022D01*
X303108Y473024D01*
X303134Y473017D01*
X303298Y473004D01*
X303325Y473007D01*
X303352Y473001D01*
X303517Y472997D01*
X303543Y473001D01*
X303570Y472997D01*
X303735Y473001D01*
X303761Y473007D01*
X303788Y473004D01*
X303953Y473017D01*
X303979Y473024D01*
X304006Y473022D01*
X304169Y473044D01*
X304195Y473052D01*
X304222Y473052D01*
X304384Y473082D01*
X304409Y473092D01*
X304436Y473093D01*
X304596Y473132D01*
X304621Y473143D01*
X304648Y473145D01*
X304806Y473192D01*
X304830Y473205D01*
X304857Y473209D01*
X305012Y473264D01*
X305036Y473278D01*
X305062Y473283D01*
X305215Y473346D01*
X305237Y473361D01*
X305263Y473368D01*
X305412Y473439D01*
X305434Y473455D01*
X305460Y473463D01*
X305605Y473542D01*
X305625Y473559D01*
X305651Y473568D01*
X305791Y473655D01*
X305811Y473673D01*
X305836Y473684D01*
X305972Y473777D01*
X305991Y473796D01*
X306015Y473808D01*
X306146Y473909D01*
X306164Y473929D01*
X306188Y473942D01*
X306313Y474049D01*
X306330Y474071D01*
X306353Y474085D01*
X306472Y474199D01*
X306488Y474221D01*
X306510Y474236D01*
X306624Y474356D01*
X306638Y474379D01*
X306659Y474396D01*
X306766Y474521D01*
X306780Y474545D01*
X306800Y474563D01*
X306900Y474693D01*
X306912Y474718D01*
X306932Y474736D01*
X307025Y474872D01*
X307036Y474897D01*
X307054Y474917D01*
X307140Y475058D01*
X307150Y475083D01*
X307167Y475104D01*
X307246Y475249D01*
X307254Y475275D01*
X307270Y475296D01*
X307341Y475445D01*
X307347Y475472D01*
X307363Y475494D01*
X307426Y475646D01*
X307431Y475673D01*
X307445Y475696D01*
X307500Y475852D01*
X307504Y475878D01*
X307516Y475903D01*
X307563Y476061D01*
X307566Y476088D01*
X307577Y476112D01*
X307615Y476272D01*
X307617Y476299D01*
X307627Y476325D01*
X307657Y476487D01*
X307656Y476514D01*
X307665Y476540D01*
X307686Y476703D01*
X307685Y476730D01*
X307692Y476756D01*
X307705Y476921D01*
X307702Y476947D01*
X307708Y476974D01*
X307712Y477139D01*
X307710Y477152D01*
X307713Y477165D01*
Y481890D01*
Y486614D01*
X307710Y486627D01*
X307712Y486641D01*
X307708Y486806D01*
X307702Y486832D01*
X307705Y486859D01*
X307692Y487023D01*
X307685Y487049D01*
X307686Y487077D01*
X307665Y487240D01*
X307656Y487266D01*
X307657Y487293D01*
X307627Y487455D01*
X307617Y487480D01*
X307615Y487507D01*
X307577Y487667D01*
X307566Y487692D01*
X307563Y487719D01*
X307516Y487877D01*
X307504Y487901D01*
X307500Y487928D01*
X307445Y488083D01*
X307431Y488106D01*
X307426Y488133D01*
X307363Y488285D01*
X307347Y488308D01*
X307341Y488334D01*
X307270Y488483D01*
X307254Y488505D01*
X307246Y488531D01*
X307167Y488675D01*
X307150Y488696D01*
X307140Y488722D01*
X307054Y488862D01*
X307036Y488882D01*
X307025Y488907D01*
X306932Y489043D01*
X306912Y489062D01*
X306900Y489086D01*
X306800Y489217D01*
X306780Y489235D01*
X306766Y489258D01*
X306659Y489384D01*
X306638Y489401D01*
X306624Y489424D01*
X306510Y489543D01*
X306488Y489559D01*
X306472Y489581D01*
X306353Y489694D01*
X306330Y489709D01*
X306313Y489730D01*
X306188Y489837D01*
X306164Y489850D01*
X306146Y489871D01*
X306015Y489971D01*
X305991Y489983D01*
X305972Y490002D01*
X305836Y490096D01*
X305811Y490107D01*
X305791Y490125D01*
X305651Y490211D01*
X305625Y490220D01*
X305605Y490238D01*
X305460Y490316D01*
X305434Y490324D01*
X305412Y490341D01*
X305263Y490412D01*
X305237Y490418D01*
X305215Y490434D01*
X305062Y490497D01*
X305036Y490502D01*
X305012Y490516D01*
X304857Y490571D01*
X304854Y490571D01*
X304641Y490650D01*
X304625Y490687D01*
X304950Y491187D01*
X491187D01*
Y361068D01*
D02*
G37*
G36*
X182055Y489759D02*
X182219Y489747D01*
X182383Y489725D01*
X182545Y489695D01*
X182705Y489656D01*
X182863Y489610D01*
X183019Y489555D01*
X183171Y489492D01*
X183320Y489421D01*
X183465Y489342D01*
X183605Y489256D01*
X183741Y489162D01*
X183872Y489062D01*
X183997Y488955D01*
X184117Y488841D01*
X184230Y488722D01*
X184337Y488596D01*
X184438Y488465D01*
X184531Y488330D01*
X184617Y488189D01*
X184696Y488044D01*
X184767Y487895D01*
X184830Y487743D01*
X184885Y487587D01*
X184932Y487429D01*
X184970Y487269D01*
X185001Y487107D01*
X185022Y486943D01*
X185035Y486779D01*
X185039Y486614D01*
Y481890D01*
Y477165D01*
X185035Y477001D01*
X185022Y476836D01*
X185001Y476673D01*
X184970Y476510D01*
X184932Y476350D01*
X184885Y476192D01*
X184830Y476037D01*
X184767Y475884D01*
X184696Y475736D01*
X184617Y475591D01*
X184531Y475450D01*
X184438Y475314D01*
X184337Y475183D01*
X184230Y475058D01*
X184117Y474938D01*
X183997Y474825D01*
X183872Y474718D01*
X183741Y474617D01*
X183605Y474524D01*
X183465Y474438D01*
X183320Y474359D01*
X183171Y474288D01*
X183019Y474225D01*
X182863Y474170D01*
X182705Y474123D01*
X182545Y474085D01*
X182383Y474054D01*
X182219Y474033D01*
X182055Y474020D01*
X181890Y474016D01*
X181725Y474020D01*
X181561Y474033D01*
X181397Y474054D01*
X181235Y474085D01*
X181075Y474123D01*
X180917Y474170D01*
X180761Y474225D01*
X180609Y474288D01*
X180460Y474359D01*
X180315Y474438D01*
X180174Y474524D01*
X180038Y474617D01*
X179908Y474718D01*
X179782Y474825D01*
X179663Y474938D01*
X179549Y475058D01*
X179442Y475183D01*
X179342Y475314D01*
X179248Y475450D01*
X179162Y475591D01*
X179083Y475736D01*
X179013Y475884D01*
X178949Y476037D01*
X178894Y476192D01*
X178848Y476350D01*
X178809Y476510D01*
X178779Y476673D01*
X178757Y476836D01*
X178744Y477001D01*
X178740Y477165D01*
Y481890D01*
Y486614D01*
X178744Y486779D01*
X178757Y486943D01*
X178779Y487107D01*
X178809Y487269D01*
X178848Y487429D01*
X178894Y487587D01*
X178949Y487743D01*
X179013Y487895D01*
X179083Y488044D01*
X179162Y488189D01*
X179248Y488330D01*
X179342Y488465D01*
X179442Y488596D01*
X179549Y488722D01*
X179663Y488841D01*
X179782Y488955D01*
X179908Y489062D01*
X180038Y489162D01*
X180174Y489256D01*
X180315Y489342D01*
X180460Y489421D01*
X180609Y489492D01*
X180761Y489555D01*
X180917Y489610D01*
X181075Y489656D01*
X181235Y489695D01*
X181397Y489725D01*
X181561Y489747D01*
X181725Y489759D01*
X181890Y489764D01*
X182055Y489759D01*
D02*
G37*
%LPC*%
G36*
X202940Y224106D02*
X197153D01*
Y220222D01*
X198622D01*
X199757Y220372D01*
X200814Y220810D01*
X201722Y221506D01*
X202419Y222414D01*
X202857Y223472D01*
X202940Y224106D01*
D02*
G37*
G36*
X317323Y236787D02*
X315753Y236632D01*
X314244Y236174D01*
X312852Y235431D01*
X311633Y234430D01*
X310632Y233211D01*
X309889Y231820D01*
X309431Y230310D01*
X309276Y228740D01*
X309431Y227170D01*
X309889Y225661D01*
X310632Y224270D01*
X311633Y223050D01*
X312852Y222050D01*
X314244Y221306D01*
X315753Y220848D01*
X317323Y220693D01*
X318893Y220848D01*
X320402Y221306D01*
X321793Y222050D01*
X323013Y223050D01*
X324013Y224270D01*
X324757Y225661D01*
X325215Y227170D01*
X325370Y228740D01*
X325215Y230310D01*
X324757Y231820D01*
X324013Y233211D01*
X323013Y234430D01*
X321793Y235431D01*
X320402Y236174D01*
X318893Y236632D01*
X317323Y236787D01*
D02*
G37*
G36*
X175091Y219728D02*
X174508D01*
X173681Y219619D01*
X172912Y219300D01*
X172250Y218793D01*
X171743Y218132D01*
X171424Y217362D01*
X171381Y217035D01*
X175091D01*
Y219728D01*
D02*
G37*
G36*
X196153Y224106D02*
X190367D01*
X190451Y223472D01*
X190888Y222414D01*
X191585Y221506D01*
X192493Y220810D01*
X193550Y220372D01*
X194685Y220222D01*
X196153D01*
Y224106D01*
D02*
G37*
G36*
X463189Y236787D02*
X461619Y236632D01*
X460110Y236174D01*
X458718Y235431D01*
X457499Y234430D01*
X456498Y233211D01*
X455755Y231820D01*
X455297Y230310D01*
X455142Y228740D01*
X455297Y227170D01*
X455755Y225661D01*
X456498Y224270D01*
X457499Y223050D01*
X458718Y222050D01*
X460110Y221306D01*
X461619Y220848D01*
X463189Y220693D01*
X464759Y220848D01*
X466268Y221306D01*
X467659Y222050D01*
X468879Y223050D01*
X469879Y224270D01*
X470623Y225661D01*
X471081Y227170D01*
X471236Y228740D01*
X471081Y230310D01*
X470623Y231820D01*
X469879Y233211D01*
X468879Y234430D01*
X467659Y235431D01*
X466268Y236174D01*
X464759Y236632D01*
X463189Y236787D01*
D02*
G37*
G36*
X198622Y228990D02*
X197153D01*
Y225106D01*
X202940D01*
X202857Y225741D01*
X202419Y226798D01*
X201722Y227706D01*
X200814Y228403D01*
X199757Y228841D01*
X198622Y228990D01*
D02*
G37*
G36*
X112992Y243646D02*
X111549Y243456D01*
X110205Y242899D01*
X109050Y242013D01*
X108164Y240859D01*
X107607Y239514D01*
X107417Y238071D01*
X107607Y236628D01*
X108164Y235283D01*
X109050Y234129D01*
X110205Y233243D01*
X111549Y232686D01*
X112992Y232496D01*
X114435Y232686D01*
X115780Y233243D01*
X116934Y234129D01*
X117821Y235283D01*
X118377Y236628D01*
X118567Y238071D01*
X118377Y239514D01*
X117821Y240859D01*
X116934Y242013D01*
X115780Y242899D01*
X114435Y243456D01*
X112992Y243646D01*
D02*
G37*
G36*
X196153Y228990D02*
X194685D01*
X193550Y228841D01*
X192493Y228403D01*
X191585Y227706D01*
X190888Y226798D01*
X190451Y225741D01*
X190367Y225106D01*
X196153D01*
Y228990D01*
D02*
G37*
G36*
X197063Y323909D02*
X193020D01*
Y319866D01*
X197063D01*
Y323909D01*
D02*
G37*
G36*
X183760Y216579D02*
X183177D01*
Y213886D01*
X186887D01*
X186844Y214212D01*
X186525Y214982D01*
X186017Y215643D01*
X185356Y216151D01*
X184586Y216470D01*
X183760Y216579D01*
D02*
G37*
G36*
X176673Y219728D02*
X176091D01*
Y216535D01*
X175591D01*
Y216035D01*
X171381D01*
X171424Y215709D01*
X171743Y214939D01*
X172250Y214278D01*
X172912Y213771D01*
X173187Y213656D01*
Y213115D01*
X172912Y213001D01*
X172250Y212494D01*
X171743Y211832D01*
X171424Y211063D01*
X171315Y210236D01*
X171424Y209410D01*
X171743Y208640D01*
X172250Y207979D01*
X172912Y207471D01*
X173187Y207357D01*
Y206816D01*
X172912Y206702D01*
X172250Y206195D01*
X171743Y205533D01*
X171424Y204763D01*
X171315Y203937D01*
X171424Y203111D01*
X171743Y202341D01*
X172250Y201679D01*
X172912Y201172D01*
X173681Y200853D01*
X174508Y200744D01*
X176673D01*
X177499Y200853D01*
X178270Y201172D01*
X178931Y201679D01*
X179438Y202341D01*
X179757Y203111D01*
X179853Y203840D01*
X180101Y204058D01*
X180338Y204181D01*
X180768Y204003D01*
X181595Y203894D01*
X183760D01*
X184586Y204003D01*
X185356Y204322D01*
X186017Y204829D01*
X186525Y205490D01*
X186844Y206260D01*
X186952Y207087D01*
X186844Y207913D01*
X186525Y208683D01*
X186017Y209344D01*
X185356Y209852D01*
X185081Y209966D01*
Y210507D01*
X185356Y210621D01*
X186017Y211128D01*
X186525Y211789D01*
X186844Y212560D01*
X186887Y212886D01*
X182677D01*
Y213386D01*
X182177D01*
Y216579D01*
X181595D01*
X180768Y216470D01*
X180338Y216292D01*
X180101Y216414D01*
X179853Y216632D01*
X179757Y217362D01*
X179438Y218132D01*
X178931Y218793D01*
X178270Y219300D01*
X177499Y219619D01*
X176673Y219728D01*
D02*
G37*
G36*
X123661Y219986D02*
X122667Y219855D01*
X121739Y219471D01*
X120943Y218860D01*
X120333Y218064D01*
X119948Y217137D01*
X119817Y216142D01*
X119948Y215147D01*
X120333Y214220D01*
X120943Y213424D01*
X121739Y212813D01*
X122581Y212464D01*
X122627Y212205D01*
X122581Y211945D01*
X121739Y211597D01*
X120943Y210986D01*
X120333Y210190D01*
X119948Y209263D01*
X119817Y208268D01*
X119948Y207273D01*
X120333Y206346D01*
X120943Y205550D01*
X121739Y204939D01*
X122667Y204555D01*
X123661Y204424D01*
X124656Y204555D01*
X125583Y204939D01*
X126380Y205550D01*
X126990Y206346D01*
X127374Y207273D01*
X127505Y208268D01*
X127374Y209263D01*
X126990Y210190D01*
X126380Y210986D01*
X125583Y211597D01*
X124742Y211945D01*
X124696Y212205D01*
X124742Y212464D01*
X125583Y212813D01*
X126380Y213424D01*
X126990Y214220D01*
X127374Y215147D01*
X127505Y216142D01*
X127374Y217137D01*
X126990Y218064D01*
X126380Y218860D01*
X125583Y219471D01*
X124656Y219855D01*
X123661Y219986D01*
D02*
G37*
G36*
X123161Y202203D02*
X122667Y202138D01*
X121739Y201754D01*
X120943Y201143D01*
X120333Y200347D01*
X119948Y199420D01*
X119883Y198925D01*
X123161D01*
Y202203D01*
D02*
G37*
G36*
X124161D02*
Y198925D01*
X127439D01*
X127374Y199420D01*
X126990Y200347D01*
X126380Y201143D01*
X125583Y201754D01*
X124656Y202138D01*
X124161Y202203D01*
D02*
G37*
G36*
X248780Y218750D02*
X247426Y218617D01*
X246124Y218222D01*
X244924Y217581D01*
X243873Y216718D01*
X243010Y215666D01*
X242369Y214466D01*
X241974Y213165D01*
X241841Y211811D01*
X241974Y210457D01*
X242369Y209156D01*
X243010Y207956D01*
X243873Y206905D01*
X244924Y206042D01*
X246124Y205400D01*
X247426Y205005D01*
X248780Y204872D01*
X250133Y205005D01*
X251435Y205400D01*
X252635Y206042D01*
X253686Y206905D01*
X254549Y207956D01*
X255190Y209156D01*
X255585Y210457D01*
X255718Y211811D01*
X255585Y213165D01*
X255190Y214466D01*
X254549Y215666D01*
X253686Y216718D01*
X252635Y217581D01*
X251435Y218222D01*
X250133Y218617D01*
X248780Y218750D01*
D02*
G37*
G36*
X483161Y218701D02*
X482308Y218617D01*
X481006Y218222D01*
X479806Y217581D01*
X478755Y216718D01*
X477892Y215666D01*
X477251Y214466D01*
X476856Y213165D01*
X476772Y212311D01*
X483161D01*
Y218701D01*
D02*
G37*
G36*
X484161D02*
Y212311D01*
X490551D01*
X490467Y213165D01*
X490072Y214466D01*
X489431Y215666D01*
X488568Y216718D01*
X487516Y217581D01*
X486317Y218222D01*
X485015Y218617D01*
X484161Y218701D01*
D02*
G37*
G36*
X483161Y211311D02*
X476772D01*
X476856Y210457D01*
X477251Y209156D01*
X477892Y207956D01*
X478755Y206905D01*
X479806Y206042D01*
X481006Y205400D01*
X482308Y205005D01*
X483161Y204921D01*
Y211311D01*
D02*
G37*
G36*
X490551D02*
X484161D01*
Y204921D01*
X485015Y205005D01*
X486317Y205400D01*
X487516Y206042D01*
X488568Y206905D01*
X489431Y207956D01*
X490072Y209156D01*
X490467Y210457D01*
X490551Y211311D01*
D02*
G37*
G36*
X112992Y300182D02*
X111549Y299992D01*
X110205Y299435D01*
X109050Y298549D01*
X108164Y297394D01*
X107607Y296049D01*
X107417Y294606D01*
X107607Y293163D01*
X108164Y291819D01*
X109050Y290664D01*
X110205Y289778D01*
X111549Y289221D01*
X112992Y289031D01*
X114435Y289221D01*
X115780Y289778D01*
X116934Y290664D01*
X117821Y291819D01*
X118377Y293163D01*
X118567Y294606D01*
X118377Y296049D01*
X117821Y297394D01*
X116934Y298549D01*
X115780Y299435D01*
X114435Y299992D01*
X112992Y300182D01*
D02*
G37*
G36*
X127439Y306193D02*
X124161D01*
Y302915D01*
X124656Y302980D01*
X125583Y303364D01*
X126380Y303975D01*
X126990Y304771D01*
X127374Y305698D01*
X127439Y306193D01*
D02*
G37*
G36*
X248878Y298612D02*
X247524Y298479D01*
X246222Y298084D01*
X245023Y297443D01*
X243971Y296580D01*
X243108Y295528D01*
X242467Y294329D01*
X242072Y293027D01*
X241939Y291673D01*
X242072Y290319D01*
X242467Y289018D01*
X243108Y287818D01*
X243971Y286767D01*
X245023Y285904D01*
X246222Y285262D01*
X247524Y284868D01*
X248878Y284734D01*
X250232Y284868D01*
X251533Y285262D01*
X252733Y285904D01*
X253784Y286767D01*
X254647Y287818D01*
X255289Y289018D01*
X255683Y290319D01*
X255817Y291673D01*
X255683Y293027D01*
X255289Y294329D01*
X254647Y295528D01*
X253784Y296580D01*
X252733Y297443D01*
X251533Y298084D01*
X250232Y298479D01*
X248878Y298612D01*
D02*
G37*
G36*
X204331Y303201D02*
X202900Y303060D01*
X201524Y302642D01*
X200256Y301965D01*
X199144Y301052D01*
X198232Y299941D01*
X197555Y298673D01*
X197137Y297297D01*
X196996Y295866D01*
X197137Y294435D01*
X197555Y293059D01*
X198232Y291791D01*
X199144Y290680D01*
X200256Y289768D01*
X201524Y289090D01*
X202900Y288672D01*
X204331Y288532D01*
X205762Y288672D01*
X207137Y289090D01*
X208406Y289768D01*
X209517Y290680D01*
X210429Y291791D01*
X211107Y293059D01*
X211524Y294435D01*
X211665Y295866D01*
X211524Y297297D01*
X211107Y298673D01*
X210429Y299941D01*
X209517Y301052D01*
X208406Y301965D01*
X207137Y302642D01*
X205762Y303060D01*
X204331Y303201D01*
D02*
G37*
G36*
X123161Y306193D02*
X119883D01*
X119948Y305698D01*
X120333Y304771D01*
X120943Y303975D01*
X121739Y303364D01*
X122667Y302980D01*
X123161Y302915D01*
Y306193D01*
D02*
G37*
G36*
X187221Y319110D02*
X178134D01*
Y310024D01*
X187221D01*
Y319110D01*
D02*
G37*
G36*
X197063D02*
X187976D01*
Y310024D01*
X197063D01*
Y319110D01*
D02*
G37*
G36*
X123161Y310471D02*
X122667Y310406D01*
X121739Y310022D01*
X120943Y309411D01*
X120333Y308615D01*
X119948Y307688D01*
X119883Y307193D01*
X123161D01*
Y310471D01*
D02*
G37*
G36*
X124161D02*
Y307193D01*
X127439D01*
X127374Y307688D01*
X126990Y308615D01*
X126380Y309411D01*
X125583Y310022D01*
X124656Y310406D01*
X124161Y310471D01*
D02*
G37*
G36*
X463287Y279208D02*
X461718Y279053D01*
X460208Y278595D01*
X458817Y277852D01*
X457598Y276851D01*
X456597Y275632D01*
X455853Y274241D01*
X455395Y272731D01*
X455241Y271161D01*
X455395Y269592D01*
X455853Y268082D01*
X456597Y266691D01*
X457598Y265472D01*
X458817Y264471D01*
X460208Y263727D01*
X461718Y263269D01*
X463287Y263115D01*
X464857Y263269D01*
X466367Y263727D01*
X467758Y264471D01*
X468977Y265472D01*
X469978Y266691D01*
X470721Y268082D01*
X471179Y269592D01*
X471334Y271161D01*
X471179Y272731D01*
X470721Y274241D01*
X469978Y275632D01*
X468977Y276851D01*
X467758Y277852D01*
X466367Y278595D01*
X464857Y279053D01*
X463287Y279208D01*
D02*
G37*
G36*
X123661Y328253D02*
X122667Y328122D01*
X121739Y327738D01*
X120943Y327128D01*
X120333Y326331D01*
X119948Y325404D01*
X119817Y324410D01*
X119948Y323415D01*
X120333Y322487D01*
X120943Y321691D01*
X121739Y321080D01*
X122581Y320732D01*
X122627Y320472D01*
X122581Y320213D01*
X121739Y319864D01*
X120943Y319253D01*
X120333Y318457D01*
X119948Y317530D01*
X119817Y316535D01*
X119948Y315541D01*
X120333Y314614D01*
X120943Y313817D01*
X121739Y313207D01*
X122667Y312823D01*
X123661Y312691D01*
X124656Y312823D01*
X125583Y313207D01*
X126380Y313817D01*
X126990Y314614D01*
X127374Y315541D01*
X127505Y316535D01*
X127374Y317530D01*
X126990Y318457D01*
X126380Y319253D01*
X125583Y319864D01*
X124742Y320213D01*
X124696Y320472D01*
X124742Y320732D01*
X125583Y321080D01*
X126380Y321691D01*
X126990Y322487D01*
X127374Y323415D01*
X127505Y324410D01*
X127374Y325404D01*
X126990Y326331D01*
X126380Y327128D01*
X125583Y327738D01*
X124656Y328122D01*
X123661Y328253D01*
D02*
G37*
G36*
X259547Y316832D02*
X258658Y316655D01*
X257904Y316151D01*
X257400Y315397D01*
X257223Y314508D01*
X257400Y313618D01*
X257904Y312864D01*
X258658Y312361D01*
X259547Y312184D01*
X260437Y312361D01*
X261191Y312864D01*
X261695Y313618D01*
X261871Y314508D01*
X261695Y315397D01*
X261191Y316151D01*
X260437Y316655D01*
X259547Y316832D01*
D02*
G37*
G36*
X192020Y323909D02*
X187976D01*
Y319866D01*
X192020D01*
Y323909D01*
D02*
G37*
G36*
X182677Y328992D02*
X181491Y328836D01*
X180386Y328378D01*
X179437Y327650D01*
X178709Y326701D01*
X178251Y325595D01*
X178095Y324410D01*
X178251Y323223D01*
X178709Y322118D01*
X179437Y321169D01*
X180386Y320441D01*
X181491Y319983D01*
X182677Y319827D01*
X183863Y319983D01*
X184968Y320441D01*
X185917Y321169D01*
X186646Y322118D01*
X187103Y323223D01*
X187260Y324410D01*
X187103Y325595D01*
X186646Y326701D01*
X185917Y327650D01*
X184968Y328378D01*
X183863Y328836D01*
X182677Y328992D01*
D02*
G37*
G36*
X316035Y241232D02*
X313071D01*
X313125Y240819D01*
X313478Y239967D01*
X314039Y239236D01*
X314770Y238675D01*
X315622Y238322D01*
X316035Y238268D01*
Y241232D01*
D02*
G37*
G36*
X317035Y245197D02*
Y242232D01*
X320000D01*
X319945Y242646D01*
X319593Y243497D01*
X319032Y244229D01*
X318301Y244790D01*
X317449Y245142D01*
X317035Y245197D01*
D02*
G37*
G36*
X317421Y279208D02*
X315851Y279053D01*
X314342Y278595D01*
X312951Y277852D01*
X311731Y276851D01*
X310731Y275632D01*
X309987Y274241D01*
X309529Y272731D01*
X309375Y271161D01*
X309529Y269592D01*
X309987Y268082D01*
X310731Y266691D01*
X311731Y265472D01*
X312951Y264471D01*
X314342Y263727D01*
X315851Y263269D01*
X317421Y263115D01*
X318991Y263269D01*
X320501Y263727D01*
X321892Y264471D01*
X323111Y265472D01*
X324112Y266691D01*
X324855Y268082D01*
X325313Y269592D01*
X325468Y271161D01*
X325313Y272731D01*
X324855Y274241D01*
X324112Y275632D01*
X323111Y276851D01*
X321892Y277852D01*
X320501Y278595D01*
X318991Y279053D01*
X317421Y279208D01*
D02*
G37*
G36*
X320000Y241232D02*
X317035D01*
Y238268D01*
X317449Y238322D01*
X318301Y238675D01*
X319032Y239236D01*
X319593Y239967D01*
X319945Y240819D01*
X320000Y241232D01*
D02*
G37*
G36*
X316035Y245197D02*
X315622Y245142D01*
X314770Y244790D01*
X314039Y244229D01*
X313478Y243497D01*
X313125Y242646D01*
X313071Y242232D01*
X316035D01*
Y245197D01*
D02*
G37*
G36*
X123661Y149119D02*
X122667Y148988D01*
X121739Y148605D01*
X120943Y147994D01*
X120333Y147198D01*
X119948Y146271D01*
X119817Y145276D01*
X119948Y144281D01*
X120333Y143354D01*
X120943Y142558D01*
X121739Y141947D01*
X122581Y141598D01*
X122627Y141339D01*
X122581Y141079D01*
X121739Y140731D01*
X120943Y140120D01*
X120333Y139323D01*
X119948Y138397D01*
X119817Y137402D01*
X119948Y136407D01*
X120333Y135480D01*
X120943Y134684D01*
X121739Y134073D01*
X122667Y133689D01*
X123661Y133558D01*
X124656Y133689D01*
X125583Y134073D01*
X126380Y134684D01*
X126990Y135480D01*
X127374Y136407D01*
X127505Y137402D01*
X127374Y138397D01*
X126990Y139323D01*
X126380Y140120D01*
X125583Y140731D01*
X124742Y141079D01*
X124696Y141339D01*
X124742Y141598D01*
X125583Y141947D01*
X126380Y142558D01*
X126990Y143354D01*
X127374Y144281D01*
X127505Y145276D01*
X127374Y146271D01*
X126990Y147198D01*
X126380Y147994D01*
X125583Y148605D01*
X124656Y148988D01*
X123661Y149119D01*
D02*
G37*
G36*
X248780Y149498D02*
X247426Y149365D01*
X246124Y148970D01*
X244924Y148328D01*
X243873Y147466D01*
X243010Y146414D01*
X242369Y145214D01*
X241974Y143913D01*
X241841Y142559D01*
X241974Y141205D01*
X242369Y139904D01*
X243010Y138704D01*
X243873Y137653D01*
X244924Y136790D01*
X246124Y136148D01*
X247426Y135754D01*
X248780Y135620D01*
X250133Y135754D01*
X251435Y136148D01*
X252635Y136790D01*
X253686Y137653D01*
X254549Y138704D01*
X255190Y139904D01*
X255585Y141205D01*
X255718Y142559D01*
X255585Y143913D01*
X255190Y145214D01*
X254549Y146414D01*
X253686Y147466D01*
X252635Y148328D01*
X251435Y148970D01*
X250133Y149365D01*
X248780Y149498D01*
D02*
G37*
G36*
X124161Y131337D02*
Y128059D01*
X127439D01*
X127374Y128554D01*
X126990Y129481D01*
X126380Y130277D01*
X125583Y130888D01*
X124656Y131272D01*
X124161Y131337D01*
D02*
G37*
G36*
X182579Y148862D02*
X181996D01*
Y145669D01*
X181496D01*
Y145169D01*
X177287D01*
X177330Y144843D01*
X177648Y144073D01*
X178156Y143412D01*
X178817Y142904D01*
X179093Y142790D01*
Y142249D01*
X178817Y142135D01*
X178156Y141628D01*
X177648Y140966D01*
X177330Y140196D01*
X177221Y139370D01*
X177330Y138544D01*
X177648Y137774D01*
X178156Y137112D01*
X178817Y136605D01*
X179093Y136491D01*
Y135950D01*
X178817Y135836D01*
X178156Y135328D01*
X177648Y134667D01*
X177330Y133897D01*
X177221Y133071D01*
X177330Y132245D01*
X177648Y131474D01*
X178156Y130813D01*
X178817Y130306D01*
X179587Y129987D01*
X180413Y129878D01*
X182579D01*
X183405Y129987D01*
X184175Y130306D01*
X184836Y130813D01*
X185344Y131474D01*
X185663Y132245D01*
X185759Y132974D01*
X186006Y133192D01*
X186244Y133315D01*
X186674Y133137D01*
X187500Y133028D01*
X189665D01*
X190492Y133137D01*
X191262Y133456D01*
X191923Y133963D01*
X192430Y134624D01*
X192749Y135394D01*
X192858Y136221D01*
X192749Y137047D01*
X192430Y137817D01*
X191923Y138478D01*
X191262Y138985D01*
X190986Y139100D01*
Y139641D01*
X191262Y139755D01*
X191923Y140262D01*
X192430Y140923D01*
X192749Y141693D01*
X192792Y142020D01*
X188583D01*
Y142520D01*
X188083D01*
Y145712D01*
X187500D01*
X186674Y145604D01*
X186244Y145425D01*
X186006Y145548D01*
X185759Y145766D01*
X185663Y146496D01*
X185344Y147266D01*
X184836Y147927D01*
X184175Y148434D01*
X183405Y148753D01*
X182579Y148862D01*
D02*
G37*
G36*
X483161Y142059D02*
X476772D01*
X476856Y141205D01*
X477251Y139904D01*
X477892Y138704D01*
X478755Y137653D01*
X479806Y136790D01*
X481006Y136148D01*
X482308Y135754D01*
X483161Y135669D01*
Y142059D01*
D02*
G37*
G36*
Y149449D02*
X482308Y149365D01*
X481006Y148970D01*
X479806Y148328D01*
X478755Y147466D01*
X477892Y146414D01*
X477251Y145214D01*
X476856Y143913D01*
X476772Y143059D01*
X483161D01*
Y149449D01*
D02*
G37*
G36*
X484161D02*
Y143059D01*
X490551D01*
X490467Y143913D01*
X490072Y145214D01*
X489431Y146414D01*
X488568Y147466D01*
X487516Y148328D01*
X486317Y148970D01*
X485015Y149365D01*
X484161Y149449D01*
D02*
G37*
G36*
X490551Y142059D02*
X484161D01*
Y135669D01*
X485015Y135754D01*
X486317Y136148D01*
X487516Y136790D01*
X488568Y137653D01*
X489431Y138704D01*
X490072Y139904D01*
X490467Y141205D01*
X490551Y142059D01*
D02*
G37*
G36*
X189665Y145712D02*
X189083D01*
Y143020D01*
X192792D01*
X192749Y143346D01*
X192430Y144116D01*
X191923Y144777D01*
X191262Y145285D01*
X190492Y145604D01*
X189665Y145712D01*
D02*
G37*
G36*
X123161Y131337D02*
X122667Y131272D01*
X121739Y130888D01*
X120943Y130277D01*
X120333Y129481D01*
X119948Y128554D01*
X119883Y128059D01*
X123161D01*
Y131337D01*
D02*
G37*
G36*
X463189Y130094D02*
X461619Y129939D01*
X460110Y129481D01*
X458718Y128738D01*
X457499Y127737D01*
X456498Y126518D01*
X455755Y125127D01*
X455297Y123617D01*
X455142Y122047D01*
X455297Y120477D01*
X455755Y118968D01*
X456498Y117577D01*
X457499Y116357D01*
X458718Y115357D01*
X460110Y114613D01*
X461619Y114155D01*
X463189Y114001D01*
X464759Y114155D01*
X466268Y114613D01*
X467659Y115357D01*
X468879Y116357D01*
X469879Y117577D01*
X470623Y118968D01*
X471081Y120477D01*
X471236Y122047D01*
X471081Y123617D01*
X470623Y125127D01*
X469879Y126518D01*
X468879Y127737D01*
X467659Y128738D01*
X466268Y129481D01*
X464759Y129939D01*
X463189Y130094D01*
D02*
G37*
G36*
X202059Y124500D02*
X196272D01*
X196356Y123865D01*
X196794Y122808D01*
X197491Y121900D01*
X198399Y121203D01*
X199456Y120765D01*
X200591Y120616D01*
X202059D01*
Y124500D01*
D02*
G37*
G36*
X112992Y121048D02*
X111549Y120858D01*
X110205Y120301D01*
X109050Y119415D01*
X108164Y118260D01*
X107607Y116915D01*
X107417Y115472D01*
X107607Y114030D01*
X108164Y112685D01*
X109050Y111530D01*
X110205Y110644D01*
X111549Y110087D01*
X112992Y109897D01*
X114435Y110087D01*
X115780Y110644D01*
X116934Y111530D01*
X117821Y112685D01*
X118377Y114030D01*
X118567Y115472D01*
X118377Y116915D01*
X117821Y118260D01*
X116934Y119415D01*
X115780Y120301D01*
X114435Y120858D01*
X112992Y121048D01*
D02*
G37*
G36*
X317323Y130094D02*
X315753Y129939D01*
X314244Y129481D01*
X312852Y128738D01*
X311633Y127737D01*
X310632Y126518D01*
X309889Y125127D01*
X309431Y123617D01*
X309276Y122047D01*
X309431Y120477D01*
X309889Y118968D01*
X310632Y117577D01*
X311633Y116357D01*
X312852Y115357D01*
X314244Y114613D01*
X315753Y114155D01*
X317323Y114001D01*
X318893Y114155D01*
X320402Y114613D01*
X321793Y115357D01*
X323013Y116357D01*
X324013Y117577D01*
X324757Y118968D01*
X325215Y120477D01*
X325370Y122047D01*
X325215Y123617D01*
X324757Y125127D01*
X324013Y126518D01*
X323013Y127737D01*
X321793Y128738D01*
X320402Y129481D01*
X318893Y129939D01*
X317323Y130094D01*
D02*
G37*
G36*
X208846Y124500D02*
X203059D01*
Y120616D01*
X204528D01*
X205662Y120765D01*
X206719Y121203D01*
X207628Y121900D01*
X208324Y122808D01*
X208762Y123865D01*
X208846Y124500D01*
D02*
G37*
G36*
X202059Y129384D02*
X200591D01*
X199456Y129235D01*
X198399Y128797D01*
X197491Y128100D01*
X196794Y127192D01*
X196356Y126135D01*
X196272Y125500D01*
X202059D01*
Y129384D01*
D02*
G37*
G36*
X204528D02*
X203059D01*
Y125500D01*
X208846D01*
X208762Y126135D01*
X208324Y127192D01*
X207628Y128100D01*
X206719Y128797D01*
X205662Y129235D01*
X204528Y129384D01*
D02*
G37*
G36*
X123161Y127059D02*
X119883D01*
X119948Y126564D01*
X120333Y125637D01*
X120943Y124841D01*
X121739Y124230D01*
X122667Y123846D01*
X123161Y123781D01*
Y127059D01*
D02*
G37*
G36*
X127439D02*
X124161D01*
Y123781D01*
X124656Y123846D01*
X125583Y124230D01*
X126380Y124841D01*
X126990Y125637D01*
X127374Y126564D01*
X127439Y127059D01*
D02*
G37*
G36*
X259449Y190474D02*
X258559Y190297D01*
X257805Y189793D01*
X257301Y189039D01*
X257125Y188150D01*
X257301Y187260D01*
X257805Y186506D01*
X258559Y186002D01*
X259449Y185825D01*
X260338Y186002D01*
X261092Y186506D01*
X261596Y187260D01*
X261773Y188150D01*
X261596Y189039D01*
X261092Y189793D01*
X260338Y190297D01*
X259449Y190474D01*
D02*
G37*
G36*
X196153Y195366D02*
X190367D01*
X190451Y194731D01*
X190888Y193674D01*
X191585Y192766D01*
X192493Y192069D01*
X193550Y191632D01*
X194685Y191482D01*
X196153D01*
Y195366D01*
D02*
G37*
G36*
X295382Y181417D02*
Y178453D01*
X298346D01*
X298292Y178866D01*
X297939Y179718D01*
X297378Y180449D01*
X296647Y181010D01*
X295796Y181363D01*
X295382Y181417D01*
D02*
G37*
G36*
X112992Y191914D02*
X111549Y191724D01*
X110205Y191167D01*
X109050Y190281D01*
X108164Y189126D01*
X107607Y187782D01*
X107417Y186339D01*
X107607Y184896D01*
X108164Y183551D01*
X109050Y182396D01*
X110205Y181510D01*
X111549Y180953D01*
X112992Y180763D01*
X114435Y180953D01*
X115780Y181510D01*
X116934Y182396D01*
X117821Y183551D01*
X118377Y184896D01*
X118567Y186339D01*
X118377Y187782D01*
X117821Y189126D01*
X116934Y190281D01*
X115780Y191167D01*
X114435Y191724D01*
X112992Y191914D01*
D02*
G37*
G36*
X202940Y195366D02*
X197153D01*
Y191482D01*
X198622D01*
X199757Y191632D01*
X200814Y192069D01*
X201722Y192766D01*
X202419Y193674D01*
X202857Y194731D01*
X202940Y195366D01*
D02*
G37*
G36*
X196153Y200250D02*
X194685D01*
X193550Y200101D01*
X192493Y199663D01*
X191585Y198966D01*
X190888Y198058D01*
X190451Y197001D01*
X190367Y196366D01*
X196153D01*
Y200250D01*
D02*
G37*
G36*
X198622D02*
X197153D01*
Y196366D01*
X202940D01*
X202857Y197001D01*
X202419Y198058D01*
X201722Y198966D01*
X200814Y199663D01*
X199757Y200101D01*
X198622Y200250D01*
D02*
G37*
G36*
X127439Y197925D02*
X124161D01*
Y194647D01*
X124656Y194712D01*
X125583Y195096D01*
X126380Y195707D01*
X126990Y196503D01*
X127374Y197430D01*
X127439Y197925D01*
D02*
G37*
G36*
X123161D02*
X119883D01*
X119948Y197430D01*
X120333Y196503D01*
X120943Y195707D01*
X121739Y195096D01*
X122667Y194712D01*
X123161Y194647D01*
Y197925D01*
D02*
G37*
G36*
X294382Y181417D02*
X293968Y181363D01*
X293117Y181010D01*
X292386Y180449D01*
X291825Y179718D01*
X291472Y178866D01*
X291418Y178453D01*
X294382D01*
Y181417D01*
D02*
G37*
G36*
X208846Y153240D02*
X203059D01*
Y149356D01*
X204528D01*
X205662Y149506D01*
X206719Y149943D01*
X207628Y150640D01*
X208324Y151548D01*
X208762Y152605D01*
X208846Y153240D01*
D02*
G37*
G36*
X202059Y158124D02*
X200591D01*
X199456Y157975D01*
X198399Y157537D01*
X197491Y156840D01*
X196794Y155932D01*
X196356Y154875D01*
X196272Y154240D01*
X202059D01*
Y158124D01*
D02*
G37*
G36*
X180996Y148862D02*
X180413D01*
X179587Y148753D01*
X178817Y148434D01*
X178156Y147927D01*
X177648Y147266D01*
X177330Y146496D01*
X177287Y146169D01*
X180996D01*
Y148862D01*
D02*
G37*
G36*
X202059Y153240D02*
X196272D01*
X196356Y152605D01*
X196794Y151548D01*
X197491Y150640D01*
X198399Y149943D01*
X199456Y149506D01*
X200591Y149356D01*
X202059D01*
Y153240D01*
D02*
G37*
G36*
X204528Y158124D02*
X203059D01*
Y154240D01*
X208846D01*
X208762Y154875D01*
X208324Y155932D01*
X207628Y156840D01*
X206719Y157537D01*
X205662Y157975D01*
X204528Y158124D01*
D02*
G37*
G36*
X294382Y177453D02*
X291418D01*
X291472Y177039D01*
X291825Y176188D01*
X292386Y175457D01*
X293117Y174896D01*
X293968Y174543D01*
X294382Y174488D01*
Y177453D01*
D02*
G37*
G36*
X298346D02*
X295382D01*
Y174488D01*
X295796Y174543D01*
X296647Y174896D01*
X297378Y175457D01*
X297939Y176188D01*
X298292Y177039D01*
X298346Y177453D01*
D02*
G37*
G36*
X112992Y172780D02*
X111549Y172590D01*
X110205Y172033D01*
X109050Y171147D01*
X108164Y169992D01*
X107607Y168648D01*
X107417Y167205D01*
X107607Y165762D01*
X108164Y164417D01*
X109050Y163262D01*
X110205Y162376D01*
X111549Y161819D01*
X112992Y161629D01*
X114435Y161819D01*
X115780Y162376D01*
X116934Y163262D01*
X117821Y164417D01*
X118377Y165762D01*
X118567Y167205D01*
X118377Y168648D01*
X117821Y169992D01*
X116934Y171147D01*
X115780Y172033D01*
X114435Y172590D01*
X112992Y172780D01*
D02*
G37*
G36*
X259449Y167718D02*
X258559Y167541D01*
X257805Y167037D01*
X257301Y166283D01*
X257125Y165394D01*
X257301Y164504D01*
X257805Y163750D01*
X258559Y163246D01*
X259449Y163069D01*
X260338Y163246D01*
X261092Y163750D01*
X261596Y164504D01*
X261773Y165394D01*
X261596Y166283D01*
X261092Y167037D01*
X260338Y167541D01*
X259449Y167718D01*
D02*
G37*
G36*
X412122Y475114D02*
X405398D01*
Y466815D01*
X412122D01*
Y475114D01*
D02*
G37*
G36*
X458161Y472320D02*
X457835Y472277D01*
X457065Y471958D01*
X456404Y471451D01*
X455897Y470789D01*
X455578Y470019D01*
X455469Y469193D01*
Y468610D01*
X458161D01*
Y472320D01*
D02*
G37*
G36*
X455012Y460524D02*
X452319D01*
Y459941D01*
X452428Y459115D01*
X452747Y458345D01*
X453254Y457683D01*
X453916Y457176D01*
X454685Y456857D01*
X455012Y456814D01*
Y460524D01*
D02*
G37*
G36*
X393028Y475114D02*
X386303D01*
Y466815D01*
X393028D01*
Y475114D01*
D02*
G37*
G36*
X148228Y482039D02*
X147171Y481900D01*
X146185Y481492D01*
X145339Y480842D01*
X144690Y479996D01*
X144281Y479010D01*
X144142Y477953D01*
X144281Y476895D01*
X144690Y475910D01*
X145339Y475063D01*
X146185Y474414D01*
X147171Y474006D01*
X148228Y473867D01*
X149286Y474006D01*
X150271Y474414D01*
X151118Y475063D01*
X151767Y475910D01*
X152175Y476895D01*
X152314Y477953D01*
X152175Y479010D01*
X151767Y479996D01*
X151118Y480842D01*
X150271Y481492D01*
X149286Y481900D01*
X148228Y482039D01*
D02*
G37*
G36*
X447441Y488439D02*
X446306Y488290D01*
X445249Y487852D01*
X444341Y487155D01*
X443644Y486247D01*
X443206Y485190D01*
X443057Y484055D01*
Y480118D01*
X443206Y478983D01*
X443644Y477926D01*
X444341Y477018D01*
X445249Y476322D01*
X446306Y475883D01*
X447441Y475734D01*
X448576Y475883D01*
X449633Y476322D01*
X450541Y477018D01*
X451238Y477926D01*
X451676Y478983D01*
X451825Y480118D01*
Y484055D01*
X451676Y485190D01*
X451238Y486247D01*
X450541Y487155D01*
X449633Y487852D01*
X448576Y488290D01*
X447441Y488439D01*
D02*
G37*
G36*
X464961Y472386D02*
X464134Y472277D01*
X463364Y471958D01*
X462703Y471451D01*
X462196Y470789D01*
X462082Y470514D01*
X461540D01*
X461426Y470789D01*
X460919Y471451D01*
X460258Y471958D01*
X459488Y472277D01*
X459162Y472320D01*
Y468110D01*
X458662D01*
Y467610D01*
X455469D01*
Y467028D01*
X455578Y466201D01*
X455756Y465771D01*
X455633Y465534D01*
X455415Y465286D01*
X454685Y465190D01*
X453916Y464871D01*
X453254Y464364D01*
X452747Y463703D01*
X452428Y462933D01*
X452319Y462106D01*
Y461524D01*
X455512D01*
Y461024D01*
X456012D01*
Y456814D01*
X456338Y456857D01*
X457108Y457176D01*
X457769Y457683D01*
X458277Y458345D01*
X458391Y458620D01*
X458932D01*
X459046Y458345D01*
X459553Y457683D01*
X460215Y457176D01*
X460985Y456857D01*
X461811Y456748D01*
X462637Y456857D01*
X463407Y457176D01*
X464069Y457683D01*
X464576Y458345D01*
X464690Y458620D01*
X465231D01*
X465345Y458345D01*
X465853Y457683D01*
X466514Y457176D01*
X467284Y456857D01*
X468110Y456748D01*
X468937Y456857D01*
X469707Y457176D01*
X470368Y457683D01*
X470875Y458345D01*
X471194Y459115D01*
X471303Y459941D01*
Y462106D01*
X471194Y462933D01*
X470875Y463703D01*
X470368Y464364D01*
X469707Y464871D01*
X468937Y465190D01*
X468207Y465286D01*
X467989Y465534D01*
X467866Y465771D01*
X468045Y466201D01*
X468153Y467028D01*
Y469193D01*
X468045Y470019D01*
X467726Y470789D01*
X467218Y471451D01*
X466557Y471958D01*
X465787Y472277D01*
X464961Y472386D01*
D02*
G37*
G36*
X130512Y482039D02*
X129454Y481900D01*
X128469Y481492D01*
X127622Y480842D01*
X126973Y479996D01*
X126565Y479010D01*
X126426Y477953D01*
X126565Y476895D01*
X126973Y475910D01*
X127622Y475063D01*
X128469Y474414D01*
X129454Y474006D01*
X130512Y473867D01*
X131569Y474006D01*
X132555Y474414D01*
X133401Y475063D01*
X134051Y475910D01*
X134459Y476895D01*
X134598Y477953D01*
X134459Y479010D01*
X134051Y479996D01*
X133401Y480842D01*
X132555Y481492D01*
X131569Y481900D01*
X130512Y482039D01*
D02*
G37*
G36*
X397244Y462979D02*
X396330Y462859D01*
X395479Y462506D01*
X394748Y461945D01*
X394187Y461214D01*
X393834Y460362D01*
X393714Y459449D01*
X393834Y458535D01*
X394187Y457684D01*
X394748Y456953D01*
X395479Y456392D01*
X396330Y456039D01*
X397005Y455950D01*
X398131Y454824D01*
X398627Y454493D01*
X399213Y454376D01*
X405507D01*
X405604Y454140D01*
X406165Y453409D01*
X406896Y452848D01*
X407748Y452496D01*
X408661Y452375D01*
X409101Y452433D01*
X409335Y451960D01*
X405461Y448086D01*
X392913D01*
X392139Y447932D01*
X391558Y447544D01*
X390945Y447625D01*
X390031Y447504D01*
X389180Y447152D01*
X388449Y446591D01*
X387888Y445860D01*
X387535Y445008D01*
X387415Y444095D01*
X387535Y443181D01*
X387888Y442329D01*
X388449Y441598D01*
X389180Y441037D01*
X390031Y440685D01*
X390945Y440564D01*
X391859Y440685D01*
X392710Y441037D01*
X393441Y441598D01*
X394002Y442329D01*
X394355Y443181D01*
X394468Y444040D01*
X406299D01*
X407073Y444194D01*
X407730Y444632D01*
X415944Y452847D01*
X416535Y452769D01*
X417449Y452889D01*
X418300Y453242D01*
X419032Y453803D01*
X419593Y454534D01*
X419945Y455385D01*
X420066Y456299D01*
X419945Y457213D01*
X419593Y458064D01*
X419032Y458795D01*
X418300Y459356D01*
X417449Y459709D01*
X416535Y459829D01*
X415622Y459709D01*
X414770Y459356D01*
X414039Y458795D01*
X413478Y458064D01*
X413126Y457213D01*
X413005Y456299D01*
X413083Y455708D01*
X412607Y455232D01*
X412134Y455466D01*
X412192Y455905D01*
X412071Y456819D01*
X411719Y457671D01*
X411158Y458402D01*
X410427Y458963D01*
X409575Y459315D01*
X408661Y459436D01*
X407748Y459315D01*
X406896Y458963D01*
X406165Y458402D01*
X405604Y457671D01*
X405507Y457435D01*
X400706D01*
X400405Y457935D01*
X400654Y458535D01*
X400774Y459449D01*
X400654Y460362D01*
X400301Y461214D01*
X399740Y461945D01*
X399009Y462506D01*
X398158Y462859D01*
X397244Y462979D01*
D02*
G37*
G36*
X473976Y421616D02*
X473087Y421439D01*
X472333Y420935D01*
X471829Y420181D01*
X471652Y419291D01*
X471829Y418402D01*
X472333Y417648D01*
X473087Y417144D01*
X473976Y416967D01*
X474866Y417144D01*
X475620Y417648D01*
X476124Y418402D01*
X476301Y419291D01*
X476124Y420181D01*
X475620Y420935D01*
X474866Y421439D01*
X473976Y421616D01*
D02*
G37*
G36*
X144776Y425409D02*
X140732D01*
Y421366D01*
X144776D01*
Y425409D01*
D02*
G37*
G36*
X212642Y420366D02*
X209949D01*
Y416657D01*
X210275Y416700D01*
X211045Y417019D01*
X211706Y417526D01*
X212214Y418187D01*
X212533Y418957D01*
X212642Y419783D01*
Y420366D01*
D02*
G37*
G36*
X451221Y421616D02*
X450331Y421439D01*
X449577Y420935D01*
X449073Y420181D01*
X448896Y419291D01*
X449073Y418402D01*
X449577Y417648D01*
X450331Y417144D01*
X451221Y416967D01*
X452110Y417144D01*
X452864Y417648D01*
X453368Y418402D01*
X453545Y419291D01*
X453368Y420181D01*
X452864Y420935D01*
X452110Y421439D01*
X451221Y421616D01*
D02*
G37*
G36*
X213098Y432162D02*
Y428453D01*
X215791D01*
Y429035D01*
X215682Y429862D01*
X215363Y430632D01*
X214856Y431293D01*
X214195Y431800D01*
X213425Y432119D01*
X213098Y432162D01*
D02*
G37*
G36*
X267323Y444475D02*
X266409Y444355D01*
X265558Y444002D01*
X264827Y443441D01*
X264266Y442710D01*
X263913Y441859D01*
X263793Y440945D01*
X263913Y440031D01*
X264266Y439180D01*
X264827Y438449D01*
X265558Y437888D01*
X266409Y437535D01*
X267323Y437415D01*
X268236Y437535D01*
X269088Y437888D01*
X269550Y438242D01*
X290149D01*
X290250Y437999D01*
X290811Y437268D01*
X291542Y436706D01*
X292393Y436354D01*
X293307Y436234D01*
X294221Y436354D01*
X295072Y436706D01*
X295803Y437268D01*
X296364Y437999D01*
X296717Y438850D01*
X296837Y439764D01*
X296717Y440677D01*
X296364Y441529D01*
X295803Y442260D01*
X295072Y442821D01*
X294221Y443174D01*
X293307Y443294D01*
X292393Y443174D01*
X291542Y442821D01*
X290811Y442260D01*
X290250Y441529D01*
X290149Y441285D01*
X270808D01*
X270733Y441859D01*
X270380Y442710D01*
X269819Y443441D01*
X269088Y444002D01*
X268236Y444355D01*
X267323Y444475D01*
D02*
G37*
G36*
X149819Y425409D02*
X145776D01*
Y421366D01*
X149819D01*
Y425409D01*
D02*
G37*
G36*
X139976Y435252D02*
X130890D01*
Y426165D01*
X139976D01*
Y435252D01*
D02*
G37*
G36*
X391945Y487319D02*
X384827D01*
Y478232D01*
X391945D01*
Y487319D01*
D02*
G37*
G36*
X413598D02*
X406480D01*
Y478232D01*
X413598D01*
Y487319D01*
D02*
G37*
G36*
X272244Y485976D02*
X271186Y485837D01*
X270201Y485428D01*
X269355Y484779D01*
X268705Y483933D01*
X268297Y482947D01*
X268158Y481890D01*
X268297Y480832D01*
X268705Y479847D01*
X269355Y479000D01*
X270201Y478351D01*
X271186Y477943D01*
X272244Y477804D01*
X273302Y477943D01*
X274287Y478351D01*
X275133Y479000D01*
X275783Y479847D01*
X276191Y480832D01*
X276330Y481890D01*
X276191Y482947D01*
X275783Y483933D01*
X275133Y484779D01*
X274287Y485428D01*
X273302Y485837D01*
X272244Y485976D01*
D02*
G37*
G36*
X289961D02*
X288903Y485837D01*
X287918Y485428D01*
X287071Y484779D01*
X286422Y483933D01*
X286014Y482947D01*
X285875Y481890D01*
X286014Y480832D01*
X286422Y479847D01*
X287071Y479000D01*
X287918Y478351D01*
X288903Y477943D01*
X289961Y477804D01*
X291018Y477943D01*
X292004Y478351D01*
X292850Y479000D01*
X293499Y479847D01*
X293907Y480832D01*
X294047Y481890D01*
X293907Y482947D01*
X293499Y483933D01*
X292850Y484779D01*
X292004Y485428D01*
X291018Y485837D01*
X289961Y485976D01*
D02*
G37*
G36*
X319712Y488814D02*
X319685Y488810D01*
X319658Y488814D01*
X319494Y488810D01*
X319467Y488804D01*
X319440Y488807D01*
X319276Y488795D01*
X319250Y488787D01*
X319223Y488789D01*
X319059Y488767D01*
X319034Y488759D01*
X319006Y488759D01*
X318844Y488729D01*
X318819Y488719D01*
X318792Y488718D01*
X318632Y488679D01*
X318607Y488668D01*
X318580Y488665D01*
X318422Y488619D01*
X318398Y488606D01*
X318371Y488602D01*
X318216Y488547D01*
X318193Y488533D01*
X318166Y488528D01*
X318014Y488465D01*
X317991Y488450D01*
X317965Y488443D01*
X317816Y488372D01*
X317794Y488356D01*
X317769Y488348D01*
X317624Y488269D01*
X317603Y488252D01*
X317578Y488243D01*
X317437Y488157D01*
X317417Y488138D01*
X317392Y488127D01*
X317256Y488034D01*
X317237Y488015D01*
X317213Y488003D01*
X317082Y487902D01*
X317064Y487882D01*
X317041Y487869D01*
X316915Y487762D01*
X316899Y487740D01*
X316876Y487726D01*
X316756Y487612D01*
X316740Y487590D01*
X316718Y487575D01*
X316605Y487455D01*
X316590Y487432D01*
X316569Y487415D01*
X316462Y487290D01*
X316449Y487266D01*
X316428Y487249D01*
X316328Y487118D01*
X316316Y487093D01*
X316297Y487075D01*
X316203Y486939D01*
X316193Y486914D01*
X316174Y486894D01*
X316088Y486753D01*
X316079Y486728D01*
X316061Y486707D01*
X315983Y486562D01*
X315975Y486536D01*
X315958Y486515D01*
X315887Y486366D01*
X315881Y486340D01*
X315866Y486317D01*
X315803Y486165D01*
X315797Y486138D01*
X315784Y486115D01*
X315728Y485959D01*
X315725Y485932D01*
X315712Y485909D01*
X315665Y485750D01*
X315663Y485723D01*
X315651Y485699D01*
X315613Y485538D01*
X315612Y485511D01*
X315602Y485486D01*
X315572Y485324D01*
X315572Y485297D01*
X315563Y485272D01*
X315542Y485108D01*
X315544Y485081D01*
X315536Y485055D01*
X315523Y484891D01*
X315527Y484864D01*
X315521Y484837D01*
X315516Y484672D01*
X315518Y484659D01*
X315516Y484646D01*
Y479921D01*
Y475197D01*
X315518Y475183D01*
X315516Y475170D01*
X315521Y475005D01*
X315527Y474979D01*
X315523Y474952D01*
X315536Y474788D01*
X315544Y474762D01*
X315542Y474734D01*
X315563Y474571D01*
X315572Y474545D01*
X315572Y474518D01*
X315602Y474356D01*
X315612Y474331D01*
X315613Y474304D01*
X315651Y474144D01*
X315663Y474119D01*
X315665Y474092D01*
X315712Y473934D01*
X315725Y473910D01*
X315728Y473883D01*
X315784Y473728D01*
X315797Y473704D01*
X315803Y473678D01*
X315866Y473526D01*
X315881Y473503D01*
X315887Y473477D01*
X315958Y473328D01*
X315975Y473306D01*
X315983Y473280D01*
X316061Y473136D01*
X316079Y473115D01*
X316088Y473089D01*
X316174Y472949D01*
X316193Y472929D01*
X316203Y472904D01*
X316297Y472768D01*
X316316Y472749D01*
X316328Y472725D01*
X316428Y472594D01*
X316449Y472576D01*
X316462Y472553D01*
X316569Y472427D01*
X316590Y472410D01*
X316605Y472388D01*
X316718Y472268D01*
X316740Y472252D01*
X316756Y472230D01*
X316876Y472117D01*
X316899Y472102D01*
X316915Y472081D01*
X317041Y471974D01*
X317064Y471961D01*
X317082Y471940D01*
X317213Y471840D01*
X317237Y471828D01*
X317256Y471808D01*
X317392Y471715D01*
X317417Y471704D01*
X317437Y471686D01*
X317578Y471600D01*
X317603Y471591D01*
X317624Y471573D01*
X317769Y471494D01*
X317794Y471487D01*
X317816Y471470D01*
X317965Y471399D01*
X317991Y471393D01*
X318014Y471378D01*
X318166Y471314D01*
X318193Y471309D01*
X318216Y471295D01*
X318371Y471240D01*
X318398Y471236D01*
X318422Y471224D01*
X318580Y471177D01*
X318607Y471174D01*
X318632Y471163D01*
X318792Y471125D01*
X318819Y471124D01*
X318844Y471114D01*
X319006Y471083D01*
X319034Y471084D01*
X319059Y471075D01*
X319223Y471054D01*
X319250Y471055D01*
X319276Y471048D01*
X319440Y471035D01*
X319467Y471038D01*
X319494Y471032D01*
X319658Y471028D01*
X319685Y471033D01*
X319712Y471028D01*
X319877Y471032D01*
X319903Y471038D01*
X319930Y471035D01*
X320094Y471048D01*
X320120Y471055D01*
X320147Y471054D01*
X320311Y471075D01*
X320337Y471084D01*
X320363Y471083D01*
X320526Y471114D01*
X320551Y471124D01*
X320578Y471125D01*
X320738Y471163D01*
X320763Y471174D01*
X320790Y471177D01*
X320948Y471224D01*
X320972Y471236D01*
X320999Y471240D01*
X321154Y471295D01*
X321177Y471309D01*
X321204Y471314D01*
X321356Y471378D01*
X321379Y471393D01*
X321405Y471399D01*
X321554Y471470D01*
X321576Y471487D01*
X321601Y471494D01*
X321746Y471573D01*
X321767Y471591D01*
X321793Y471600D01*
X321933Y471686D01*
X321953Y471704D01*
X321978Y471715D01*
X322114Y471808D01*
X322133Y471828D01*
X322157Y471840D01*
X322288Y471940D01*
X322306Y471961D01*
X322329Y471974D01*
X322455Y472081D01*
X322471Y472102D01*
X322494Y472117D01*
X322614Y472230D01*
X322630Y472252D01*
X322652Y472268D01*
X322765Y472388D01*
X322780Y472410D01*
X322801Y472427D01*
X322908Y472553D01*
X322921Y472576D01*
X322942Y472594D01*
X323042Y472725D01*
X323054Y472749D01*
X323073Y472768D01*
X323167Y472904D01*
X323178Y472929D01*
X323196Y472949D01*
X323282Y473089D01*
X323291Y473115D01*
X323309Y473136D01*
X323387Y473280D01*
X323395Y473306D01*
X323412Y473328D01*
X323483Y473477D01*
X323489Y473503D01*
X323504Y473526D01*
X323567Y473678D01*
X323573Y473704D01*
X323587Y473728D01*
X323642Y473883D01*
X323645Y473910D01*
X323658Y473934D01*
X323705Y474092D01*
X323707Y474119D01*
X323719Y474144D01*
X323757Y474304D01*
X323758Y474331D01*
X323768Y474356D01*
X323798Y474518D01*
X323798Y474545D01*
X323807Y474571D01*
X323828Y474734D01*
X323827Y474762D01*
X323834Y474788D01*
X323847Y474952D01*
X323844Y474979D01*
X323850Y475005D01*
X323854Y475170D01*
X323852Y475183D01*
X323854Y475197D01*
Y479921D01*
Y484646D01*
X323852Y484659D01*
X323854Y484672D01*
X323850Y484837D01*
X323844Y484864D01*
X323847Y484891D01*
X323834Y485055D01*
X323827Y485081D01*
X323828Y485108D01*
X323807Y485272D01*
X323798Y485297D01*
X323798Y485324D01*
X323768Y485486D01*
X323758Y485511D01*
X323757Y485538D01*
X323719Y485699D01*
X323707Y485723D01*
X323705Y485750D01*
X323658Y485909D01*
X323645Y485932D01*
X323642Y485959D01*
X323587Y486115D01*
X323573Y486138D01*
X323567Y486165D01*
X323504Y486317D01*
X323489Y486340D01*
X323483Y486366D01*
X323412Y486515D01*
X323395Y486536D01*
X323387Y486562D01*
X323309Y486707D01*
X323291Y486728D01*
X323282Y486753D01*
X323196Y486894D01*
X323178Y486914D01*
X323167Y486939D01*
X323073Y487075D01*
X323054Y487093D01*
X323042Y487118D01*
X322942Y487249D01*
X322921Y487266D01*
X322908Y487290D01*
X322801Y487415D01*
X322780Y487432D01*
X322765Y487455D01*
X322652Y487575D01*
X322630Y487590D01*
X322614Y487612D01*
X322494Y487726D01*
X322471Y487740D01*
X322455Y487762D01*
X322329Y487869D01*
X322306Y487882D01*
X322288Y487902D01*
X322157Y488003D01*
X322133Y488015D01*
X322114Y488034D01*
X321978Y488127D01*
X321953Y488138D01*
X321933Y488157D01*
X321793Y488243D01*
X321767Y488252D01*
X321746Y488269D01*
X321601Y488348D01*
X321576Y488356D01*
X321554Y488372D01*
X321405Y488443D01*
X321379Y488450D01*
X321356Y488465D01*
X321204Y488528D01*
X321177Y488533D01*
X321154Y488547D01*
X320999Y488602D01*
X320972Y488606D01*
X320948Y488619D01*
X320790Y488665D01*
X320763Y488668D01*
X320738Y488679D01*
X320578Y488718D01*
X320551Y488719D01*
X320526Y488729D01*
X320363Y488759D01*
X320337Y488759D01*
X320311Y488767D01*
X320147Y488789D01*
X320120Y488787D01*
X320094Y488795D01*
X319930Y488807D01*
X319903Y488804D01*
X319877Y488810D01*
X319712Y488814D01*
D02*
G37*
G36*
X364594D02*
X364567Y488810D01*
X364540Y488814D01*
X364375Y488810D01*
X364349Y488804D01*
X364322Y488807D01*
X364158Y488795D01*
X364132Y488787D01*
X364105Y488789D01*
X363941Y488767D01*
X363915Y488759D01*
X363888Y488759D01*
X363726Y488729D01*
X363701Y488719D01*
X363674Y488718D01*
X363514Y488679D01*
X363489Y488668D01*
X363462Y488665D01*
X363304Y488619D01*
X363280Y488606D01*
X363253Y488602D01*
X363098Y488547D01*
X363075Y488533D01*
X363048Y488528D01*
X362896Y488465D01*
X362873Y488450D01*
X362847Y488443D01*
X362698Y488372D01*
X362676Y488356D01*
X362650Y488348D01*
X362506Y488269D01*
X362485Y488252D01*
X362459Y488243D01*
X362319Y488157D01*
X362299Y488138D01*
X362274Y488127D01*
X362138Y488034D01*
X362119Y488015D01*
X362095Y488003D01*
X361964Y487902D01*
X361946Y487882D01*
X361923Y487869D01*
X361797Y487762D01*
X361781Y487740D01*
X361758Y487726D01*
X361638Y487612D01*
X361622Y487590D01*
X361600Y487575D01*
X361487Y487455D01*
X361472Y487432D01*
X361451Y487415D01*
X361344Y487290D01*
X361331Y487266D01*
X361310Y487249D01*
X361210Y487118D01*
X361198Y487093D01*
X361179Y487075D01*
X361085Y486939D01*
X361074Y486914D01*
X361056Y486894D01*
X360970Y486753D01*
X360961Y486728D01*
X360943Y486707D01*
X360865Y486562D01*
X360857Y486536D01*
X360840Y486515D01*
X360769Y486366D01*
X360763Y486340D01*
X360748Y486317D01*
X360684Y486165D01*
X360679Y486138D01*
X360665Y486115D01*
X360610Y485959D01*
X360607Y485932D01*
X360594Y485909D01*
X360547Y485750D01*
X360544Y485723D01*
X360533Y485699D01*
X360495Y485538D01*
X360494Y485511D01*
X360484Y485486D01*
X360454Y485324D01*
X360454Y485297D01*
X360445Y485272D01*
X360424Y485108D01*
X360425Y485081D01*
X360418Y485055D01*
X360405Y484891D01*
X360408Y484864D01*
X360402Y484837D01*
X360398Y484672D01*
X360400Y484659D01*
X360398Y484646D01*
Y479921D01*
Y475197D01*
X360400Y475183D01*
X360398Y475170D01*
X360402Y475005D01*
X360408Y474979D01*
X360405Y474952D01*
X360418Y474788D01*
X360425Y474762D01*
X360424Y474734D01*
X360445Y474571D01*
X360454Y474545D01*
X360454Y474518D01*
X360484Y474356D01*
X360494Y474331D01*
X360495Y474304D01*
X360533Y474144D01*
X360544Y474119D01*
X360547Y474092D01*
X360594Y473934D01*
X360607Y473910D01*
X360610Y473883D01*
X360665Y473728D01*
X360679Y473704D01*
X360684Y473678D01*
X360748Y473526D01*
X360763Y473503D01*
X360769Y473477D01*
X360840Y473328D01*
X360857Y473306D01*
X360865Y473280D01*
X360943Y473136D01*
X360961Y473115D01*
X360970Y473089D01*
X361056Y472949D01*
X361074Y472929D01*
X361085Y472904D01*
X361179Y472768D01*
X361198Y472749D01*
X361210Y472725D01*
X361310Y472594D01*
X361331Y472576D01*
X361344Y472553D01*
X361451Y472427D01*
X361472Y472410D01*
X361487Y472388D01*
X361600Y472268D01*
X361622Y472252D01*
X361638Y472230D01*
X361758Y472117D01*
X361781Y472102D01*
X361797Y472081D01*
X361923Y471974D01*
X361946Y471961D01*
X361964Y471940D01*
X362095Y471840D01*
X362119Y471828D01*
X362138Y471808D01*
X362274Y471715D01*
X362299Y471704D01*
X362319Y471686D01*
X362459Y471600D01*
X362485Y471591D01*
X362506Y471573D01*
X362650Y471494D01*
X362676Y471487D01*
X362698Y471470D01*
X362847Y471399D01*
X362873Y471393D01*
X362896Y471378D01*
X363048Y471314D01*
X363075Y471309D01*
X363098Y471295D01*
X363253Y471240D01*
X363280Y471236D01*
X363304Y471224D01*
X363462Y471177D01*
X363489Y471174D01*
X363514Y471163D01*
X363674Y471125D01*
X363701Y471124D01*
X363726Y471114D01*
X363888Y471083D01*
X363915Y471084D01*
X363941Y471075D01*
X364105Y471054D01*
X364132Y471055D01*
X364158Y471048D01*
X364322Y471035D01*
X364349Y471038D01*
X364375Y471032D01*
X364540Y471028D01*
X364567Y471033D01*
X364594Y471028D01*
X364758Y471032D01*
X364785Y471038D01*
X364812Y471035D01*
X364976Y471048D01*
X365002Y471055D01*
X365029Y471054D01*
X365193Y471075D01*
X365218Y471084D01*
X365245Y471083D01*
X365408Y471114D01*
X365433Y471124D01*
X365460Y471125D01*
X365620Y471163D01*
X365645Y471174D01*
X365672Y471177D01*
X365830Y471224D01*
X365854Y471236D01*
X365880Y471240D01*
X366036Y471295D01*
X366059Y471309D01*
X366086Y471314D01*
X366238Y471378D01*
X366261Y471393D01*
X366287Y471399D01*
X366436Y471470D01*
X366458Y471487D01*
X366483Y471494D01*
X366628Y471573D01*
X366649Y471591D01*
X366674Y471600D01*
X366815Y471686D01*
X366835Y471704D01*
X366860Y471715D01*
X366996Y471808D01*
X367015Y471828D01*
X367039Y471840D01*
X367170Y471940D01*
X367188Y471961D01*
X367211Y471974D01*
X367337Y472081D01*
X367353Y472102D01*
X367376Y472117D01*
X367496Y472230D01*
X367512Y472252D01*
X367534Y472268D01*
X367647Y472388D01*
X367662Y472410D01*
X367683Y472427D01*
X367790Y472553D01*
X367803Y472576D01*
X367824Y472594D01*
X367924Y472725D01*
X367936Y472749D01*
X367955Y472768D01*
X368049Y472904D01*
X368059Y472929D01*
X368078Y472949D01*
X368164Y473089D01*
X368173Y473115D01*
X368191Y473136D01*
X368269Y473280D01*
X368277Y473306D01*
X368293Y473328D01*
X368365Y473477D01*
X368371Y473503D01*
X368386Y473526D01*
X368449Y473678D01*
X368455Y473704D01*
X368468Y473728D01*
X368524Y473883D01*
X368527Y473910D01*
X368540Y473934D01*
X368587Y474092D01*
X368589Y474119D01*
X368601Y474144D01*
X368639Y474304D01*
X368640Y474331D01*
X368650Y474356D01*
X368680Y474518D01*
X368680Y474545D01*
X368689Y474571D01*
X368710Y474734D01*
X368708Y474762D01*
X368716Y474788D01*
X368729Y474952D01*
X368725Y474979D01*
X368731Y475005D01*
X368736Y475170D01*
X368734Y475183D01*
X368736Y475197D01*
Y479921D01*
Y484646D01*
X368734Y484659D01*
X368736Y484672D01*
X368731Y484837D01*
X368725Y484864D01*
X368729Y484891D01*
X368716Y485055D01*
X368708Y485081D01*
X368710Y485108D01*
X368689Y485272D01*
X368680Y485297D01*
X368680Y485324D01*
X368650Y485486D01*
X368640Y485511D01*
X368639Y485538D01*
X368601Y485699D01*
X368589Y485723D01*
X368587Y485750D01*
X368540Y485909D01*
X368527Y485932D01*
X368524Y485959D01*
X368468Y486115D01*
X368455Y486138D01*
X368449Y486165D01*
X368386Y486317D01*
X368371Y486340D01*
X368365Y486366D01*
X368293Y486515D01*
X368277Y486536D01*
X368269Y486562D01*
X368191Y486707D01*
X368173Y486728D01*
X368164Y486753D01*
X368078Y486894D01*
X368059Y486914D01*
X368049Y486939D01*
X367955Y487075D01*
X367936Y487093D01*
X367924Y487118D01*
X367824Y487249D01*
X367803Y487266D01*
X367790Y487290D01*
X367683Y487415D01*
X367662Y487432D01*
X367647Y487455D01*
X367534Y487575D01*
X367512Y487590D01*
X367496Y487612D01*
X367376Y487726D01*
X367353Y487740D01*
X367337Y487762D01*
X367211Y487869D01*
X367188Y487882D01*
X367170Y487902D01*
X367039Y488003D01*
X367015Y488015D01*
X366996Y488034D01*
X366860Y488127D01*
X366835Y488138D01*
X366815Y488157D01*
X366674Y488243D01*
X366649Y488252D01*
X366628Y488269D01*
X366483Y488348D01*
X366458Y488356D01*
X366436Y488372D01*
X366287Y488443D01*
X366261Y488450D01*
X366238Y488465D01*
X366086Y488528D01*
X366059Y488533D01*
X366036Y488547D01*
X365880Y488602D01*
X365854Y488606D01*
X365830Y488619D01*
X365672Y488665D01*
X365645Y488668D01*
X365620Y488679D01*
X365460Y488718D01*
X365433Y488719D01*
X365408Y488729D01*
X365245Y488759D01*
X365218Y488759D01*
X365193Y488767D01*
X365029Y488789D01*
X365002Y488787D01*
X364976Y488795D01*
X364812Y488807D01*
X364785Y488804D01*
X364758Y488810D01*
X364594Y488814D01*
D02*
G37*
G36*
X116956Y486846D02*
X116929Y486841D01*
X116902Y486846D01*
X116738Y486842D01*
X116711Y486836D01*
X116684Y486839D01*
X116520Y486826D01*
X116494Y486819D01*
X116467Y486820D01*
X116303Y486799D01*
X116278Y486790D01*
X116251Y486791D01*
X116088Y486761D01*
X116063Y486750D01*
X116036Y486749D01*
X115876Y486711D01*
X115851Y486699D01*
X115824Y486697D01*
X115666Y486650D01*
X115642Y486638D01*
X115615Y486634D01*
X115460Y486579D01*
X115437Y486565D01*
X115410Y486560D01*
X115258Y486496D01*
X115235Y486481D01*
X115209Y486475D01*
X115060Y486404D01*
X115039Y486388D01*
X115013Y486379D01*
X114868Y486301D01*
X114847Y486283D01*
X114822Y486274D01*
X114681Y486188D01*
X114661Y486170D01*
X114636Y486159D01*
X114500Y486065D01*
X114481Y486046D01*
X114457Y486034D01*
X114326Y485934D01*
X114309Y485913D01*
X114285Y485900D01*
X114159Y485793D01*
X114143Y485772D01*
X114120Y485757D01*
X114000Y485644D01*
X113985Y485622D01*
X113962Y485606D01*
X113849Y485487D01*
X113835Y485464D01*
X113813Y485447D01*
X113706Y485321D01*
X113693Y485298D01*
X113672Y485280D01*
X113572Y485149D01*
X113560Y485125D01*
X113541Y485106D01*
X113447Y484970D01*
X113437Y484945D01*
X113418Y484925D01*
X113332Y484785D01*
X113323Y484759D01*
X113305Y484738D01*
X113227Y484594D01*
X113219Y484568D01*
X113203Y484546D01*
X113132Y484397D01*
X113125Y484371D01*
X113110Y484348D01*
X113047Y484196D01*
X113041Y484169D01*
X113028Y484146D01*
X112973Y483991D01*
X112969Y483964D01*
X112956Y483940D01*
X112909Y483782D01*
X112907Y483755D01*
X112895Y483730D01*
X112857Y483570D01*
X112856Y483543D01*
X112846Y483518D01*
X112816Y483356D01*
X112816Y483329D01*
X112807Y483303D01*
X112786Y483140D01*
X112788Y483112D01*
X112780Y483086D01*
X112767Y482922D01*
X112771Y482895D01*
X112765Y482869D01*
X112760Y482704D01*
X112763Y482690D01*
X112760Y482677D01*
Y477953D01*
Y473228D01*
X112763Y473215D01*
X112760Y473202D01*
X112765Y473037D01*
X112771Y473010D01*
X112767Y472984D01*
X112780Y472819D01*
X112788Y472793D01*
X112786Y472766D01*
X112807Y472603D01*
X112816Y472577D01*
X112816Y472550D01*
X112846Y472388D01*
X112856Y472363D01*
X112857Y472335D01*
X112895Y472175D01*
X112907Y472151D01*
X112909Y472124D01*
X112956Y471966D01*
X112969Y471942D01*
X112973Y471915D01*
X113028Y471759D01*
X113041Y471736D01*
X113047Y471709D01*
X113110Y471557D01*
X113125Y471535D01*
X113132Y471508D01*
X113203Y471359D01*
X113219Y471338D01*
X113227Y471312D01*
X113305Y471167D01*
X113323Y471146D01*
X113332Y471121D01*
X113418Y470980D01*
X113437Y470960D01*
X113447Y470935D01*
X113541Y470799D01*
X113560Y470781D01*
X113572Y470756D01*
X113672Y470626D01*
X113693Y470608D01*
X113706Y470584D01*
X113813Y470459D01*
X113835Y470442D01*
X113849Y470419D01*
X113962Y470299D01*
X113985Y470284D01*
X114000Y470262D01*
X114120Y470148D01*
X114143Y470134D01*
X114159Y470112D01*
X114285Y470005D01*
X114309Y469992D01*
X114326Y469972D01*
X114457Y469871D01*
X114481Y469859D01*
X114500Y469840D01*
X114636Y469747D01*
X114661Y469736D01*
X114681Y469718D01*
X114822Y469631D01*
X114847Y469622D01*
X114868Y469605D01*
X115013Y469526D01*
X115039Y469518D01*
X115060Y469502D01*
X115209Y469431D01*
X115235Y469424D01*
X115258Y469409D01*
X115410Y469346D01*
X115437Y469341D01*
X115460Y469327D01*
X115615Y469272D01*
X115642Y469268D01*
X115666Y469255D01*
X115824Y469208D01*
X115851Y469206D01*
X115876Y469195D01*
X116036Y469156D01*
X116063Y469155D01*
X116088Y469145D01*
X116251Y469115D01*
X116278Y469115D01*
X116303Y469107D01*
X116467Y469085D01*
X116494Y469087D01*
X116520Y469080D01*
X116684Y469067D01*
X116711Y469070D01*
X116738Y469064D01*
X116902Y469060D01*
X116929Y469064D01*
X116956Y469060D01*
X117121Y469064D01*
X117147Y469070D01*
X117174Y469067D01*
X117338Y469080D01*
X117364Y469087D01*
X117391Y469085D01*
X117555Y469107D01*
X117580Y469115D01*
X117608Y469115D01*
X117770Y469145D01*
X117795Y469155D01*
X117822Y469156D01*
X117982Y469195D01*
X118007Y469206D01*
X118034Y469208D01*
X118192Y469255D01*
X118216Y469268D01*
X118243Y469272D01*
X118398Y469327D01*
X118421Y469341D01*
X118448Y469346D01*
X118600Y469409D01*
X118623Y469424D01*
X118649Y469431D01*
X118798Y469502D01*
X118820Y469518D01*
X118845Y469526D01*
X118991Y469605D01*
X119011Y469622D01*
X119037Y469631D01*
X119177Y469718D01*
X119197Y469736D01*
X119222Y469747D01*
X119358Y469840D01*
X119377Y469859D01*
X119401Y469871D01*
X119532Y469972D01*
X119550Y469992D01*
X119573Y470005D01*
X119699Y470112D01*
X119716Y470134D01*
X119738Y470148D01*
X119858Y470262D01*
X119874Y470284D01*
X119896Y470299D01*
X120009Y470419D01*
X120024Y470442D01*
X120045Y470459D01*
X120152Y470584D01*
X120165Y470608D01*
X120186Y470626D01*
X120286Y470756D01*
X120298Y470781D01*
X120317Y470799D01*
X120411Y470935D01*
X120422Y470960D01*
X120440Y470980D01*
X120526Y471121D01*
X120536Y471146D01*
X120553Y471167D01*
X120632Y471312D01*
X120640Y471338D01*
X120656Y471359D01*
X120727Y471508D01*
X120733Y471535D01*
X120748Y471557D01*
X120811Y471709D01*
X120817Y471736D01*
X120831Y471759D01*
X120886Y471915D01*
X120890Y471942D01*
X120902Y471966D01*
X120949Y472124D01*
X120951Y472151D01*
X120963Y472175D01*
X121001Y472335D01*
X121002Y472363D01*
X121012Y472388D01*
X121043Y472550D01*
X121042Y472577D01*
X121051Y472603D01*
X121072Y472766D01*
X121071Y472793D01*
X121078Y472819D01*
X121091Y472984D01*
X121088Y473010D01*
X121094Y473037D01*
X121098Y473202D01*
X121096Y473215D01*
X121098Y473228D01*
Y477953D01*
Y482677D01*
X121096Y482690D01*
X121098Y482704D01*
X121094Y482869D01*
X121088Y482895D01*
X121091Y482922D01*
X121078Y483086D01*
X121071Y483112D01*
X121072Y483140D01*
X121051Y483303D01*
X121042Y483329D01*
X121043Y483356D01*
X121012Y483518D01*
X121002Y483543D01*
X121001Y483570D01*
X120963Y483730D01*
X120951Y483755D01*
X120949Y483782D01*
X120902Y483940D01*
X120890Y483964D01*
X120886Y483991D01*
X120831Y484146D01*
X120817Y484169D01*
X120811Y484196D01*
X120748Y484348D01*
X120733Y484371D01*
X120727Y484397D01*
X120656Y484546D01*
X120640Y484568D01*
X120632Y484594D01*
X120553Y484738D01*
X120536Y484759D01*
X120526Y484785D01*
X120440Y484925D01*
X120422Y484945D01*
X120411Y484970D01*
X120317Y485106D01*
X120298Y485125D01*
X120286Y485149D01*
X120186Y485280D01*
X120165Y485298D01*
X120152Y485321D01*
X120045Y485447D01*
X120024Y485464D01*
X120009Y485487D01*
X119896Y485606D01*
X119874Y485622D01*
X119858Y485644D01*
X119738Y485757D01*
X119716Y485772D01*
X119699Y485793D01*
X119573Y485900D01*
X119550Y485913D01*
X119532Y485934D01*
X119401Y486034D01*
X119377Y486046D01*
X119358Y486065D01*
X119222Y486159D01*
X119197Y486170D01*
X119177Y486188D01*
X119037Y486274D01*
X119011Y486283D01*
X118991Y486301D01*
X118845Y486379D01*
X118820Y486388D01*
X118798Y486404D01*
X118649Y486475D01*
X118623Y486481D01*
X118600Y486496D01*
X118448Y486560D01*
X118421Y486565D01*
X118398Y486579D01*
X118243Y486634D01*
X118216Y486638D01*
X118192Y486650D01*
X118034Y486697D01*
X118007Y486699D01*
X117982Y486711D01*
X117822Y486749D01*
X117795Y486750D01*
X117770Y486761D01*
X117608Y486791D01*
X117580Y486790D01*
X117555Y486799D01*
X117391Y486820D01*
X117364Y486819D01*
X117338Y486826D01*
X117174Y486839D01*
X117147Y486836D01*
X117121Y486842D01*
X116956Y486846D01*
D02*
G37*
G36*
X161838D02*
X161811Y486841D01*
X161784Y486846D01*
X161619Y486842D01*
X161593Y486836D01*
X161566Y486839D01*
X161402Y486826D01*
X161376Y486819D01*
X161349Y486820D01*
X161185Y486799D01*
X161160Y486790D01*
X161133Y486791D01*
X160970Y486761D01*
X160945Y486750D01*
X160918Y486749D01*
X160758Y486711D01*
X160733Y486699D01*
X160706Y486697D01*
X160548Y486650D01*
X160524Y486638D01*
X160497Y486634D01*
X160342Y486579D01*
X160319Y486565D01*
X160292Y486560D01*
X160140Y486496D01*
X160117Y486481D01*
X160091Y486475D01*
X159942Y486404D01*
X159921Y486388D01*
X159895Y486379D01*
X159750Y486301D01*
X159729Y486283D01*
X159704Y486274D01*
X159563Y486188D01*
X159543Y486170D01*
X159518Y486159D01*
X159382Y486065D01*
X159363Y486046D01*
X159339Y486034D01*
X159208Y485934D01*
X159190Y485913D01*
X159167Y485900D01*
X159041Y485793D01*
X159025Y485772D01*
X159002Y485757D01*
X158882Y485644D01*
X158867Y485622D01*
X158844Y485606D01*
X158731Y485487D01*
X158716Y485464D01*
X158695Y485447D01*
X158588Y485321D01*
X158575Y485298D01*
X158554Y485280D01*
X158454Y485149D01*
X158442Y485125D01*
X158423Y485106D01*
X158329Y484970D01*
X158319Y484945D01*
X158300Y484925D01*
X158214Y484785D01*
X158205Y484759D01*
X158187Y484738D01*
X158109Y484594D01*
X158101Y484568D01*
X158084Y484546D01*
X158013Y484397D01*
X158007Y484371D01*
X157992Y484348D01*
X157929Y484196D01*
X157923Y484169D01*
X157910Y484146D01*
X157854Y483991D01*
X157851Y483964D01*
X157838Y483940D01*
X157791Y483782D01*
X157789Y483755D01*
X157777Y483730D01*
X157739Y483570D01*
X157738Y483543D01*
X157728Y483518D01*
X157698Y483356D01*
X157698Y483329D01*
X157689Y483303D01*
X157668Y483140D01*
X157670Y483112D01*
X157662Y483086D01*
X157649Y482922D01*
X157652Y482895D01*
X157647Y482869D01*
X157642Y482704D01*
X157644Y482690D01*
X157642Y482677D01*
Y477953D01*
Y473228D01*
X157644Y473215D01*
X157642Y473202D01*
X157647Y473037D01*
X157652Y473010D01*
X157649Y472984D01*
X157662Y472819D01*
X157670Y472793D01*
X157668Y472766D01*
X157689Y472603D01*
X157698Y472577D01*
X157698Y472550D01*
X157728Y472388D01*
X157738Y472363D01*
X157739Y472335D01*
X157777Y472175D01*
X157789Y472151D01*
X157791Y472124D01*
X157838Y471966D01*
X157851Y471942D01*
X157854Y471915D01*
X157910Y471759D01*
X157923Y471736D01*
X157929Y471709D01*
X157992Y471557D01*
X158007Y471535D01*
X158013Y471508D01*
X158084Y471359D01*
X158101Y471338D01*
X158109Y471312D01*
X158187Y471167D01*
X158205Y471146D01*
X158214Y471121D01*
X158300Y470980D01*
X158319Y470960D01*
X158329Y470935D01*
X158423Y470799D01*
X158442Y470781D01*
X158454Y470756D01*
X158554Y470626D01*
X158575Y470608D01*
X158588Y470584D01*
X158695Y470459D01*
X158716Y470442D01*
X158731Y470419D01*
X158844Y470299D01*
X158867Y470284D01*
X158882Y470262D01*
X159002Y470148D01*
X159025Y470134D01*
X159041Y470112D01*
X159167Y470005D01*
X159190Y469992D01*
X159208Y469972D01*
X159339Y469871D01*
X159363Y469859D01*
X159382Y469840D01*
X159518Y469747D01*
X159543Y469736D01*
X159563Y469718D01*
X159704Y469631D01*
X159729Y469622D01*
X159750Y469605D01*
X159895Y469526D01*
X159921Y469518D01*
X159942Y469502D01*
X160091Y469431D01*
X160117Y469424D01*
X160140Y469409D01*
X160292Y469346D01*
X160319Y469341D01*
X160342Y469327D01*
X160497Y469272D01*
X160524Y469268D01*
X160548Y469255D01*
X160706Y469208D01*
X160733Y469206D01*
X160758Y469195D01*
X160918Y469156D01*
X160945Y469155D01*
X160970Y469145D01*
X161133Y469115D01*
X161160Y469115D01*
X161185Y469107D01*
X161349Y469085D01*
X161376Y469087D01*
X161402Y469080D01*
X161566Y469067D01*
X161593Y469070D01*
X161619Y469064D01*
X161784Y469060D01*
X161811Y469064D01*
X161838Y469060D01*
X162003Y469064D01*
X162029Y469070D01*
X162056Y469067D01*
X162220Y469080D01*
X162246Y469087D01*
X162273Y469085D01*
X162437Y469107D01*
X162462Y469115D01*
X162489Y469115D01*
X162652Y469145D01*
X162677Y469155D01*
X162704Y469156D01*
X162864Y469195D01*
X162889Y469206D01*
X162916Y469208D01*
X163074Y469255D01*
X163098Y469268D01*
X163125Y469272D01*
X163280Y469327D01*
X163303Y469341D01*
X163330Y469346D01*
X163482Y469409D01*
X163505Y469424D01*
X163531Y469431D01*
X163680Y469502D01*
X163702Y469518D01*
X163727Y469526D01*
X163872Y469605D01*
X163893Y469622D01*
X163919Y469631D01*
X164059Y469718D01*
X164079Y469736D01*
X164104Y469747D01*
X164240Y469840D01*
X164259Y469859D01*
X164283Y469871D01*
X164414Y469972D01*
X164432Y469992D01*
X164455Y470005D01*
X164581Y470112D01*
X164597Y470134D01*
X164620Y470148D01*
X164740Y470262D01*
X164756Y470284D01*
X164778Y470299D01*
X164891Y470419D01*
X164906Y470442D01*
X164927Y470459D01*
X165034Y470584D01*
X165047Y470608D01*
X165068Y470626D01*
X165168Y470756D01*
X165180Y470781D01*
X165199Y470799D01*
X165293Y470935D01*
X165304Y470960D01*
X165322Y470980D01*
X165408Y471121D01*
X165417Y471146D01*
X165435Y471167D01*
X165513Y471312D01*
X165521Y471338D01*
X165538Y471359D01*
X165609Y471508D01*
X165615Y471535D01*
X165630Y471557D01*
X165693Y471709D01*
X165699Y471736D01*
X165713Y471759D01*
X165768Y471915D01*
X165771Y471942D01*
X165784Y471966D01*
X165831Y472124D01*
X165833Y472151D01*
X165845Y472175D01*
X165883Y472335D01*
X165884Y472363D01*
X165894Y472388D01*
X165924Y472550D01*
X165924Y472577D01*
X165933Y472603D01*
X165954Y472766D01*
X165953Y472793D01*
X165960Y472819D01*
X165973Y472984D01*
X165970Y473010D01*
X165975Y473037D01*
X165980Y473202D01*
X165978Y473215D01*
X165980Y473228D01*
Y477953D01*
Y482677D01*
X165978Y482690D01*
X165980Y482704D01*
X165975Y482869D01*
X165970Y482895D01*
X165973Y482922D01*
X165960Y483086D01*
X165953Y483112D01*
X165954Y483140D01*
X165933Y483303D01*
X165924Y483329D01*
X165924Y483356D01*
X165894Y483518D01*
X165884Y483543D01*
X165883Y483570D01*
X165845Y483730D01*
X165833Y483755D01*
X165831Y483782D01*
X165784Y483940D01*
X165771Y483964D01*
X165768Y483991D01*
X165713Y484146D01*
X165699Y484169D01*
X165693Y484196D01*
X165630Y484348D01*
X165615Y484371D01*
X165609Y484397D01*
X165538Y484546D01*
X165521Y484568D01*
X165513Y484594D01*
X165435Y484738D01*
X165417Y484759D01*
X165408Y484785D01*
X165322Y484925D01*
X165304Y484945D01*
X165293Y484970D01*
X165199Y485106D01*
X165180Y485125D01*
X165168Y485149D01*
X165068Y485280D01*
X165047Y485298D01*
X165034Y485321D01*
X164927Y485447D01*
X164906Y485464D01*
X164891Y485487D01*
X164778Y485606D01*
X164756Y485622D01*
X164740Y485644D01*
X164620Y485757D01*
X164597Y485772D01*
X164581Y485793D01*
X164455Y485900D01*
X164432Y485913D01*
X164414Y485934D01*
X164283Y486034D01*
X164259Y486046D01*
X164240Y486065D01*
X164104Y486159D01*
X164079Y486170D01*
X164059Y486188D01*
X163919Y486274D01*
X163893Y486283D01*
X163872Y486301D01*
X163727Y486379D01*
X163702Y486388D01*
X163680Y486404D01*
X163531Y486475D01*
X163505Y486481D01*
X163482Y486496D01*
X163330Y486560D01*
X163303Y486565D01*
X163280Y486579D01*
X163125Y486634D01*
X163098Y486638D01*
X163074Y486650D01*
X162916Y486697D01*
X162889Y486699D01*
X162864Y486711D01*
X162704Y486749D01*
X162677Y486750D01*
X162652Y486761D01*
X162489Y486791D01*
X162462Y486790D01*
X162437Y486799D01*
X162273Y486820D01*
X162246Y486819D01*
X162220Y486826D01*
X162056Y486839D01*
X162029Y486836D01*
X162003Y486842D01*
X161838Y486846D01*
D02*
G37*
G36*
X213189Y485976D02*
X212131Y485837D01*
X211146Y485428D01*
X210300Y484779D01*
X209650Y483933D01*
X209242Y482947D01*
X209103Y481890D01*
X209242Y480832D01*
X209650Y479847D01*
X210300Y479000D01*
X211146Y478351D01*
X212131Y477943D01*
X213189Y477804D01*
X214247Y477943D01*
X215232Y478351D01*
X216078Y479000D01*
X216728Y479847D01*
X217136Y480832D01*
X217275Y481890D01*
X217136Y482947D01*
X216728Y483933D01*
X216078Y484779D01*
X215232Y485428D01*
X214247Y485837D01*
X213189Y485976D01*
D02*
G37*
G36*
X350984Y484007D02*
X349927Y483868D01*
X348941Y483460D01*
X348095Y482811D01*
X347446Y481964D01*
X347037Y480979D01*
X346898Y479921D01*
X347037Y478864D01*
X347446Y477878D01*
X348095Y477032D01*
X348941Y476383D01*
X349927Y475974D01*
X350984Y475835D01*
X352042Y475974D01*
X353027Y476383D01*
X353874Y477032D01*
X354523Y477878D01*
X354931Y478864D01*
X355070Y479921D01*
X354931Y480979D01*
X354523Y481964D01*
X353874Y482811D01*
X353027Y483460D01*
X352042Y483868D01*
X350984Y484007D01*
D02*
G37*
G36*
X181890Y486811D02*
X181787Y486808D01*
X181684Y486800D01*
X181582Y486787D01*
X181481Y486768D01*
X181380Y486744D01*
X181281Y486715D01*
X181184Y486680D01*
X181089Y486641D01*
X180996Y486596D01*
X180905Y486547D01*
X180818Y486493D01*
X180733Y486435D01*
X180651Y486372D01*
X180573Y486305D01*
X180498Y486235D01*
X180427Y486160D01*
X180360Y486081D01*
X180297Y486000D01*
X180239Y485915D01*
X180185Y485827D01*
X180136Y485736D01*
X180092Y485643D01*
X180052Y485548D01*
X180018Y485451D01*
X179988Y485352D01*
X179964Y485252D01*
X179946Y485150D01*
X179932Y485048D01*
X179924Y484945D01*
X179921Y484842D01*
Y481890D01*
Y478937D01*
X179924Y478834D01*
X179932Y478731D01*
X179946Y478629D01*
X179964Y478528D01*
X179988Y478428D01*
X180018Y478329D01*
X180052Y478232D01*
X180092Y478136D01*
X180136Y478043D01*
X180185Y477953D01*
X180239Y477865D01*
X180297Y477780D01*
X180360Y477698D01*
X180427Y477620D01*
X180498Y477545D01*
X180573Y477474D01*
X180651Y477407D01*
X180733Y477344D01*
X180818Y477286D01*
X180905Y477232D01*
X180996Y477183D01*
X181089Y477139D01*
X181184Y477099D01*
X181281Y477065D01*
X181380Y477036D01*
X181481Y477011D01*
X181582Y476993D01*
X181684Y476979D01*
X181787Y476971D01*
X181890Y476968D01*
X181993Y476971D01*
X182096Y476979D01*
X182198Y476993D01*
X182299Y477011D01*
X182399Y477036D01*
X182498Y477065D01*
X182595Y477099D01*
X182690Y477139D01*
X182783Y477183D01*
X182874Y477232D01*
X182962Y477286D01*
X183047Y477344D01*
X183129Y477407D01*
X183207Y477474D01*
X183282Y477545D01*
X183353Y477620D01*
X183420Y477698D01*
X183482Y477780D01*
X183541Y477865D01*
X183595Y477953D01*
X183644Y478043D01*
X183688Y478136D01*
X183728Y478232D01*
X183762Y478329D01*
X183791Y478428D01*
X183815Y478528D01*
X183834Y478629D01*
X183847Y478731D01*
X183856Y478834D01*
X183858Y478937D01*
Y481890D01*
Y484842D01*
X183856Y484945D01*
X183847Y485048D01*
X183834Y485150D01*
X183815Y485252D01*
X183791Y485352D01*
X183762Y485451D01*
X183728Y485548D01*
X183688Y485643D01*
X183644Y485736D01*
X183595Y485827D01*
X183541Y485915D01*
X183482Y486000D01*
X183420Y486081D01*
X183353Y486160D01*
X183282Y486235D01*
X183207Y486305D01*
X183129Y486372D01*
X183047Y486435D01*
X182962Y486493D01*
X182874Y486547D01*
X182783Y486596D01*
X182690Y486641D01*
X182595Y486680D01*
X182498Y486715D01*
X182399Y486744D01*
X182299Y486768D01*
X182198Y486787D01*
X182096Y486800D01*
X181993Y486808D01*
X181890Y486811D01*
D02*
G37*
G36*
X476181Y488439D02*
X475046Y488290D01*
X473989Y487852D01*
X473081Y487155D01*
X472385Y486247D01*
X471946Y485190D01*
X471797Y484055D01*
Y480118D01*
X471946Y478983D01*
X472385Y477926D01*
X473081Y477018D01*
X473989Y476322D01*
X475046Y475883D01*
X476181Y475734D01*
X477316Y475883D01*
X478373Y476322D01*
X479281Y477018D01*
X479978Y477926D01*
X480416Y478983D01*
X480565Y480118D01*
Y484055D01*
X480416Y485190D01*
X479978Y486247D01*
X479281Y487155D01*
X478373Y487852D01*
X477316Y488290D01*
X476181Y488439D01*
D02*
G37*
G36*
X333268Y484007D02*
X332210Y483868D01*
X331225Y483460D01*
X330378Y482811D01*
X329729Y481964D01*
X329321Y480979D01*
X329182Y479921D01*
X329321Y478864D01*
X329729Y477878D01*
X330378Y477032D01*
X331225Y476383D01*
X332210Y475974D01*
X333268Y475835D01*
X334325Y475974D01*
X335311Y476383D01*
X336157Y477032D01*
X336806Y477878D01*
X337215Y478864D01*
X337354Y479921D01*
X337215Y480979D01*
X336806Y481964D01*
X336157Y482811D01*
X335311Y483460D01*
X334325Y483868D01*
X333268Y484007D01*
D02*
G37*
G36*
X303543Y486811D02*
X303440Y486808D01*
X303338Y486800D01*
X303235Y486787D01*
X303134Y486768D01*
X303034Y486744D01*
X302935Y486715D01*
X302838Y486680D01*
X302743Y486641D01*
X302650Y486596D01*
X302559Y486547D01*
X302471Y486493D01*
X302386Y486435D01*
X302305Y486372D01*
X302226Y486305D01*
X302151Y486235D01*
X302080Y486160D01*
X302013Y486081D01*
X301951Y486000D01*
X301892Y485915D01*
X301838Y485827D01*
X301789Y485736D01*
X301745Y485643D01*
X301706Y485548D01*
X301671Y485451D01*
X301642Y485352D01*
X301618Y485252D01*
X301599Y485150D01*
X301586Y485048D01*
X301577Y484945D01*
X301575Y484842D01*
Y481890D01*
Y478937D01*
X301577Y478834D01*
X301586Y478731D01*
X301599Y478629D01*
X301618Y478528D01*
X301642Y478428D01*
X301671Y478329D01*
X301706Y478232D01*
X301745Y478136D01*
X301789Y478043D01*
X301838Y477953D01*
X301892Y477865D01*
X301951Y477780D01*
X302013Y477698D01*
X302080Y477620D01*
X302151Y477545D01*
X302226Y477474D01*
X302305Y477407D01*
X302386Y477344D01*
X302471Y477286D01*
X302559Y477232D01*
X302650Y477183D01*
X302743Y477139D01*
X302838Y477099D01*
X302935Y477065D01*
X303034Y477036D01*
X303134Y477011D01*
X303235Y476993D01*
X303338Y476979D01*
X303440Y476971D01*
X303543Y476968D01*
X303646Y476971D01*
X303749Y476979D01*
X303851Y476993D01*
X303953Y477011D01*
X304053Y477036D01*
X304152Y477065D01*
X304249Y477099D01*
X304344Y477139D01*
X304437Y477183D01*
X304528Y477232D01*
X304615Y477286D01*
X304700Y477344D01*
X304782Y477407D01*
X304860Y477474D01*
X304935Y477545D01*
X305006Y477620D01*
X305073Y477698D01*
X305136Y477780D01*
X305194Y477865D01*
X305248Y477953D01*
X305297Y478043D01*
X305342Y478136D01*
X305381Y478232D01*
X305416Y478329D01*
X305445Y478428D01*
X305469Y478528D01*
X305488Y478629D01*
X305501Y478731D01*
X305509Y478834D01*
X305512Y478937D01*
Y481890D01*
Y484842D01*
X305509Y484945D01*
X305501Y485048D01*
X305488Y485150D01*
X305469Y485252D01*
X305445Y485352D01*
X305416Y485451D01*
X305381Y485548D01*
X305342Y485643D01*
X305297Y485736D01*
X305248Y485827D01*
X305194Y485915D01*
X305136Y486000D01*
X305073Y486081D01*
X305006Y486160D01*
X304935Y486235D01*
X304860Y486305D01*
X304782Y486372D01*
X304700Y486435D01*
X304615Y486493D01*
X304528Y486547D01*
X304437Y486596D01*
X304344Y486641D01*
X304249Y486680D01*
X304152Y486715D01*
X304053Y486744D01*
X303953Y486768D01*
X303851Y486787D01*
X303749Y486800D01*
X303646Y486808D01*
X303543Y486811D01*
D02*
G37*
G36*
X195472Y485976D02*
X194415Y485837D01*
X193429Y485428D01*
X192583Y484779D01*
X191934Y483933D01*
X191525Y482947D01*
X191386Y481890D01*
X191525Y480832D01*
X191934Y479847D01*
X192583Y479000D01*
X193429Y478351D01*
X194415Y477943D01*
X195472Y477804D01*
X196530Y477943D01*
X197515Y478351D01*
X198362Y479000D01*
X199011Y479847D01*
X199419Y480832D01*
X199559Y481890D01*
X199419Y482947D01*
X199011Y483933D01*
X198362Y484779D01*
X197515Y485428D01*
X196530Y485837D01*
X195472Y485976D01*
D02*
G37*
G36*
X226772Y486811D02*
X226669Y486808D01*
X226566Y486800D01*
X226464Y486787D01*
X226362Y486768D01*
X226262Y486744D01*
X226163Y486715D01*
X226066Y486680D01*
X225971Y486641D01*
X225878Y486596D01*
X225787Y486547D01*
X225699Y486493D01*
X225615Y486435D01*
X225533Y486372D01*
X225454Y486305D01*
X225380Y486235D01*
X225309Y486160D01*
X225242Y486081D01*
X225179Y486000D01*
X225121Y485915D01*
X225067Y485827D01*
X225018Y485736D01*
X224973Y485643D01*
X224934Y485548D01*
X224900Y485451D01*
X224870Y485352D01*
X224846Y485252D01*
X224827Y485150D01*
X224814Y485048D01*
X224806Y484945D01*
X224803Y484842D01*
Y481890D01*
Y478937D01*
X224806Y478834D01*
X224814Y478731D01*
X224827Y478629D01*
X224846Y478528D01*
X224870Y478428D01*
X224900Y478329D01*
X224934Y478232D01*
X224973Y478136D01*
X225018Y478043D01*
X225067Y477953D01*
X225121Y477865D01*
X225179Y477780D01*
X225242Y477698D01*
X225309Y477620D01*
X225380Y477545D01*
X225454Y477474D01*
X225533Y477407D01*
X225615Y477344D01*
X225699Y477286D01*
X225787Y477232D01*
X225878Y477183D01*
X225971Y477139D01*
X226066Y477099D01*
X226163Y477065D01*
X226262Y477036D01*
X226362Y477011D01*
X226464Y476993D01*
X226566Y476979D01*
X226669Y476971D01*
X226772Y476968D01*
X226875Y476971D01*
X226977Y476979D01*
X227080Y476993D01*
X227181Y477011D01*
X227281Y477036D01*
X227380Y477065D01*
X227477Y477099D01*
X227572Y477139D01*
X227665Y477183D01*
X227756Y477232D01*
X227844Y477286D01*
X227929Y477344D01*
X228011Y477407D01*
X228089Y477474D01*
X228164Y477545D01*
X228235Y477620D01*
X228302Y477698D01*
X228364Y477780D01*
X228423Y477865D01*
X228476Y477953D01*
X228526Y478043D01*
X228570Y478136D01*
X228609Y478232D01*
X228644Y478329D01*
X228673Y478428D01*
X228697Y478528D01*
X228716Y478629D01*
X228729Y478731D01*
X228737Y478834D01*
X228740Y478937D01*
Y481890D01*
Y484842D01*
X228737Y484945D01*
X228729Y485048D01*
X228716Y485150D01*
X228697Y485252D01*
X228673Y485352D01*
X228644Y485451D01*
X228609Y485548D01*
X228570Y485643D01*
X228526Y485736D01*
X228476Y485827D01*
X228423Y485915D01*
X228364Y486000D01*
X228302Y486081D01*
X228235Y486160D01*
X228164Y486235D01*
X228089Y486305D01*
X228011Y486372D01*
X227929Y486435D01*
X227844Y486493D01*
X227756Y486547D01*
X227665Y486596D01*
X227572Y486641D01*
X227477Y486680D01*
X227380Y486715D01*
X227281Y486744D01*
X227181Y486768D01*
X227080Y486787D01*
X226977Y486800D01*
X226875Y486808D01*
X226772Y486811D01*
D02*
G37*
G36*
X258661D02*
X258558Y486808D01*
X258456Y486800D01*
X258353Y486787D01*
X258252Y486768D01*
X258152Y486744D01*
X258053Y486715D01*
X257956Y486680D01*
X257861Y486641D01*
X257768Y486596D01*
X257677Y486547D01*
X257589Y486493D01*
X257504Y486435D01*
X257423Y486372D01*
X257344Y486305D01*
X257270Y486235D01*
X257199Y486160D01*
X257132Y486081D01*
X257069Y486000D01*
X257011Y485915D01*
X256957Y485827D01*
X256908Y485736D01*
X256863Y485643D01*
X256824Y485548D01*
X256789Y485451D01*
X256760Y485352D01*
X256736Y485252D01*
X256717Y485150D01*
X256704Y485048D01*
X256696Y484945D01*
X256693Y484842D01*
Y481890D01*
Y478937D01*
X256696Y478834D01*
X256704Y478731D01*
X256717Y478629D01*
X256736Y478528D01*
X256760Y478428D01*
X256789Y478329D01*
X256824Y478232D01*
X256863Y478136D01*
X256908Y478043D01*
X256957Y477953D01*
X257011Y477865D01*
X257069Y477780D01*
X257132Y477698D01*
X257199Y477620D01*
X257270Y477545D01*
X257344Y477474D01*
X257423Y477407D01*
X257504Y477344D01*
X257589Y477286D01*
X257677Y477232D01*
X257768Y477183D01*
X257861Y477139D01*
X257956Y477099D01*
X258053Y477065D01*
X258152Y477036D01*
X258252Y477011D01*
X258353Y476993D01*
X258456Y476979D01*
X258558Y476971D01*
X258661Y476968D01*
X258764Y476971D01*
X258867Y476979D01*
X258969Y476993D01*
X259071Y477011D01*
X259171Y477036D01*
X259270Y477065D01*
X259367Y477099D01*
X259462Y477139D01*
X259555Y477183D01*
X259646Y477232D01*
X259734Y477286D01*
X259819Y477344D01*
X259900Y477407D01*
X259979Y477474D01*
X260053Y477545D01*
X260124Y477620D01*
X260191Y477698D01*
X260254Y477780D01*
X260312Y477865D01*
X260366Y477953D01*
X260415Y478043D01*
X260460Y478136D01*
X260499Y478232D01*
X260534Y478329D01*
X260563Y478428D01*
X260587Y478528D01*
X260606Y478629D01*
X260619Y478731D01*
X260627Y478834D01*
X260630Y478937D01*
Y481890D01*
Y484842D01*
X260627Y484945D01*
X260619Y485048D01*
X260606Y485150D01*
X260587Y485252D01*
X260563Y485352D01*
X260534Y485451D01*
X260499Y485548D01*
X260460Y485643D01*
X260415Y485736D01*
X260366Y485827D01*
X260312Y485915D01*
X260254Y486000D01*
X260191Y486081D01*
X260124Y486160D01*
X260053Y486235D01*
X259979Y486305D01*
X259900Y486372D01*
X259819Y486435D01*
X259734Y486493D01*
X259646Y486547D01*
X259555Y486596D01*
X259462Y486641D01*
X259367Y486680D01*
X259270Y486715D01*
X259171Y486744D01*
X259071Y486768D01*
X258969Y486787D01*
X258867Y486800D01*
X258764Y486808D01*
X258661Y486811D01*
D02*
G37*
G36*
X225053Y406390D02*
X221169D01*
Y400603D01*
X221804Y400687D01*
X222861Y401125D01*
X223769Y401821D01*
X224466Y402729D01*
X224904Y403787D01*
X225053Y404921D01*
Y406390D01*
D02*
G37*
G36*
X191429D02*
X187545D01*
Y404921D01*
X187695Y403787D01*
X188133Y402729D01*
X188829Y401821D01*
X189737Y401125D01*
X190795Y400687D01*
X191429Y400603D01*
Y406390D01*
D02*
G37*
G36*
X196313D02*
X192429D01*
Y400603D01*
X193064Y400687D01*
X194121Y401125D01*
X195029Y401821D01*
X195726Y402729D01*
X196164Y403787D01*
X196313Y404921D01*
Y406390D01*
D02*
G37*
G36*
X306791Y394377D02*
X305878Y394256D01*
X305026Y393904D01*
X304295Y393343D01*
X303734Y392612D01*
X303381Y391760D01*
X303261Y390846D01*
X303381Y389933D01*
X303734Y389081D01*
X304295Y388350D01*
X305026Y387789D01*
X305878Y387437D01*
X306791Y387316D01*
X307705Y387437D01*
X308556Y387789D01*
X309288Y388350D01*
X309849Y389081D01*
X310201Y389933D01*
X310321Y390846D01*
X310201Y391760D01*
X309849Y392612D01*
X309288Y393343D01*
X308556Y393904D01*
X307705Y394256D01*
X306791Y394377D01*
D02*
G37*
G36*
X316634D02*
X315720Y394256D01*
X314869Y393904D01*
X314138Y393343D01*
X313577Y392612D01*
X313224Y391760D01*
X313104Y390846D01*
X313224Y389933D01*
X313577Y389081D01*
X314138Y388350D01*
X314869Y387789D01*
X315720Y387437D01*
X316634Y387316D01*
X317547Y387437D01*
X318399Y387789D01*
X319130Y388350D01*
X319691Y389081D01*
X320044Y389933D01*
X320164Y390846D01*
X320044Y391760D01*
X319691Y392612D01*
X319130Y393343D01*
X318399Y393904D01*
X317547Y394256D01*
X316634Y394377D01*
D02*
G37*
G36*
X335252Y413106D02*
X328134D01*
Y404020D01*
X335252D01*
Y413106D01*
D02*
G37*
G36*
X356906D02*
X349787D01*
Y404020D01*
X356906D01*
Y413106D01*
D02*
G37*
G36*
X163976Y416390D02*
X162546Y416249D01*
X161170Y415831D01*
X159901Y415154D01*
X158790Y414241D01*
X157878Y413130D01*
X157200Y411862D01*
X156783Y410486D01*
X156642Y409055D01*
X156783Y407624D01*
X157200Y406248D01*
X157878Y404980D01*
X158790Y403869D01*
X159901Y402957D01*
X161170Y402279D01*
X162546Y401861D01*
X163976Y401721D01*
X165407Y401861D01*
X166783Y402279D01*
X168051Y402957D01*
X169163Y403869D01*
X170075Y404980D01*
X170753Y406248D01*
X171170Y407624D01*
X171311Y409055D01*
X171170Y410486D01*
X170753Y411862D01*
X170075Y413130D01*
X169163Y414241D01*
X168051Y415154D01*
X166783Y415831D01*
X165407Y416249D01*
X163976Y416390D01*
D02*
G37*
G36*
X220169Y406390D02*
X216285D01*
Y404921D01*
X216435Y403787D01*
X216873Y402729D01*
X217569Y401821D01*
X218477Y401125D01*
X219535Y400687D01*
X220169Y400603D01*
Y406390D01*
D02*
G37*
G36*
X116732Y416390D02*
X115301Y416249D01*
X113926Y415831D01*
X112657Y415154D01*
X111546Y414241D01*
X110634Y413130D01*
X109956Y411862D01*
X109539Y410486D01*
X109398Y409055D01*
X109539Y407624D01*
X109956Y406248D01*
X110634Y404980D01*
X111546Y403869D01*
X112657Y402957D01*
X113926Y402279D01*
X115301Y401861D01*
X116732Y401721D01*
X118163Y401861D01*
X119539Y402279D01*
X120807Y402957D01*
X121919Y403869D01*
X122831Y404980D01*
X123509Y406248D01*
X123926Y407624D01*
X124067Y409055D01*
X123926Y410486D01*
X123509Y411862D01*
X122831Y413130D01*
X121919Y414241D01*
X120807Y415154D01*
X119539Y415831D01*
X118163Y416249D01*
X116732Y416390D01*
D02*
G37*
G36*
X125197Y461011D02*
X124283Y460890D01*
X123432Y460538D01*
X122701Y459976D01*
X122140Y459245D01*
X121787Y458394D01*
X121667Y457480D01*
X121787Y456567D01*
X122140Y455715D01*
X122701Y454984D01*
X123432Y454423D01*
X124283Y454070D01*
X125197Y453950D01*
X126110Y454070D01*
X126346Y454168D01*
X133761Y446753D01*
X134257Y446422D01*
X134843Y446305D01*
X137457D01*
X143746Y440016D01*
Y434993D01*
X142984Y434677D01*
X142035Y433949D01*
X141307Y433000D01*
X140849Y431895D01*
X140693Y430709D01*
X140849Y429523D01*
X141307Y428417D01*
X142035Y427468D01*
X142984Y426740D01*
X144090Y426282D01*
X145276Y426126D01*
X146462Y426282D01*
X147567Y426740D01*
X148516Y427468D01*
X149244Y428417D01*
X149560Y429179D01*
X150548D01*
X152604Y427122D01*
Y410673D01*
X138289Y396357D01*
X137957Y395861D01*
X137841Y395276D01*
Y385433D01*
Y330724D01*
X137379Y330532D01*
X132578Y335333D01*
X132081Y335665D01*
X131496Y335781D01*
X127472D01*
Y338063D01*
X119850D01*
Y330441D01*
X127472D01*
Y332723D01*
X130863D01*
X137841Y325745D01*
Y250889D01*
X137501Y250380D01*
X137347Y249606D01*
X137501Y248832D01*
X137841Y248324D01*
Y242326D01*
X125310Y229795D01*
X119850D01*
Y222173D01*
X127472D01*
Y224455D01*
X130863D01*
X137841Y217477D01*
Y159689D01*
X134800Y156648D01*
X127472D01*
Y158929D01*
X119850D01*
Y151307D01*
X127472D01*
Y153589D01*
X135433D01*
X136018Y153705D01*
X136514Y154037D01*
X140452Y157974D01*
X140783Y158470D01*
X140900Y159055D01*
Y218110D01*
X140783Y218695D01*
X140452Y219192D01*
X132578Y227066D01*
X132081Y227397D01*
X131496Y227514D01*
X128061D01*
X127854Y228014D01*
X140452Y240612D01*
X140783Y241108D01*
X140900Y241693D01*
Y247583D01*
X297981D01*
X303240Y242323D01*
X303163Y241732D01*
X303283Y240819D01*
X303636Y239967D01*
X304197Y239236D01*
X304928Y238675D01*
X305779Y238322D01*
X306693Y238202D01*
X307607Y238322D01*
X308458Y238675D01*
X309189Y239236D01*
X309750Y239967D01*
X310103Y240819D01*
X310223Y241732D01*
X310103Y242646D01*
X309750Y243497D01*
X309189Y244229D01*
X308458Y244790D01*
X307607Y245142D01*
X306693Y245263D01*
X306102Y245185D01*
X300250Y251037D01*
X299593Y251475D01*
X298819Y251629D01*
X140900D01*
Y326378D01*
Y385433D01*
Y394642D01*
X155215Y408958D01*
X155547Y409454D01*
X155663Y410039D01*
Y427756D01*
X155547Y428341D01*
X155215Y428837D01*
X152263Y431790D01*
X151766Y432122D01*
X151181Y432238D01*
X149560D01*
X149244Y433000D01*
X148516Y433949D01*
X147567Y434677D01*
X146805Y434993D01*
Y440650D01*
X146689Y441235D01*
X146357Y441731D01*
X139172Y448916D01*
X138676Y449248D01*
X138091Y449364D01*
X135476D01*
X128509Y456331D01*
X128607Y456567D01*
X128727Y457480D01*
X128607Y458394D01*
X128254Y459245D01*
X127693Y459976D01*
X126962Y460538D01*
X126110Y460890D01*
X125197Y461011D01*
D02*
G37*
G36*
X259547Y339588D02*
X258658Y339411D01*
X257904Y338907D01*
X257400Y338153D01*
X257223Y337264D01*
X257400Y336374D01*
X257904Y335620D01*
X258658Y335117D01*
X259547Y334940D01*
X260437Y335117D01*
X261191Y335620D01*
X261695Y336374D01*
X261871Y337264D01*
X261695Y338153D01*
X261191Y338907D01*
X260437Y339411D01*
X259547Y339588D01*
D02*
G37*
G36*
X197063Y328953D02*
X193020D01*
Y324909D01*
X197063D01*
Y328953D01*
D02*
G37*
G36*
X294980Y330597D02*
X294067Y330477D01*
X293215Y330124D01*
X292484Y329563D01*
X291923Y328832D01*
X291570Y327981D01*
X291450Y327067D01*
X291570Y326153D01*
X291923Y325302D01*
X292484Y324571D01*
X293215Y324010D01*
X294067Y323657D01*
X294980Y323537D01*
X295894Y323657D01*
X296745Y324010D01*
X297477Y324571D01*
X298038Y325302D01*
X298390Y326153D01*
X298511Y327067D01*
X298390Y327981D01*
X298038Y328832D01*
X297477Y329563D01*
X296745Y330124D01*
X295894Y330477D01*
X294980Y330597D01*
D02*
G37*
G36*
X192020Y328953D02*
X187976D01*
Y324909D01*
X192020D01*
Y328953D01*
D02*
G37*
G36*
X317421Y385901D02*
X315851Y385746D01*
X314342Y385288D01*
X312951Y384545D01*
X311731Y383544D01*
X310731Y382325D01*
X309987Y380934D01*
X309529Y379424D01*
X309375Y377854D01*
X309529Y376285D01*
X309987Y374775D01*
X310731Y373384D01*
X311731Y372165D01*
X312951Y371164D01*
X314342Y370420D01*
X315851Y369962D01*
X317421Y369808D01*
X318991Y369962D01*
X320501Y370420D01*
X321892Y371164D01*
X323111Y372165D01*
X324112Y373384D01*
X324855Y374775D01*
X325313Y376285D01*
X325468Y377854D01*
X325313Y379424D01*
X324855Y380934D01*
X324112Y382325D01*
X323111Y383544D01*
X321892Y384545D01*
X320501Y385288D01*
X318991Y385746D01*
X317421Y385901D01*
D02*
G37*
G36*
X463287D02*
X461718Y385746D01*
X460208Y385288D01*
X458817Y384545D01*
X457598Y383544D01*
X456597Y382325D01*
X455853Y380934D01*
X455395Y379424D01*
X455241Y377854D01*
X455395Y376285D01*
X455853Y374775D01*
X456597Y373384D01*
X457598Y372165D01*
X458817Y371164D01*
X460208Y370420D01*
X461718Y369962D01*
X463287Y369808D01*
X464857Y369962D01*
X466367Y370420D01*
X467758Y371164D01*
X468977Y372165D01*
X469978Y373384D01*
X470721Y374775D01*
X471179Y376285D01*
X471334Y377854D01*
X471179Y379424D01*
X470721Y380934D01*
X469978Y382325D01*
X468977Y383544D01*
X467758Y384545D01*
X466367Y385288D01*
X464857Y385746D01*
X463287Y385901D01*
D02*
G37*
G36*
X248878Y367864D02*
X247524Y367731D01*
X246222Y367336D01*
X245023Y366695D01*
X243971Y365832D01*
X243108Y364780D01*
X242467Y363581D01*
X242072Y362279D01*
X241939Y360925D01*
X242072Y359572D01*
X242467Y358270D01*
X243108Y357070D01*
X243971Y356019D01*
X245023Y355156D01*
X246222Y354515D01*
X247524Y354120D01*
X248878Y353986D01*
X250232Y354120D01*
X251533Y354515D01*
X252733Y355156D01*
X253784Y356019D01*
X254647Y357070D01*
X255289Y358270D01*
X255683Y359572D01*
X255817Y360925D01*
X255683Y362279D01*
X255289Y363581D01*
X254647Y364780D01*
X253784Y365832D01*
X252733Y366695D01*
X251533Y367336D01*
X250232Y367731D01*
X248878Y367864D01*
D02*
G37*
G36*
X204331Y350445D02*
X202900Y350304D01*
X201524Y349886D01*
X200256Y349209D01*
X199144Y348296D01*
X198232Y347185D01*
X197555Y345917D01*
X197137Y344541D01*
X196996Y343110D01*
X197137Y341679D01*
X197555Y340303D01*
X198232Y339035D01*
X199144Y337924D01*
X200256Y337012D01*
X201524Y336334D01*
X202900Y335917D01*
X204331Y335776D01*
X205762Y335917D01*
X207137Y336334D01*
X208406Y337012D01*
X209517Y337924D01*
X210429Y339035D01*
X211107Y340303D01*
X211524Y341679D01*
X211665Y343110D01*
X211524Y344541D01*
X211107Y345917D01*
X210429Y347185D01*
X209517Y348296D01*
X208406Y349209D01*
X207137Y349886D01*
X205762Y350304D01*
X204331Y350445D01*
D02*
G37*
G36*
X112992Y351914D02*
X111549Y351724D01*
X110205Y351167D01*
X109050Y350281D01*
X108164Y349126D01*
X107607Y347782D01*
X107417Y346339D01*
X107607Y344896D01*
X108164Y343551D01*
X109050Y342396D01*
X110205Y341510D01*
X111549Y340953D01*
X112992Y340763D01*
X114435Y340953D01*
X115780Y341510D01*
X116934Y342396D01*
X117821Y343551D01*
X118377Y344896D01*
X118567Y346339D01*
X118377Y347782D01*
X117821Y349126D01*
X116934Y350281D01*
X115780Y351167D01*
X114435Y351724D01*
X112992Y351914D01*
D02*
G37*
G36*
X336335Y424524D02*
X329610D01*
Y416224D01*
X336335D01*
Y424524D01*
D02*
G37*
G36*
X355429D02*
X348705D01*
Y416224D01*
X355429D01*
Y424524D01*
D02*
G37*
G36*
X416102Y418860D02*
X415213Y418683D01*
X414459Y418179D01*
X413955Y417425D01*
X413778Y416535D01*
X413955Y415646D01*
X414459Y414892D01*
X415213Y414388D01*
X416102Y414211D01*
X416992Y414388D01*
X417746Y414892D01*
X418250Y415646D01*
X418427Y416535D01*
X418250Y417425D01*
X417746Y418179D01*
X416992Y418683D01*
X416102Y418860D01*
D02*
G37*
G36*
X192429Y413176D02*
Y407390D01*
X196313D01*
Y408858D01*
X196164Y409993D01*
X195726Y411050D01*
X195029Y411958D01*
X194121Y412655D01*
X193064Y413093D01*
X192429Y413176D01*
D02*
G37*
G36*
X393347Y418860D02*
X392457Y418683D01*
X391703Y418179D01*
X391199Y417425D01*
X391022Y416535D01*
X391199Y415646D01*
X391703Y414892D01*
X392457Y414388D01*
X393347Y414211D01*
X394236Y414388D01*
X394990Y414892D01*
X395494Y415646D01*
X395671Y416535D01*
X395494Y417425D01*
X394990Y418179D01*
X394236Y418683D01*
X393347Y418860D01*
D02*
G37*
G36*
X139976Y425409D02*
X130890D01*
Y416323D01*
X139976D01*
Y425409D01*
D02*
G37*
G36*
X292480Y421222D02*
X291591Y421045D01*
X290837Y420541D01*
X290333Y419787D01*
X290156Y418898D01*
X290333Y418008D01*
X290837Y417254D01*
X291591Y416750D01*
X292480Y416573D01*
X293370Y416750D01*
X294124Y417254D01*
X294628Y418008D01*
X294805Y418898D01*
X294628Y419787D01*
X294124Y420541D01*
X293370Y421045D01*
X292480Y421222D01*
D02*
G37*
G36*
X200394Y463766D02*
X199480Y463646D01*
X198629Y463294D01*
X197898Y462732D01*
X197336Y462001D01*
X196984Y461150D01*
X196863Y460236D01*
X196984Y459323D01*
X197336Y458471D01*
X197898Y457740D01*
X198371Y457377D01*
Y451232D01*
X189121Y441982D01*
X188682Y441325D01*
X188528Y440551D01*
X188528Y424803D01*
X188682Y424029D01*
X189121Y423373D01*
X191876Y420617D01*
X192533Y420178D01*
X193307Y420024D01*
X199957D01*
Y419783D01*
X200066Y418957D01*
X200385Y418187D01*
X200892Y417526D01*
X201553Y417019D01*
X202323Y416700D01*
X203150Y416591D01*
X203976Y416700D01*
X204746Y417019D01*
X205407Y417526D01*
X205914Y418187D01*
X206029Y418463D01*
X206570D01*
X206684Y418187D01*
X207191Y417526D01*
X207853Y417019D01*
X208623Y416700D01*
X208949Y416657D01*
Y420866D01*
X209449D01*
Y421366D01*
X212642D01*
Y421949D01*
X212533Y422775D01*
X212355Y423205D01*
X212477Y423443D01*
X212695Y423690D01*
X213425Y423786D01*
X214195Y424105D01*
X214856Y424613D01*
X215363Y425274D01*
X215682Y426044D01*
X215791Y426870D01*
Y427453D01*
X212598D01*
Y427953D01*
X212098D01*
Y432162D01*
X211772Y432119D01*
X211002Y431800D01*
X210341Y431293D01*
X209834Y430632D01*
X209719Y430356D01*
X209178D01*
X209064Y430632D01*
X208557Y431293D01*
X207895Y431800D01*
X207125Y432119D01*
X206299Y432228D01*
X205473Y432119D01*
X204703Y431800D01*
X204042Y431293D01*
X203534Y430632D01*
X203420Y430356D01*
X202879D01*
X202765Y430632D01*
X202257Y431293D01*
X201596Y431800D01*
X200826Y432119D01*
X200000Y432228D01*
X199174Y432119D01*
X198404Y431800D01*
X197742Y431293D01*
X197235Y430632D01*
X196916Y429862D01*
X196807Y429035D01*
Y426870D01*
X196916Y426044D01*
X197235Y425274D01*
X197742Y424613D01*
X197797Y424570D01*
X197628Y424070D01*
X194145D01*
X192574Y425641D01*
X192574Y439713D01*
X201824Y448963D01*
X202263Y449619D01*
X202417Y450394D01*
Y457377D01*
X202890Y457740D01*
X203451Y458471D01*
X203804Y459323D01*
X203924Y460236D01*
X203804Y461150D01*
X203451Y462001D01*
X202890Y462732D01*
X202159Y463294D01*
X201307Y463646D01*
X200394Y463766D01*
D02*
G37*
G36*
X269724Y421222D02*
X268835Y421045D01*
X268081Y420541D01*
X267577Y419787D01*
X267400Y418898D01*
X267577Y418008D01*
X268081Y417254D01*
X268835Y416750D01*
X269724Y416573D01*
X270614Y416750D01*
X271368Y417254D01*
X271872Y418008D01*
X272049Y418898D01*
X271872Y419787D01*
X271368Y420541D01*
X270614Y421045D01*
X269724Y421222D01*
D02*
G37*
G36*
X144776Y420366D02*
X140732D01*
Y416323D01*
X144776D01*
Y420366D01*
D02*
G37*
G36*
X149819D02*
X145776D01*
Y416323D01*
X149819D01*
Y420366D01*
D02*
G37*
G36*
X220169Y413176D02*
X219535Y413093D01*
X218477Y412655D01*
X217569Y411958D01*
X216873Y411050D01*
X216435Y409993D01*
X216285Y408858D01*
Y407390D01*
X220169D01*
Y413176D01*
D02*
G37*
G36*
X191429D02*
X190795Y413093D01*
X189737Y412655D01*
X188829Y411958D01*
X188133Y411050D01*
X187695Y409993D01*
X187545Y408858D01*
Y407390D01*
X191429D01*
Y413176D01*
D02*
G37*
G36*
X221169Y413176D02*
Y407390D01*
X225053D01*
Y408858D01*
X224904Y409993D01*
X224466Y411050D01*
X223769Y411958D01*
X222861Y412655D01*
X221804Y413093D01*
X221169Y413176D01*
D02*
G37*
%LPD*%
G36*
X319850Y487791D02*
X320014Y487778D01*
X320178Y487756D01*
X320340Y487726D01*
X320500Y487688D01*
X320658Y487641D01*
X320814Y487586D01*
X320966Y487523D01*
X321115Y487452D01*
X321260Y487373D01*
X321400Y487287D01*
X321536Y487194D01*
X321667Y487093D01*
X321793Y486986D01*
X321912Y486873D01*
X322026Y486753D01*
X322133Y486628D01*
X322233Y486497D01*
X322326Y486361D01*
X322413Y486221D01*
X322491Y486076D01*
X322562Y485927D01*
X322625Y485774D01*
X322680Y485619D01*
X322727Y485461D01*
X322766Y485300D01*
X322796Y485138D01*
X322817Y484975D01*
X322830Y484810D01*
X322835Y484646D01*
Y479921D01*
Y475197D01*
X322830Y475032D01*
X322817Y474868D01*
X322796Y474704D01*
X322766Y474542D01*
X322727Y474382D01*
X322680Y474224D01*
X322625Y474068D01*
X322562Y473916D01*
X322491Y473767D01*
X322413Y473622D01*
X322326Y473482D01*
X322233Y473346D01*
X322133Y473215D01*
X322026Y473089D01*
X321912Y472970D01*
X321793Y472856D01*
X321667Y472749D01*
X321536Y472649D01*
X321400Y472555D01*
X321260Y472469D01*
X321115Y472391D01*
X320966Y472320D01*
X320814Y472256D01*
X320658Y472201D01*
X320500Y472155D01*
X320340Y472116D01*
X320178Y472086D01*
X320014Y472064D01*
X319850Y472052D01*
X319685Y472047D01*
X319520Y472052D01*
X319356Y472064D01*
X319192Y472086D01*
X319030Y472116D01*
X318870Y472155D01*
X318712Y472201D01*
X318556Y472256D01*
X318404Y472320D01*
X318255Y472391D01*
X318110Y472469D01*
X317970Y472555D01*
X317834Y472649D01*
X317703Y472749D01*
X317578Y472856D01*
X317458Y472970D01*
X317344Y473089D01*
X317237Y473215D01*
X317137Y473346D01*
X317044Y473482D01*
X316957Y473622D01*
X316879Y473767D01*
X316808Y473916D01*
X316745Y474068D01*
X316690Y474224D01*
X316643Y474382D01*
X316604Y474542D01*
X316574Y474704D01*
X316553Y474868D01*
X316540Y475032D01*
X316535Y475197D01*
Y479921D01*
Y484646D01*
X316540Y484810D01*
X316553Y484975D01*
X316574Y485138D01*
X316604Y485300D01*
X316643Y485461D01*
X316690Y485619D01*
X316745Y485774D01*
X316808Y485927D01*
X316879Y486076D01*
X316957Y486221D01*
X317044Y486361D01*
X317137Y486497D01*
X317237Y486628D01*
X317344Y486753D01*
X317458Y486873D01*
X317578Y486986D01*
X317703Y487093D01*
X317834Y487194D01*
X317970Y487287D01*
X318110Y487373D01*
X318255Y487452D01*
X318404Y487523D01*
X318556Y487586D01*
X318712Y487641D01*
X318870Y487688D01*
X319030Y487726D01*
X319192Y487756D01*
X319356Y487778D01*
X319520Y487791D01*
X319685Y487795D01*
X319850Y487791D01*
D02*
G37*
G36*
X364732D02*
X364896Y487778D01*
X365060Y487756D01*
X365222Y487726D01*
X365382Y487688D01*
X365540Y487641D01*
X365696Y487586D01*
X365848Y487523D01*
X365997Y487452D01*
X366142Y487373D01*
X366282Y487287D01*
X366418Y487194D01*
X366549Y487093D01*
X366674Y486986D01*
X366794Y486873D01*
X366908Y486753D01*
X367015Y486628D01*
X367115Y486497D01*
X367208Y486361D01*
X367295Y486221D01*
X367373Y486076D01*
X367444Y485927D01*
X367507Y485774D01*
X367562Y485619D01*
X367609Y485461D01*
X367648Y485300D01*
X367678Y485138D01*
X367699Y484975D01*
X367712Y484810D01*
X367717Y484646D01*
Y479921D01*
Y475197D01*
X367712Y475032D01*
X367699Y474868D01*
X367678Y474704D01*
X367648Y474542D01*
X367609Y474382D01*
X367562Y474224D01*
X367507Y474068D01*
X367444Y473916D01*
X367373Y473767D01*
X367295Y473622D01*
X367208Y473482D01*
X367115Y473346D01*
X367015Y473215D01*
X366908Y473089D01*
X366794Y472970D01*
X366674Y472856D01*
X366549Y472749D01*
X366418Y472649D01*
X366282Y472555D01*
X366142Y472469D01*
X365997Y472391D01*
X365848Y472320D01*
X365696Y472256D01*
X365540Y472201D01*
X365382Y472155D01*
X365222Y472116D01*
X365060Y472086D01*
X364896Y472064D01*
X364732Y472052D01*
X364567Y472047D01*
X364402Y472052D01*
X364238Y472064D01*
X364074Y472086D01*
X363912Y472116D01*
X363752Y472155D01*
X363594Y472201D01*
X363438Y472256D01*
X363286Y472320D01*
X363137Y472391D01*
X362992Y472469D01*
X362852Y472555D01*
X362716Y472649D01*
X362585Y472749D01*
X362459Y472856D01*
X362340Y472970D01*
X362226Y473089D01*
X362119Y473215D01*
X362019Y473346D01*
X361925Y473482D01*
X361839Y473622D01*
X361761Y473767D01*
X361690Y473916D01*
X361627Y474068D01*
X361572Y474224D01*
X361525Y474382D01*
X361486Y474542D01*
X361456Y474704D01*
X361435Y474868D01*
X361422Y475032D01*
X361417Y475197D01*
Y479921D01*
Y484646D01*
X361422Y484810D01*
X361435Y484975D01*
X361456Y485138D01*
X361486Y485300D01*
X361525Y485461D01*
X361572Y485619D01*
X361627Y485774D01*
X361690Y485927D01*
X361761Y486076D01*
X361839Y486221D01*
X361925Y486361D01*
X362019Y486497D01*
X362119Y486628D01*
X362226Y486753D01*
X362340Y486873D01*
X362459Y486986D01*
X362585Y487093D01*
X362716Y487194D01*
X362852Y487287D01*
X362992Y487373D01*
X363137Y487452D01*
X363286Y487523D01*
X363438Y487586D01*
X363594Y487641D01*
X363752Y487688D01*
X363912Y487726D01*
X364074Y487756D01*
X364238Y487778D01*
X364402Y487791D01*
X364567Y487795D01*
X364732Y487791D01*
D02*
G37*
G36*
X117094Y485822D02*
X117258Y485810D01*
X117422Y485788D01*
X117584Y485758D01*
X117744Y485719D01*
X117902Y485673D01*
X118058Y485618D01*
X118210Y485555D01*
X118359Y485484D01*
X118504Y485405D01*
X118644Y485319D01*
X118780Y485225D01*
X118911Y485125D01*
X119037Y485018D01*
X119156Y484904D01*
X119270Y484785D01*
X119377Y484659D01*
X119477Y484528D01*
X119571Y484393D01*
X119657Y484252D01*
X119735Y484107D01*
X119806Y483958D01*
X119870Y483806D01*
X119925Y483650D01*
X119971Y483492D01*
X120010Y483332D01*
X120040Y483170D01*
X120062Y483006D01*
X120074Y482842D01*
X120079Y482677D01*
Y477953D01*
Y473228D01*
X120074Y473064D01*
X120062Y472899D01*
X120040Y472736D01*
X120010Y472574D01*
X119971Y472413D01*
X119925Y472255D01*
X119870Y472100D01*
X119806Y471947D01*
X119735Y471799D01*
X119657Y471654D01*
X119571Y471513D01*
X119477Y471377D01*
X119377Y471246D01*
X119270Y471121D01*
X119156Y471001D01*
X119037Y470888D01*
X118911Y470781D01*
X118780Y470680D01*
X118644Y470587D01*
X118504Y470501D01*
X118359Y470422D01*
X118210Y470351D01*
X118058Y470288D01*
X117902Y470233D01*
X117744Y470186D01*
X117584Y470148D01*
X117422Y470118D01*
X117258Y470096D01*
X117094Y470083D01*
X116929Y470079D01*
X116764Y470083D01*
X116600Y470096D01*
X116436Y470118D01*
X116274Y470148D01*
X116114Y470186D01*
X115956Y470233D01*
X115800Y470288D01*
X115648Y470351D01*
X115499Y470422D01*
X115354Y470501D01*
X115214Y470587D01*
X115078Y470680D01*
X114947Y470781D01*
X114822Y470888D01*
X114702Y471001D01*
X114588Y471121D01*
X114481Y471246D01*
X114381Y471377D01*
X114288Y471513D01*
X114201Y471654D01*
X114123Y471799D01*
X114052Y471947D01*
X113989Y472100D01*
X113934Y472255D01*
X113887Y472413D01*
X113848Y472574D01*
X113818Y472736D01*
X113797Y472899D01*
X113784Y473064D01*
X113779Y473228D01*
Y477953D01*
Y482677D01*
X113784Y482842D01*
X113797Y483006D01*
X113818Y483170D01*
X113848Y483332D01*
X113887Y483492D01*
X113934Y483650D01*
X113989Y483806D01*
X114052Y483958D01*
X114123Y484107D01*
X114201Y484252D01*
X114288Y484393D01*
X114381Y484528D01*
X114481Y484659D01*
X114588Y484785D01*
X114702Y484904D01*
X114822Y485018D01*
X114947Y485125D01*
X115078Y485225D01*
X115214Y485319D01*
X115354Y485405D01*
X115499Y485484D01*
X115648Y485555D01*
X115800Y485618D01*
X115956Y485673D01*
X116114Y485719D01*
X116274Y485758D01*
X116436Y485788D01*
X116600Y485810D01*
X116764Y485822D01*
X116929Y485827D01*
X117094Y485822D01*
D02*
G37*
G36*
X161976D02*
X162140Y485810D01*
X162304Y485788D01*
X162466Y485758D01*
X162626Y485719D01*
X162784Y485673D01*
X162940Y485618D01*
X163092Y485555D01*
X163241Y485484D01*
X163386Y485405D01*
X163526Y485319D01*
X163662Y485225D01*
X163793Y485125D01*
X163918Y485018D01*
X164038Y484904D01*
X164152Y484785D01*
X164259Y484659D01*
X164359Y484528D01*
X164453Y484393D01*
X164539Y484252D01*
X164617Y484107D01*
X164688Y483958D01*
X164751Y483806D01*
X164806Y483650D01*
X164853Y483492D01*
X164892Y483332D01*
X164922Y483170D01*
X164943Y483006D01*
X164956Y482842D01*
X164961Y482677D01*
Y477953D01*
Y473228D01*
X164956Y473064D01*
X164943Y472899D01*
X164922Y472736D01*
X164892Y472574D01*
X164853Y472413D01*
X164806Y472255D01*
X164751Y472100D01*
X164688Y471947D01*
X164617Y471799D01*
X164539Y471654D01*
X164453Y471513D01*
X164359Y471377D01*
X164259Y471246D01*
X164152Y471121D01*
X164038Y471001D01*
X163918Y470888D01*
X163793Y470781D01*
X163662Y470680D01*
X163526Y470587D01*
X163386Y470501D01*
X163241Y470422D01*
X163092Y470351D01*
X162940Y470288D01*
X162784Y470233D01*
X162626Y470186D01*
X162466Y470148D01*
X162304Y470118D01*
X162140Y470096D01*
X161976Y470083D01*
X161811Y470079D01*
X161646Y470083D01*
X161482Y470096D01*
X161318Y470118D01*
X161156Y470148D01*
X160996Y470186D01*
X160838Y470233D01*
X160682Y470288D01*
X160530Y470351D01*
X160381Y470422D01*
X160236Y470501D01*
X160096Y470587D01*
X159960Y470680D01*
X159829Y470781D01*
X159704Y470888D01*
X159584Y471001D01*
X159470Y471121D01*
X159363Y471246D01*
X159263Y471377D01*
X159169Y471513D01*
X159083Y471654D01*
X159005Y471799D01*
X158934Y471947D01*
X158871Y472100D01*
X158816Y472255D01*
X158769Y472413D01*
X158730Y472574D01*
X158700Y472736D01*
X158679Y472899D01*
X158666Y473064D01*
X158661Y473228D01*
Y477953D01*
Y482677D01*
X158666Y482842D01*
X158679Y483006D01*
X158700Y483170D01*
X158730Y483332D01*
X158769Y483492D01*
X158816Y483650D01*
X158871Y483806D01*
X158934Y483958D01*
X159005Y484107D01*
X159083Y484252D01*
X159169Y484393D01*
X159263Y484528D01*
X159363Y484659D01*
X159470Y484785D01*
X159584Y484904D01*
X159704Y485018D01*
X159829Y485125D01*
X159960Y485225D01*
X160096Y485319D01*
X160236Y485405D01*
X160381Y485484D01*
X160530Y485555D01*
X160682Y485618D01*
X160838Y485673D01*
X160996Y485719D01*
X161156Y485758D01*
X161318Y485788D01*
X161482Y485810D01*
X161646Y485822D01*
X161811Y485827D01*
X161976Y485822D01*
D02*
G37*
%LPC*%
G36*
X116929Y482874D02*
X116826Y482871D01*
X116723Y482863D01*
X116621Y482850D01*
X116520Y482831D01*
X116420Y482807D01*
X116321Y482778D01*
X116224Y482743D01*
X116129Y482704D01*
X116035Y482659D01*
X115945Y482610D01*
X115857Y482556D01*
X115772Y482498D01*
X115690Y482435D01*
X115612Y482368D01*
X115537Y482298D01*
X115466Y482223D01*
X115399Y482144D01*
X115337Y482063D01*
X115278Y481978D01*
X115224Y481890D01*
X115175Y481799D01*
X115131Y481706D01*
X115091Y481611D01*
X115057Y481514D01*
X115028Y481415D01*
X115004Y481315D01*
X114985Y481214D01*
X114971Y481111D01*
X114963Y481008D01*
X114961Y480905D01*
Y477953D01*
Y475000D01*
X114963Y474897D01*
X114971Y474794D01*
X114985Y474692D01*
X115004Y474591D01*
X115028Y474490D01*
X115057Y474392D01*
X115091Y474295D01*
X115131Y474199D01*
X115175Y474106D01*
X115224Y474016D01*
X115278Y473928D01*
X115337Y473843D01*
X115399Y473761D01*
X115466Y473683D01*
X115537Y473608D01*
X115612Y473537D01*
X115690Y473470D01*
X115772Y473407D01*
X115857Y473349D01*
X115945Y473295D01*
X116035Y473246D01*
X116129Y473202D01*
X116224Y473162D01*
X116321Y473128D01*
X116420Y473099D01*
X116520Y473074D01*
X116621Y473056D01*
X116723Y473042D01*
X116826Y473034D01*
X116929Y473032D01*
X117032Y473034D01*
X117135Y473042D01*
X117237Y473056D01*
X117338Y473074D01*
X117439Y473099D01*
X117537Y473128D01*
X117635Y473162D01*
X117730Y473202D01*
X117823Y473246D01*
X117913Y473295D01*
X118001Y473349D01*
X118086Y473407D01*
X118168Y473470D01*
X118246Y473537D01*
X118321Y473608D01*
X118392Y473683D01*
X118459Y473761D01*
X118522Y473843D01*
X118580Y473928D01*
X118634Y474016D01*
X118683Y474106D01*
X118727Y474199D01*
X118767Y474295D01*
X118801Y474392D01*
X118831Y474490D01*
X118855Y474591D01*
X118873Y474692D01*
X118887Y474794D01*
X118895Y474897D01*
X118898Y475000D01*
Y477953D01*
Y480905D01*
X118895Y481008D01*
X118887Y481111D01*
X118873Y481214D01*
X118855Y481315D01*
X118831Y481415D01*
X118801Y481514D01*
X118767Y481611D01*
X118727Y481706D01*
X118683Y481799D01*
X118634Y481890D01*
X118580Y481978D01*
X118522Y482063D01*
X118459Y482144D01*
X118392Y482223D01*
X118321Y482298D01*
X118246Y482368D01*
X118168Y482435D01*
X118086Y482498D01*
X118001Y482556D01*
X117913Y482610D01*
X117823Y482659D01*
X117730Y482704D01*
X117635Y482743D01*
X117537Y482778D01*
X117439Y482807D01*
X117338Y482831D01*
X117237Y482850D01*
X117135Y482863D01*
X117032Y482871D01*
X116929Y482874D01*
D02*
G37*
G36*
X161811D02*
X161708Y482871D01*
X161605Y482863D01*
X161503Y482850D01*
X161402Y482831D01*
X161302Y482807D01*
X161203Y482778D01*
X161106Y482743D01*
X161010Y482704D01*
X160917Y482659D01*
X160827Y482610D01*
X160739Y482556D01*
X160654Y482498D01*
X160572Y482435D01*
X160494Y482368D01*
X160419Y482298D01*
X160348Y482223D01*
X160281Y482144D01*
X160219Y482063D01*
X160160Y481978D01*
X160106Y481890D01*
X160057Y481799D01*
X160013Y481706D01*
X159973Y481611D01*
X159939Y481514D01*
X159910Y481415D01*
X159886Y481315D01*
X159867Y481214D01*
X159853Y481111D01*
X159845Y481008D01*
X159843Y480905D01*
Y477953D01*
Y475000D01*
X159845Y474897D01*
X159853Y474794D01*
X159867Y474692D01*
X159886Y474591D01*
X159910Y474490D01*
X159939Y474392D01*
X159973Y474295D01*
X160013Y474199D01*
X160057Y474106D01*
X160106Y474016D01*
X160160Y473928D01*
X160219Y473843D01*
X160281Y473761D01*
X160348Y473683D01*
X160419Y473608D01*
X160494Y473537D01*
X160572Y473470D01*
X160654Y473407D01*
X160739Y473349D01*
X160827Y473295D01*
X160917Y473246D01*
X161010Y473202D01*
X161106Y473162D01*
X161203Y473128D01*
X161302Y473099D01*
X161402Y473074D01*
X161503Y473056D01*
X161605Y473042D01*
X161708Y473034D01*
X161811Y473032D01*
X161914Y473034D01*
X162017Y473042D01*
X162119Y473056D01*
X162220Y473074D01*
X162320Y473099D01*
X162419Y473128D01*
X162516Y473162D01*
X162612Y473202D01*
X162705Y473246D01*
X162795Y473295D01*
X162883Y473349D01*
X162968Y473407D01*
X163050Y473470D01*
X163128Y473537D01*
X163203Y473608D01*
X163274Y473683D01*
X163341Y473761D01*
X163404Y473843D01*
X163462Y473928D01*
X163516Y474016D01*
X163565Y474106D01*
X163609Y474199D01*
X163649Y474295D01*
X163683Y474392D01*
X163712Y474490D01*
X163736Y474591D01*
X163755Y474692D01*
X163769Y474794D01*
X163777Y474897D01*
X163779Y475000D01*
Y477953D01*
Y480905D01*
X163777Y481008D01*
X163769Y481111D01*
X163755Y481214D01*
X163736Y481315D01*
X163712Y481415D01*
X163683Y481514D01*
X163649Y481611D01*
X163609Y481706D01*
X163565Y481799D01*
X163516Y481890D01*
X163462Y481978D01*
X163404Y482063D01*
X163341Y482144D01*
X163274Y482223D01*
X163203Y482298D01*
X163128Y482368D01*
X163050Y482435D01*
X162968Y482498D01*
X162883Y482556D01*
X162795Y482610D01*
X162705Y482659D01*
X162612Y482704D01*
X162516Y482743D01*
X162419Y482778D01*
X162320Y482807D01*
X162220Y482831D01*
X162119Y482850D01*
X162017Y482863D01*
X161914Y482871D01*
X161811Y482874D01*
D02*
G37*
G36*
X364567Y484842D02*
X364464Y484840D01*
X364361Y484832D01*
X364259Y484818D01*
X364158Y484799D01*
X364057Y484775D01*
X363959Y484746D01*
X363861Y484712D01*
X363766Y484672D01*
X363673Y484628D01*
X363583Y484579D01*
X363495Y484525D01*
X363410Y484467D01*
X363328Y484404D01*
X363250Y484337D01*
X363175Y484266D01*
X363104Y484191D01*
X363037Y484113D01*
X362974Y484031D01*
X362916Y483946D01*
X362862Y483858D01*
X362813Y483768D01*
X362769Y483675D01*
X362729Y483579D01*
X362695Y483482D01*
X362666Y483384D01*
X362641Y483283D01*
X362623Y483182D01*
X362609Y483080D01*
X362601Y482977D01*
X362598Y482874D01*
Y479921D01*
Y476968D01*
X362601Y476865D01*
X362609Y476763D01*
X362623Y476661D01*
X362641Y476559D01*
X362666Y476459D01*
X362695Y476360D01*
X362729Y476263D01*
X362769Y476168D01*
X362813Y476075D01*
X362862Y475984D01*
X362916Y475896D01*
X362974Y475811D01*
X363037Y475730D01*
X363104Y475651D01*
X363175Y475577D01*
X363250Y475506D01*
X363328Y475439D01*
X363410Y475376D01*
X363495Y475318D01*
X363583Y475264D01*
X363673Y475214D01*
X363766Y475170D01*
X363861Y475131D01*
X363959Y475096D01*
X364057Y475067D01*
X364158Y475043D01*
X364259Y475024D01*
X364361Y475011D01*
X364464Y475003D01*
X364567Y475000D01*
X364670Y475003D01*
X364773Y475011D01*
X364875Y475024D01*
X364976Y475043D01*
X365076Y475067D01*
X365175Y475096D01*
X365272Y475131D01*
X365368Y475170D01*
X365461Y475214D01*
X365551Y475264D01*
X365639Y475318D01*
X365724Y475376D01*
X365806Y475439D01*
X365884Y475506D01*
X365959Y475577D01*
X366030Y475651D01*
X366097Y475730D01*
X366160Y475811D01*
X366218Y475896D01*
X366272Y475984D01*
X366321Y476075D01*
X366365Y476168D01*
X366405Y476263D01*
X366439Y476360D01*
X366468Y476459D01*
X366492Y476559D01*
X366511Y476661D01*
X366525Y476763D01*
X366533Y476865D01*
X366535Y476968D01*
Y479921D01*
Y482874D01*
X366533Y482977D01*
X366525Y483080D01*
X366511Y483182D01*
X366492Y483283D01*
X366468Y483384D01*
X366439Y483482D01*
X366405Y483579D01*
X366365Y483675D01*
X366321Y483768D01*
X366272Y483858D01*
X366218Y483946D01*
X366160Y484031D01*
X366097Y484113D01*
X366030Y484191D01*
X365959Y484266D01*
X365884Y484337D01*
X365806Y484404D01*
X365724Y484467D01*
X365639Y484525D01*
X365551Y484579D01*
X365461Y484628D01*
X365368Y484672D01*
X365272Y484712D01*
X365175Y484746D01*
X365076Y484775D01*
X364976Y484799D01*
X364875Y484818D01*
X364773Y484832D01*
X364670Y484840D01*
X364567Y484842D01*
D02*
G37*
G36*
X319685D02*
X319582Y484840D01*
X319479Y484832D01*
X319377Y484818D01*
X319276Y484799D01*
X319176Y484775D01*
X319077Y484746D01*
X318980Y484712D01*
X318884Y484672D01*
X318791Y484628D01*
X318701Y484579D01*
X318613Y484525D01*
X318528Y484467D01*
X318446Y484404D01*
X318368Y484337D01*
X318293Y484266D01*
X318222Y484191D01*
X318155Y484113D01*
X318092Y484031D01*
X318034Y483946D01*
X317980Y483858D01*
X317931Y483768D01*
X317887Y483675D01*
X317847Y483579D01*
X317813Y483482D01*
X317784Y483384D01*
X317759Y483283D01*
X317741Y483182D01*
X317727Y483080D01*
X317719Y482977D01*
X317717Y482874D01*
Y479921D01*
Y476968D01*
X317719Y476865D01*
X317727Y476763D01*
X317741Y476661D01*
X317759Y476559D01*
X317784Y476459D01*
X317813Y476360D01*
X317847Y476263D01*
X317887Y476168D01*
X317931Y476075D01*
X317980Y475984D01*
X318034Y475896D01*
X318092Y475811D01*
X318155Y475730D01*
X318222Y475651D01*
X318293Y475577D01*
X318368Y475506D01*
X318446Y475439D01*
X318528Y475376D01*
X318613Y475318D01*
X318701Y475264D01*
X318791Y475214D01*
X318884Y475170D01*
X318980Y475131D01*
X319077Y475096D01*
X319176Y475067D01*
X319276Y475043D01*
X319377Y475024D01*
X319479Y475011D01*
X319582Y475003D01*
X319685Y475000D01*
X319788Y475003D01*
X319891Y475011D01*
X319993Y475024D01*
X320094Y475043D01*
X320195Y475067D01*
X320293Y475096D01*
X320391Y475131D01*
X320486Y475170D01*
X320579Y475214D01*
X320669Y475264D01*
X320757Y475318D01*
X320842Y475376D01*
X320924Y475439D01*
X321002Y475506D01*
X321077Y475577D01*
X321148Y475651D01*
X321215Y475730D01*
X321278Y475811D01*
X321336Y475896D01*
X321390Y475984D01*
X321439Y476075D01*
X321483Y476168D01*
X321523Y476263D01*
X321557Y476360D01*
X321586Y476459D01*
X321610Y476559D01*
X321629Y476661D01*
X321643Y476763D01*
X321651Y476865D01*
X321654Y476968D01*
Y479921D01*
Y482874D01*
X321651Y482977D01*
X321643Y483080D01*
X321629Y483182D01*
X321610Y483283D01*
X321586Y483384D01*
X321557Y483482D01*
X321523Y483579D01*
X321483Y483675D01*
X321439Y483768D01*
X321390Y483858D01*
X321336Y483946D01*
X321278Y484031D01*
X321215Y484113D01*
X321148Y484191D01*
X321077Y484266D01*
X321002Y484337D01*
X320924Y484404D01*
X320842Y484467D01*
X320757Y484525D01*
X320669Y484579D01*
X320579Y484628D01*
X320486Y484672D01*
X320391Y484712D01*
X320293Y484746D01*
X320195Y484775D01*
X320094Y484799D01*
X319993Y484818D01*
X319891Y484832D01*
X319788Y484840D01*
X319685Y484842D01*
D02*
G37*
%LPD*%
D26*
X139370Y249606D02*
X298819D01*
X306693Y241732D01*
X406299Y446063D02*
X416535Y456299D01*
X392913Y446063D02*
X406299D01*
X390945Y444095D02*
X392913Y446063D01*
X193307Y422047D02*
X203150D01*
X190551Y424803D02*
X193307Y422047D01*
X200394Y450394D02*
Y460236D01*
X190551Y424803D02*
X190551Y440551D01*
X200394Y450394D01*
D27*
X151181Y430709D02*
X154134Y427756D01*
Y410039D02*
Y427756D01*
X139370Y395276D02*
X154134Y410039D01*
X145276Y430709D02*
X151181D01*
X139370Y385433D02*
Y395276D01*
Y326378D02*
Y385433D01*
X123661Y334252D02*
X131496D01*
X139370Y326378D01*
Y241693D02*
Y326378D01*
X123661Y225984D02*
X139370Y241693D01*
X123661Y225984D02*
X131496D01*
X139370Y218110D01*
Y159055D02*
Y218110D01*
X135433Y155118D02*
X139370Y159055D01*
X123661Y155118D02*
X135433D01*
X397244Y457874D02*
Y459449D01*
Y457874D02*
X399213Y455905D01*
X408661D01*
X145276Y430709D02*
Y440650D01*
X138091Y447835D02*
X145276Y440650D01*
X134843Y447835D02*
X138091D01*
X125197Y457480D02*
X134843Y447835D01*
X100000Y100000D02*
X493701D01*
Y493701D01*
X100000D02*
X493701D01*
X100000Y100000D02*
Y493701D01*
X238976Y100000D02*
Y493701D01*
D28*
X267323Y440945D02*
X268504Y439764D01*
X293307D01*
D32*
X161811Y473032D02*
G03*
X163779Y475000I0J1969D01*
G01*
X159843D02*
G03*
X161811Y473032I1969J0D01*
G01*
Y482874D02*
G03*
X159843Y480905I0J-1969D01*
G01*
X163779D02*
G03*
X161811Y482874I-1969J0D01*
G01*
X116929Y473032D02*
G03*
X118898Y475000I0J1969D01*
G01*
X114961D02*
G03*
X116929Y473032I1969J0D01*
G01*
Y482874D02*
G03*
X114961Y480905I0J-1969D01*
G01*
X118898D02*
G03*
X116929Y482874I-1969J0D01*
G01*
X321654D02*
G03*
X319685Y484842I-1969J0D01*
G01*
D02*
G03*
X317717Y482874I0J-1969D01*
G01*
Y476968D02*
G03*
X319685Y475000I1969J0D01*
G01*
D02*
G03*
X321654Y476968I0J1969D01*
G01*
X366535Y482874D02*
G03*
X364567Y484842I-1969J0D01*
G01*
D02*
G03*
X362598Y482874I0J-1969D01*
G01*
Y476968D02*
G03*
X364567Y475000I1969J0D01*
G01*
D02*
G03*
X366535Y476968I0J1969D01*
G01*
X226772D02*
G03*
X228740Y478937I0J1969D01*
G01*
X224803D02*
G03*
X226772Y476968I1969J0D01*
G01*
Y486811D02*
G03*
X224803Y484842I0J-1969D01*
G01*
X228740D02*
G03*
X226772Y486811I-1969J0D01*
G01*
X181890Y476968D02*
G03*
X183858Y478937I0J1969D01*
G01*
X179921D02*
G03*
X181890Y476968I1969J0D01*
G01*
Y486811D02*
G03*
X179921Y484842I0J-1969D01*
G01*
X183858D02*
G03*
X181890Y486811I-1969J0D01*
G01*
X260630Y484842D02*
G03*
X258661Y486811I-1969J0D01*
G01*
D02*
G03*
X256693Y484842I0J-1969D01*
G01*
Y478937D02*
G03*
X258661Y476968I1969J0D01*
G01*
D02*
G03*
X260630Y478937I0J1969D01*
G01*
X305512Y484842D02*
G03*
X303543Y486811I-1969J0D01*
G01*
D02*
G03*
X301575Y484842I0J-1969D01*
G01*
Y478937D02*
G03*
X303543Y476968I1969J0D01*
G01*
D02*
G03*
X305512Y478937I0J1969D01*
G01*
X159843Y475000D02*
Y480905D01*
X163779Y475000D02*
Y480905D01*
X114961Y475000D02*
Y480905D01*
X118898Y475000D02*
Y480905D01*
X321654Y476968D02*
Y482874D01*
X317717Y476968D02*
Y482874D01*
X366535Y476968D02*
Y482874D01*
X362598Y476968D02*
Y482874D01*
X224803Y478937D02*
Y484842D01*
X228740Y478937D02*
Y484842D01*
X179921Y478937D02*
Y484842D01*
X183858Y478937D02*
Y484842D01*
X260630Y478937D02*
Y484842D01*
X256693Y478937D02*
Y484842D01*
X305512Y478937D02*
Y484842D01*
X301575Y478937D02*
Y484842D01*
D33*
X148228Y477953D02*
D03*
X130512D02*
D03*
X333268Y479921D02*
D03*
X350984D02*
D03*
X213189Y481890D02*
D03*
X195472D02*
D03*
X272244D02*
D03*
X289961D02*
D03*
D34*
X447441Y482087D02*
D03*
X476181D02*
D03*
X220669Y406890D02*
D03*
X191929D02*
D03*
D35*
X455512Y461024D02*
D03*
X461811D02*
D03*
X468110D02*
D03*
X458661Y468110D02*
D03*
X464961D02*
D03*
X212598Y427953D02*
D03*
X206299D02*
D03*
X200000D02*
D03*
X209449Y420866D02*
D03*
X203150D02*
D03*
D36*
X451221Y419291D02*
D03*
X473976D02*
D03*
X393347Y416535D02*
D03*
X416102D02*
D03*
X259449Y188150D02*
D03*
Y165394D02*
D03*
X269724Y418898D02*
D03*
X292480D02*
D03*
X259547Y337264D02*
D03*
Y314508D02*
D03*
D37*
X389665Y470965D02*
D03*
X408760D02*
D03*
X352067Y420374D02*
D03*
X332972D02*
D03*
D38*
X410039Y482776D02*
D03*
X388386D02*
D03*
X331693Y408563D02*
D03*
X353346D02*
D03*
D39*
X317323Y122047D02*
D03*
X463189D02*
D03*
Y228740D02*
D03*
X317323D02*
D03*
X317421Y271161D02*
D03*
X463287D02*
D03*
Y377854D02*
D03*
X317421D02*
D03*
D40*
X483661Y211811D02*
D03*
Y142559D02*
D03*
X248780D02*
D03*
Y211811D02*
D03*
X483760Y360925D02*
D03*
Y291673D02*
D03*
X248878D02*
D03*
Y360925D02*
D03*
D41*
X112992Y115472D02*
D03*
Y167205D02*
D03*
Y294606D02*
D03*
Y346339D02*
D03*
Y186339D02*
D03*
Y238071D02*
D03*
D42*
X123661Y127559D02*
D03*
Y137402D02*
D03*
Y145276D02*
D03*
Y306693D02*
D03*
Y316535D02*
D03*
Y324410D02*
D03*
Y198425D02*
D03*
Y208268D02*
D03*
Y216142D02*
D03*
D43*
Y155118D02*
D03*
Y334252D02*
D03*
Y225984D02*
D03*
D44*
X202559Y153740D02*
D03*
Y125000D02*
D03*
X196653Y224606D02*
D03*
Y195866D02*
D03*
D45*
X181496Y145669D02*
D03*
Y139370D02*
D03*
Y133071D02*
D03*
X188583Y142520D02*
D03*
Y136221D02*
D03*
X175591Y216535D02*
D03*
Y210236D02*
D03*
Y203937D02*
D03*
X182677Y213386D02*
D03*
Y207087D02*
D03*
D46*
X192520Y324410D02*
D03*
Y314567D02*
D03*
X182677D02*
D03*
D47*
Y324410D02*
D03*
X145276Y430709D02*
D03*
D48*
X204331Y343110D02*
D03*
Y295866D02*
D03*
X163976Y409055D02*
D03*
X116732D02*
D03*
D49*
X145276Y420866D02*
D03*
X135433D02*
D03*
Y430709D02*
D03*
D50*
X267323Y440945D02*
D03*
X293307Y439764D02*
D03*
X416535Y456299D02*
D03*
X390945Y444095D02*
D03*
X397244Y459449D02*
D03*
X408661Y455905D02*
D03*
X294882Y177953D02*
D03*
X316535Y241732D02*
D03*
X306693D02*
D03*
X200394Y460236D02*
D03*
X125197Y457480D02*
D03*
X306791Y390846D02*
D03*
X316634D02*
D03*
X294980Y327067D02*
D03*
M02*
