G04*
G04 #@! TF.GenerationSoftware,Altium Limited,CircuitStudio,1.5.2 (1.5.2.30)*
G04*
G04 Layer_Color=7318015*
%FSLAX25Y25*%
%MOIN*%
G70*
G01*
G75*
%ADD10R,0.04724X0.07874*%
%ADD12R,0.02362X0.04528*%
%ADD13R,0.01181X0.04528*%
%ADD14R,0.08583X0.07874*%
%ADD15R,0.03543X0.05512*%
%ADD16R,0.01575X0.06890*%
%ADD17R,0.05512X0.09843*%
%ADD18R,0.03543X0.03543*%
%ADD19R,0.03150X0.03150*%
%ADD20R,0.03543X0.03543*%
%ADD21R,0.03150X0.03150*%
%ADD22R,0.03543X0.03150*%
%ADD23R,0.04528X0.02362*%
%ADD24R,0.04528X0.01181*%
%ADD25R,0.07874X0.08583*%
%ADD27C,0.01000*%
%ADD32C,0.00000*%
%ADD54R,0.05118X0.11614*%
%ADD55R,0.04724X0.06299*%
%ADD56R,0.01969X0.02756*%
%ADD57R,0.01969X0.02756*%
G36*
X182055Y489759D02*
X182219Y489747D01*
X182383Y489725D01*
X182545Y489695D01*
X182705Y489656D01*
X182863Y489610D01*
X183019Y489555D01*
X183171Y489492D01*
X183320Y489421D01*
X183465Y489342D01*
X183605Y489256D01*
X183741Y489162D01*
X183872Y489062D01*
X183997Y488955D01*
X184117Y488841D01*
X184230Y488722D01*
X184337Y488596D01*
X184438Y488465D01*
X184531Y488330D01*
X184617Y488189D01*
X184696Y488044D01*
X184767Y487895D01*
X184830Y487743D01*
X184885Y487587D01*
X184932Y487429D01*
X184970Y487269D01*
X185001Y487107D01*
X185022Y486943D01*
X185035Y486779D01*
X185039Y486614D01*
Y481890D01*
Y477165D01*
X185035Y477001D01*
X185022Y476836D01*
X185001Y476673D01*
X184970Y476510D01*
X184932Y476350D01*
X184885Y476192D01*
X184830Y476037D01*
X184767Y475884D01*
X184696Y475736D01*
X184617Y475591D01*
X184531Y475450D01*
X184438Y475314D01*
X184337Y475183D01*
X184230Y475058D01*
X184117Y474938D01*
X183997Y474825D01*
X183872Y474718D01*
X183741Y474617D01*
X183605Y474524D01*
X183465Y474438D01*
X183320Y474359D01*
X183171Y474288D01*
X183019Y474225D01*
X182863Y474170D01*
X182705Y474123D01*
X182545Y474085D01*
X182383Y474054D01*
X182219Y474033D01*
X182055Y474020D01*
X181890Y474016D01*
X181725Y474020D01*
X181561Y474033D01*
X181397Y474054D01*
X181235Y474085D01*
X181075Y474123D01*
X180917Y474170D01*
X180761Y474225D01*
X180609Y474288D01*
X180460Y474359D01*
X180315Y474438D01*
X180174Y474524D01*
X180038Y474617D01*
X179908Y474718D01*
X179782Y474825D01*
X179663Y474938D01*
X179549Y475058D01*
X179442Y475183D01*
X179342Y475314D01*
X179248Y475450D01*
X179162Y475591D01*
X179083Y475736D01*
X179013Y475884D01*
X178949Y476037D01*
X178894Y476192D01*
X178848Y476350D01*
X178809Y476510D01*
X178779Y476673D01*
X178757Y476836D01*
X178744Y477001D01*
X178740Y477165D01*
Y481890D01*
Y486614D01*
X178744Y486779D01*
X178757Y486943D01*
X178779Y487107D01*
X178809Y487269D01*
X178848Y487429D01*
X178894Y487587D01*
X178949Y487743D01*
X179013Y487895D01*
X179083Y488044D01*
X179162Y488189D01*
X179248Y488330D01*
X179342Y488465D01*
X179442Y488596D01*
X179549Y488722D01*
X179663Y488841D01*
X179782Y488955D01*
X179908Y489062D01*
X180038Y489162D01*
X180174Y489256D01*
X180315Y489342D01*
X180460Y489421D01*
X180609Y489492D01*
X180761Y489555D01*
X180917Y489610D01*
X181075Y489656D01*
X181235Y489695D01*
X181397Y489725D01*
X181561Y489747D01*
X181725Y489759D01*
X181890Y489764D01*
X182055Y489759D01*
D02*
G37*
G36*
X226937D02*
X227101Y489747D01*
X227264Y489725D01*
X227427Y489695D01*
X227587Y489656D01*
X227745Y489610D01*
X227900Y489555D01*
X228053Y489492D01*
X228202Y489421D01*
X228346Y489342D01*
X228487Y489256D01*
X228623Y489162D01*
X228754Y489062D01*
X228879Y488955D01*
X228999Y488841D01*
X229112Y488722D01*
X229219Y488596D01*
X229320Y488465D01*
X229413Y488330D01*
X229499Y488189D01*
X229578Y488044D01*
X229649Y487895D01*
X229712Y487743D01*
X229767Y487587D01*
X229814Y487429D01*
X229852Y487269D01*
X229883Y487107D01*
X229904Y486943D01*
X229917Y486779D01*
X229921Y486614D01*
Y481890D01*
Y477165D01*
X229917Y477001D01*
X229904Y476836D01*
X229883Y476673D01*
X229852Y476510D01*
X229814Y476350D01*
X229767Y476192D01*
X229712Y476037D01*
X229649Y475884D01*
X229578Y475736D01*
X229499Y475591D01*
X229413Y475450D01*
X229320Y475314D01*
X229219Y475183D01*
X229112Y475058D01*
X228999Y474938D01*
X228879Y474825D01*
X228754Y474718D01*
X228623Y474617D01*
X228487Y474524D01*
X228346Y474438D01*
X228202Y474359D01*
X228053Y474288D01*
X227900Y474225D01*
X227745Y474170D01*
X227587Y474123D01*
X227427Y474085D01*
X227264Y474054D01*
X227101Y474033D01*
X226937Y474020D01*
X226772Y474016D01*
X226607Y474020D01*
X226442Y474033D01*
X226279Y474054D01*
X226117Y474085D01*
X225957Y474123D01*
X225798Y474170D01*
X225643Y474225D01*
X225491Y474288D01*
X225342Y474359D01*
X225197Y474438D01*
X225056Y474524D01*
X224920Y474617D01*
X224790Y474718D01*
X224664Y474825D01*
X224545Y474938D01*
X224431Y475058D01*
X224324Y475183D01*
X224224Y475314D01*
X224130Y475450D01*
X224044Y475591D01*
X223965Y475736D01*
X223894Y475884D01*
X223831Y476037D01*
X223776Y476192D01*
X223729Y476350D01*
X223691Y476510D01*
X223661Y476673D01*
X223639Y476836D01*
X223626Y477001D01*
X223622Y477165D01*
Y481890D01*
Y486614D01*
X223626Y486779D01*
X223639Y486943D01*
X223661Y487107D01*
X223691Y487269D01*
X223729Y487429D01*
X223776Y487587D01*
X223831Y487743D01*
X223894Y487895D01*
X223965Y488044D01*
X224044Y488189D01*
X224130Y488330D01*
X224224Y488465D01*
X224324Y488596D01*
X224431Y488722D01*
X224545Y488841D01*
X224664Y488955D01*
X224790Y489062D01*
X224920Y489162D01*
X225056Y489256D01*
X225197Y489342D01*
X225342Y489421D01*
X225491Y489492D01*
X225643Y489555D01*
X225798Y489610D01*
X225957Y489656D01*
X226117Y489695D01*
X226279Y489725D01*
X226442Y489747D01*
X226607Y489759D01*
X226772Y489764D01*
X226937Y489759D01*
D02*
G37*
G36*
X258826D02*
X258991Y489747D01*
X259154Y489725D01*
X259316Y489695D01*
X259477Y489656D01*
X259635Y489610D01*
X259790Y489555D01*
X259943Y489492D01*
X260091Y489421D01*
X260236Y489342D01*
X260377Y489256D01*
X260513Y489162D01*
X260644Y489062D01*
X260769Y488955D01*
X260889Y488841D01*
X261002Y488722D01*
X261109Y488596D01*
X261210Y488465D01*
X261303Y488330D01*
X261389Y488189D01*
X261468Y488044D01*
X261539Y487895D01*
X261602Y487743D01*
X261657Y487587D01*
X261704Y487429D01*
X261742Y487269D01*
X261772Y487107D01*
X261794Y486943D01*
X261807Y486779D01*
X261811Y486614D01*
Y481890D01*
Y477165D01*
X261807Y477001D01*
X261794Y476836D01*
X261772Y476673D01*
X261742Y476510D01*
X261704Y476350D01*
X261657Y476192D01*
X261602Y476037D01*
X261539Y475884D01*
X261468Y475736D01*
X261389Y475591D01*
X261303Y475450D01*
X261210Y475314D01*
X261109Y475183D01*
X261002Y475058D01*
X260889Y474938D01*
X260769Y474825D01*
X260644Y474718D01*
X260513Y474617D01*
X260377Y474524D01*
X260236Y474438D01*
X260091Y474359D01*
X259943Y474288D01*
X259790Y474225D01*
X259635Y474170D01*
X259477Y474123D01*
X259316Y474085D01*
X259154Y474054D01*
X258991Y474033D01*
X258826Y474020D01*
X258661Y474016D01*
X258497Y474020D01*
X258332Y474033D01*
X258169Y474054D01*
X258007Y474085D01*
X257846Y474123D01*
X257688Y474170D01*
X257533Y474225D01*
X257380Y474288D01*
X257231Y474359D01*
X257087Y474438D01*
X256946Y474524D01*
X256810Y474617D01*
X256679Y474718D01*
X256554Y474825D01*
X256434Y474938D01*
X256321Y475058D01*
X256214Y475183D01*
X256113Y475314D01*
X256020Y475450D01*
X255934Y475591D01*
X255855Y475736D01*
X255784Y475884D01*
X255721Y476037D01*
X255666Y476192D01*
X255619Y476350D01*
X255581Y476510D01*
X255551Y476673D01*
X255529Y476836D01*
X255516Y477001D01*
X255512Y477165D01*
Y481890D01*
Y486614D01*
X255516Y486779D01*
X255529Y486943D01*
X255551Y487107D01*
X255581Y487269D01*
X255619Y487429D01*
X255666Y487587D01*
X255721Y487743D01*
X255784Y487895D01*
X255855Y488044D01*
X255934Y488189D01*
X256020Y488330D01*
X256113Y488465D01*
X256214Y488596D01*
X256321Y488722D01*
X256434Y488841D01*
X256554Y488955D01*
X256679Y489062D01*
X256810Y489162D01*
X256946Y489256D01*
X257087Y489342D01*
X257231Y489421D01*
X257380Y489492D01*
X257533Y489555D01*
X257688Y489610D01*
X257846Y489656D01*
X258007Y489695D01*
X258169Y489725D01*
X258332Y489747D01*
X258497Y489759D01*
X258661Y489764D01*
X258826Y489759D01*
D02*
G37*
G36*
X364732Y487791D02*
X364896Y487778D01*
X365060Y487756D01*
X365222Y487726D01*
X365382Y487688D01*
X365540Y487641D01*
X365696Y487586D01*
X365848Y487523D01*
X365997Y487452D01*
X366142Y487373D01*
X366282Y487287D01*
X366418Y487194D01*
X366549Y487093D01*
X366674Y486986D01*
X366794Y486873D01*
X366908Y486753D01*
X367015Y486628D01*
X367115Y486497D01*
X367208Y486361D01*
X367295Y486221D01*
X367373Y486076D01*
X367444Y485927D01*
X367507Y485774D01*
X367562Y485619D01*
X367609Y485461D01*
X367648Y485300D01*
X367678Y485138D01*
X367699Y484975D01*
X367712Y484810D01*
X367717Y484646D01*
Y479921D01*
Y475197D01*
X367712Y475032D01*
X367699Y474868D01*
X367678Y474704D01*
X367648Y474542D01*
X367609Y474382D01*
X367562Y474224D01*
X367507Y474068D01*
X367444Y473916D01*
X367373Y473767D01*
X367295Y473622D01*
X367208Y473482D01*
X367115Y473346D01*
X367015Y473215D01*
X366908Y473089D01*
X366794Y472970D01*
X366674Y472856D01*
X366549Y472749D01*
X366418Y472649D01*
X366282Y472555D01*
X366142Y472469D01*
X365997Y472391D01*
X365848Y472320D01*
X365696Y472256D01*
X365540Y472201D01*
X365382Y472155D01*
X365222Y472116D01*
X365060Y472086D01*
X364896Y472064D01*
X364732Y472052D01*
X364567Y472047D01*
X364402Y472052D01*
X364238Y472064D01*
X364074Y472086D01*
X363912Y472116D01*
X363752Y472155D01*
X363594Y472201D01*
X363438Y472256D01*
X363286Y472320D01*
X363137Y472391D01*
X362992Y472469D01*
X362852Y472555D01*
X362716Y472649D01*
X362585Y472749D01*
X362459Y472856D01*
X362340Y472970D01*
X362226Y473089D01*
X362119Y473215D01*
X362019Y473346D01*
X361925Y473482D01*
X361839Y473622D01*
X361761Y473767D01*
X361690Y473916D01*
X361627Y474068D01*
X361572Y474224D01*
X361525Y474382D01*
X361486Y474542D01*
X361456Y474704D01*
X361435Y474868D01*
X361422Y475032D01*
X361417Y475197D01*
Y479921D01*
Y484646D01*
X361422Y484810D01*
X361435Y484975D01*
X361456Y485138D01*
X361486Y485300D01*
X361525Y485461D01*
X361572Y485619D01*
X361627Y485774D01*
X361690Y485927D01*
X361761Y486076D01*
X361839Y486221D01*
X361925Y486361D01*
X362019Y486497D01*
X362119Y486628D01*
X362226Y486753D01*
X362340Y486873D01*
X362459Y486986D01*
X362585Y487093D01*
X362716Y487194D01*
X362852Y487287D01*
X362992Y487373D01*
X363137Y487452D01*
X363286Y487523D01*
X363438Y487586D01*
X363594Y487641D01*
X363752Y487688D01*
X363912Y487726D01*
X364074Y487756D01*
X364238Y487778D01*
X364402Y487791D01*
X364567Y487795D01*
X364732Y487791D01*
D02*
G37*
G36*
X117094Y485822D02*
X117258Y485810D01*
X117422Y485788D01*
X117584Y485758D01*
X117744Y485719D01*
X117902Y485673D01*
X118058Y485618D01*
X118210Y485555D01*
X118359Y485484D01*
X118504Y485405D01*
X118644Y485319D01*
X118780Y485225D01*
X118911Y485125D01*
X119037Y485018D01*
X119156Y484904D01*
X119270Y484785D01*
X119377Y484659D01*
X119477Y484528D01*
X119571Y484393D01*
X119657Y484252D01*
X119735Y484107D01*
X119806Y483958D01*
X119870Y483806D01*
X119925Y483650D01*
X119971Y483492D01*
X120010Y483332D01*
X120040Y483170D01*
X120062Y483006D01*
X120074Y482842D01*
X120079Y482677D01*
Y477953D01*
Y473228D01*
X120074Y473064D01*
X120062Y472899D01*
X120040Y472736D01*
X120010Y472574D01*
X119971Y472413D01*
X119925Y472255D01*
X119870Y472100D01*
X119806Y471947D01*
X119735Y471799D01*
X119657Y471654D01*
X119571Y471513D01*
X119477Y471377D01*
X119377Y471246D01*
X119270Y471121D01*
X119156Y471001D01*
X119037Y470888D01*
X118911Y470781D01*
X118780Y470680D01*
X118644Y470587D01*
X118504Y470501D01*
X118359Y470422D01*
X118210Y470351D01*
X118058Y470288D01*
X117902Y470233D01*
X117744Y470186D01*
X117584Y470148D01*
X117422Y470118D01*
X117258Y470096D01*
X117094Y470083D01*
X116929Y470079D01*
X116764Y470083D01*
X116600Y470096D01*
X116436Y470118D01*
X116274Y470148D01*
X116114Y470186D01*
X115956Y470233D01*
X115800Y470288D01*
X115648Y470351D01*
X115499Y470422D01*
X115354Y470501D01*
X115214Y470587D01*
X115078Y470680D01*
X114947Y470781D01*
X114822Y470888D01*
X114702Y471001D01*
X114588Y471121D01*
X114481Y471246D01*
X114381Y471377D01*
X114288Y471513D01*
X114201Y471654D01*
X114123Y471799D01*
X114052Y471947D01*
X113989Y472100D01*
X113934Y472255D01*
X113887Y472413D01*
X113848Y472574D01*
X113818Y472736D01*
X113797Y472899D01*
X113784Y473064D01*
X113779Y473228D01*
Y477953D01*
Y482677D01*
X113784Y482842D01*
X113797Y483006D01*
X113818Y483170D01*
X113848Y483332D01*
X113887Y483492D01*
X113934Y483650D01*
X113989Y483806D01*
X114052Y483958D01*
X114123Y484107D01*
X114201Y484252D01*
X114288Y484393D01*
X114381Y484528D01*
X114481Y484659D01*
X114588Y484785D01*
X114702Y484904D01*
X114822Y485018D01*
X114947Y485125D01*
X115078Y485225D01*
X115214Y485319D01*
X115354Y485405D01*
X115499Y485484D01*
X115648Y485555D01*
X115800Y485618D01*
X115956Y485673D01*
X116114Y485719D01*
X116274Y485758D01*
X116436Y485788D01*
X116600Y485810D01*
X116764Y485822D01*
X116929Y485827D01*
X117094Y485822D01*
D02*
G37*
G36*
X161976D02*
X162140Y485810D01*
X162304Y485788D01*
X162466Y485758D01*
X162626Y485719D01*
X162784Y485673D01*
X162940Y485618D01*
X163092Y485555D01*
X163241Y485484D01*
X163386Y485405D01*
X163526Y485319D01*
X163662Y485225D01*
X163793Y485125D01*
X163918Y485018D01*
X164038Y484904D01*
X164152Y484785D01*
X164259Y484659D01*
X164359Y484528D01*
X164453Y484393D01*
X164539Y484252D01*
X164617Y484107D01*
X164688Y483958D01*
X164751Y483806D01*
X164806Y483650D01*
X164853Y483492D01*
X164892Y483332D01*
X164922Y483170D01*
X164943Y483006D01*
X164956Y482842D01*
X164961Y482677D01*
Y477953D01*
Y473228D01*
X164956Y473064D01*
X164943Y472899D01*
X164922Y472736D01*
X164892Y472574D01*
X164853Y472413D01*
X164806Y472255D01*
X164751Y472100D01*
X164688Y471947D01*
X164617Y471799D01*
X164539Y471654D01*
X164453Y471513D01*
X164359Y471377D01*
X164259Y471246D01*
X164152Y471121D01*
X164038Y471001D01*
X163918Y470888D01*
X163793Y470781D01*
X163662Y470680D01*
X163526Y470587D01*
X163386Y470501D01*
X163241Y470422D01*
X163092Y470351D01*
X162940Y470288D01*
X162784Y470233D01*
X162626Y470186D01*
X162466Y470148D01*
X162304Y470118D01*
X162140Y470096D01*
X161976Y470083D01*
X161811Y470079D01*
X161646Y470083D01*
X161482Y470096D01*
X161318Y470118D01*
X161156Y470148D01*
X160996Y470186D01*
X160838Y470233D01*
X160682Y470288D01*
X160530Y470351D01*
X160381Y470422D01*
X160236Y470501D01*
X160096Y470587D01*
X159960Y470680D01*
X159829Y470781D01*
X159704Y470888D01*
X159584Y471001D01*
X159470Y471121D01*
X159363Y471246D01*
X159263Y471377D01*
X159169Y471513D01*
X159083Y471654D01*
X159005Y471799D01*
X158934Y471947D01*
X158871Y472100D01*
X158816Y472255D01*
X158769Y472413D01*
X158730Y472574D01*
X158700Y472736D01*
X158679Y472899D01*
X158666Y473064D01*
X158661Y473228D01*
Y477953D01*
Y482677D01*
X158666Y482842D01*
X158679Y483006D01*
X158700Y483170D01*
X158730Y483332D01*
X158769Y483492D01*
X158816Y483650D01*
X158871Y483806D01*
X158934Y483958D01*
X159005Y484107D01*
X159083Y484252D01*
X159169Y484393D01*
X159263Y484528D01*
X159363Y484659D01*
X159470Y484785D01*
X159584Y484904D01*
X159704Y485018D01*
X159829Y485125D01*
X159960Y485225D01*
X160096Y485319D01*
X160236Y485405D01*
X160381Y485484D01*
X160530Y485555D01*
X160682Y485618D01*
X160838Y485673D01*
X160996Y485719D01*
X161156Y485758D01*
X161318Y485788D01*
X161482Y485810D01*
X161646Y485822D01*
X161811Y485827D01*
X161976Y485822D01*
D02*
G37*
G36*
X319850Y487791D02*
X320014Y487778D01*
X320178Y487756D01*
X320340Y487726D01*
X320500Y487688D01*
X320658Y487641D01*
X320814Y487586D01*
X320966Y487523D01*
X321115Y487452D01*
X321260Y487373D01*
X321400Y487287D01*
X321536Y487194D01*
X321667Y487093D01*
X321793Y486986D01*
X321912Y486873D01*
X322026Y486753D01*
X322133Y486628D01*
X322233Y486497D01*
X322326Y486361D01*
X322413Y486221D01*
X322491Y486076D01*
X322562Y485927D01*
X322625Y485774D01*
X322680Y485619D01*
X322727Y485461D01*
X322766Y485300D01*
X322796Y485138D01*
X322817Y484975D01*
X322830Y484810D01*
X322835Y484646D01*
Y479921D01*
Y475197D01*
X322830Y475032D01*
X322817Y474868D01*
X322796Y474704D01*
X322766Y474542D01*
X322727Y474382D01*
X322680Y474224D01*
X322625Y474068D01*
X322562Y473916D01*
X322491Y473767D01*
X322413Y473622D01*
X322326Y473482D01*
X322233Y473346D01*
X322133Y473215D01*
X322026Y473089D01*
X321912Y472970D01*
X321793Y472856D01*
X321667Y472749D01*
X321536Y472649D01*
X321400Y472555D01*
X321260Y472469D01*
X321115Y472391D01*
X320966Y472320D01*
X320814Y472256D01*
X320658Y472201D01*
X320500Y472155D01*
X320340Y472116D01*
X320178Y472086D01*
X320014Y472064D01*
X319850Y472052D01*
X319685Y472047D01*
X319520Y472052D01*
X319356Y472064D01*
X319192Y472086D01*
X319030Y472116D01*
X318870Y472155D01*
X318712Y472201D01*
X318556Y472256D01*
X318404Y472320D01*
X318255Y472391D01*
X318110Y472469D01*
X317970Y472555D01*
X317834Y472649D01*
X317703Y472749D01*
X317578Y472856D01*
X317458Y472970D01*
X317344Y473089D01*
X317237Y473215D01*
X317137Y473346D01*
X317044Y473482D01*
X316957Y473622D01*
X316879Y473767D01*
X316808Y473916D01*
X316745Y474068D01*
X316690Y474224D01*
X316643Y474382D01*
X316604Y474542D01*
X316574Y474704D01*
X316553Y474868D01*
X316540Y475032D01*
X316535Y475197D01*
Y479921D01*
Y484646D01*
X316540Y484810D01*
X316553Y484975D01*
X316574Y485138D01*
X316604Y485300D01*
X316643Y485461D01*
X316690Y485619D01*
X316745Y485774D01*
X316808Y485927D01*
X316879Y486076D01*
X316957Y486221D01*
X317044Y486361D01*
X317137Y486497D01*
X317237Y486628D01*
X317344Y486753D01*
X317458Y486873D01*
X317578Y486986D01*
X317703Y487093D01*
X317834Y487194D01*
X317970Y487287D01*
X318110Y487373D01*
X318255Y487452D01*
X318404Y487523D01*
X318556Y487586D01*
X318712Y487641D01*
X318870Y487688D01*
X319030Y487726D01*
X319192Y487756D01*
X319356Y487778D01*
X319520Y487791D01*
X319685Y487795D01*
X319850Y487791D01*
D02*
G37*
G36*
X303708Y489759D02*
X303872Y489747D01*
X304036Y489725D01*
X304198Y489695D01*
X304359Y489656D01*
X304517Y489610D01*
X304672Y489555D01*
X304824Y489492D01*
X304973Y489421D01*
X305118Y489342D01*
X305259Y489256D01*
X305395Y489162D01*
X305525Y489062D01*
X305651Y488955D01*
X305770Y488841D01*
X305884Y488722D01*
X305991Y488596D01*
X306091Y488465D01*
X306185Y488330D01*
X306271Y488189D01*
X306350Y488044D01*
X306421Y487895D01*
X306484Y487743D01*
X306539Y487587D01*
X306586Y487429D01*
X306624Y487269D01*
X306654Y487107D01*
X306676Y486943D01*
X306689Y486779D01*
X306693Y486614D01*
Y481890D01*
Y477165D01*
X306689Y477001D01*
X306676Y476836D01*
X306654Y476673D01*
X306624Y476510D01*
X306586Y476350D01*
X306539Y476192D01*
X306484Y476037D01*
X306421Y475884D01*
X306350Y475736D01*
X306271Y475591D01*
X306185Y475450D01*
X306091Y475314D01*
X305991Y475183D01*
X305884Y475058D01*
X305770Y474938D01*
X305651Y474825D01*
X305525Y474718D01*
X305395Y474617D01*
X305259Y474524D01*
X305118Y474438D01*
X304973Y474359D01*
X304824Y474288D01*
X304672Y474225D01*
X304517Y474170D01*
X304359Y474123D01*
X304198Y474085D01*
X304036Y474054D01*
X303872Y474033D01*
X303708Y474020D01*
X303543Y474016D01*
X303379Y474020D01*
X303214Y474033D01*
X303051Y474054D01*
X302888Y474085D01*
X302728Y474123D01*
X302570Y474170D01*
X302415Y474225D01*
X302262Y474288D01*
X302113Y474359D01*
X301969Y474438D01*
X301828Y474524D01*
X301692Y474617D01*
X301561Y474718D01*
X301436Y474825D01*
X301316Y474938D01*
X301203Y475058D01*
X301096Y475183D01*
X300995Y475314D01*
X300902Y475450D01*
X300816Y475591D01*
X300737Y475736D01*
X300666Y475884D01*
X300603Y476037D01*
X300548Y476192D01*
X300501Y476350D01*
X300463Y476510D01*
X300432Y476673D01*
X300411Y476836D01*
X300398Y477001D01*
X300394Y477165D01*
Y481890D01*
Y486614D01*
X300398Y486779D01*
X300411Y486943D01*
X300432Y487107D01*
X300463Y487269D01*
X300501Y487429D01*
X300548Y487587D01*
X300603Y487743D01*
X300666Y487895D01*
X300737Y488044D01*
X300816Y488189D01*
X300902Y488330D01*
X300995Y488465D01*
X301096Y488596D01*
X301203Y488722D01*
X301316Y488841D01*
X301436Y488955D01*
X301561Y489062D01*
X301692Y489162D01*
X301828Y489256D01*
X301969Y489342D01*
X302113Y489421D01*
X302262Y489492D01*
X302415Y489555D01*
X302570Y489610D01*
X302728Y489656D01*
X302888Y489695D01*
X303051Y489725D01*
X303214Y489747D01*
X303379Y489759D01*
X303543Y489764D01*
X303708Y489759D01*
D02*
G37*
%LPC*%
G36*
X226772Y486811D02*
X226669Y486808D01*
X226566Y486800D01*
X226464Y486787D01*
X226362Y486768D01*
X226262Y486744D01*
X226163Y486715D01*
X226066Y486680D01*
X225971Y486641D01*
X225878Y486596D01*
X225787Y486547D01*
X225699Y486493D01*
X225615Y486435D01*
X225533Y486372D01*
X225454Y486305D01*
X225380Y486235D01*
X225309Y486160D01*
X225242Y486081D01*
X225179Y486000D01*
X225121Y485915D01*
X225067Y485827D01*
X225018Y485736D01*
X224973Y485643D01*
X224934Y485548D01*
X224900Y485451D01*
X224870Y485352D01*
X224846Y485252D01*
X224827Y485150D01*
X224814Y485048D01*
X224806Y484945D01*
X224803Y484842D01*
Y481890D01*
Y478937D01*
X224806Y478834D01*
X224814Y478731D01*
X224827Y478629D01*
X224846Y478528D01*
X224870Y478428D01*
X224900Y478329D01*
X224934Y478232D01*
X224973Y478136D01*
X225018Y478043D01*
X225067Y477953D01*
X225121Y477865D01*
X225179Y477780D01*
X225242Y477698D01*
X225309Y477620D01*
X225380Y477545D01*
X225454Y477474D01*
X225533Y477407D01*
X225615Y477344D01*
X225699Y477286D01*
X225787Y477232D01*
X225878Y477183D01*
X225971Y477139D01*
X226066Y477099D01*
X226163Y477065D01*
X226262Y477036D01*
X226362Y477011D01*
X226464Y476993D01*
X226566Y476979D01*
X226669Y476971D01*
X226772Y476968D01*
X226875Y476971D01*
X226977Y476979D01*
X227080Y476993D01*
X227181Y477011D01*
X227281Y477036D01*
X227380Y477065D01*
X227477Y477099D01*
X227572Y477139D01*
X227665Y477183D01*
X227756Y477232D01*
X227844Y477286D01*
X227929Y477344D01*
X228011Y477407D01*
X228089Y477474D01*
X228164Y477545D01*
X228235Y477620D01*
X228302Y477698D01*
X228364Y477780D01*
X228423Y477865D01*
X228476Y477953D01*
X228526Y478043D01*
X228570Y478136D01*
X228609Y478232D01*
X228644Y478329D01*
X228673Y478428D01*
X228697Y478528D01*
X228716Y478629D01*
X228729Y478731D01*
X228737Y478834D01*
X228740Y478937D01*
Y481890D01*
Y484842D01*
X228737Y484945D01*
X228729Y485048D01*
X228716Y485150D01*
X228697Y485252D01*
X228673Y485352D01*
X228644Y485451D01*
X228609Y485548D01*
X228570Y485643D01*
X228526Y485736D01*
X228476Y485827D01*
X228423Y485915D01*
X228364Y486000D01*
X228302Y486081D01*
X228235Y486160D01*
X228164Y486235D01*
X228089Y486305D01*
X228011Y486372D01*
X227929Y486435D01*
X227844Y486493D01*
X227756Y486547D01*
X227665Y486596D01*
X227572Y486641D01*
X227477Y486680D01*
X227380Y486715D01*
X227281Y486744D01*
X227181Y486768D01*
X227080Y486787D01*
X226977Y486800D01*
X226875Y486808D01*
X226772Y486811D01*
D02*
G37*
G36*
X181890D02*
X181787Y486808D01*
X181684Y486800D01*
X181582Y486787D01*
X181481Y486768D01*
X181380Y486744D01*
X181281Y486715D01*
X181184Y486680D01*
X181089Y486641D01*
X180996Y486596D01*
X180905Y486547D01*
X180818Y486493D01*
X180733Y486435D01*
X180651Y486372D01*
X180573Y486305D01*
X180498Y486235D01*
X180427Y486160D01*
X180360Y486081D01*
X180297Y486000D01*
X180239Y485915D01*
X180185Y485827D01*
X180136Y485736D01*
X180092Y485643D01*
X180052Y485548D01*
X180018Y485451D01*
X179988Y485352D01*
X179964Y485252D01*
X179946Y485150D01*
X179932Y485048D01*
X179924Y484945D01*
X179921Y484842D01*
Y481890D01*
Y478937D01*
X179924Y478834D01*
X179932Y478731D01*
X179946Y478629D01*
X179964Y478528D01*
X179988Y478428D01*
X180018Y478329D01*
X180052Y478232D01*
X180092Y478136D01*
X180136Y478043D01*
X180185Y477953D01*
X180239Y477865D01*
X180297Y477780D01*
X180360Y477698D01*
X180427Y477620D01*
X180498Y477545D01*
X180573Y477474D01*
X180651Y477407D01*
X180733Y477344D01*
X180818Y477286D01*
X180905Y477232D01*
X180996Y477183D01*
X181089Y477139D01*
X181184Y477099D01*
X181281Y477065D01*
X181380Y477036D01*
X181481Y477011D01*
X181582Y476993D01*
X181684Y476979D01*
X181787Y476971D01*
X181890Y476968D01*
X181993Y476971D01*
X182096Y476979D01*
X182198Y476993D01*
X182299Y477011D01*
X182399Y477036D01*
X182498Y477065D01*
X182595Y477099D01*
X182690Y477139D01*
X182783Y477183D01*
X182874Y477232D01*
X182962Y477286D01*
X183047Y477344D01*
X183129Y477407D01*
X183207Y477474D01*
X183282Y477545D01*
X183353Y477620D01*
X183420Y477698D01*
X183482Y477780D01*
X183541Y477865D01*
X183595Y477953D01*
X183644Y478043D01*
X183688Y478136D01*
X183728Y478232D01*
X183762Y478329D01*
X183791Y478428D01*
X183815Y478528D01*
X183834Y478629D01*
X183847Y478731D01*
X183856Y478834D01*
X183858Y478937D01*
Y481890D01*
Y484842D01*
X183856Y484945D01*
X183847Y485048D01*
X183834Y485150D01*
X183815Y485252D01*
X183791Y485352D01*
X183762Y485451D01*
X183728Y485548D01*
X183688Y485643D01*
X183644Y485736D01*
X183595Y485827D01*
X183541Y485915D01*
X183482Y486000D01*
X183420Y486081D01*
X183353Y486160D01*
X183282Y486235D01*
X183207Y486305D01*
X183129Y486372D01*
X183047Y486435D01*
X182962Y486493D01*
X182874Y486547D01*
X182783Y486596D01*
X182690Y486641D01*
X182595Y486680D01*
X182498Y486715D01*
X182399Y486744D01*
X182299Y486768D01*
X182198Y486787D01*
X182096Y486800D01*
X181993Y486808D01*
X181890Y486811D01*
D02*
G37*
G36*
X303543D02*
X303440Y486808D01*
X303338Y486800D01*
X303235Y486787D01*
X303134Y486768D01*
X303034Y486744D01*
X302935Y486715D01*
X302838Y486680D01*
X302743Y486641D01*
X302650Y486596D01*
X302559Y486547D01*
X302471Y486493D01*
X302386Y486435D01*
X302305Y486372D01*
X302226Y486305D01*
X302151Y486235D01*
X302080Y486160D01*
X302013Y486081D01*
X301951Y486000D01*
X301892Y485915D01*
X301838Y485827D01*
X301789Y485736D01*
X301745Y485643D01*
X301706Y485548D01*
X301671Y485451D01*
X301642Y485352D01*
X301618Y485252D01*
X301599Y485150D01*
X301586Y485048D01*
X301577Y484945D01*
X301575Y484842D01*
Y481890D01*
Y478937D01*
X301577Y478834D01*
X301586Y478731D01*
X301599Y478629D01*
X301618Y478528D01*
X301642Y478428D01*
X301671Y478329D01*
X301706Y478232D01*
X301745Y478136D01*
X301789Y478043D01*
X301838Y477953D01*
X301892Y477865D01*
X301951Y477780D01*
X302013Y477698D01*
X302080Y477620D01*
X302151Y477545D01*
X302226Y477474D01*
X302305Y477407D01*
X302386Y477344D01*
X302471Y477286D01*
X302559Y477232D01*
X302650Y477183D01*
X302743Y477139D01*
X302838Y477099D01*
X302935Y477065D01*
X303034Y477036D01*
X303134Y477011D01*
X303235Y476993D01*
X303338Y476979D01*
X303440Y476971D01*
X303543Y476968D01*
X303646Y476971D01*
X303749Y476979D01*
X303851Y476993D01*
X303953Y477011D01*
X304053Y477036D01*
X304152Y477065D01*
X304249Y477099D01*
X304344Y477139D01*
X304437Y477183D01*
X304528Y477232D01*
X304615Y477286D01*
X304700Y477344D01*
X304782Y477407D01*
X304860Y477474D01*
X304935Y477545D01*
X305006Y477620D01*
X305073Y477698D01*
X305136Y477780D01*
X305194Y477865D01*
X305248Y477953D01*
X305297Y478043D01*
X305342Y478136D01*
X305381Y478232D01*
X305416Y478329D01*
X305445Y478428D01*
X305469Y478528D01*
X305488Y478629D01*
X305501Y478731D01*
X305509Y478834D01*
X305512Y478937D01*
Y481890D01*
Y484842D01*
X305509Y484945D01*
X305501Y485048D01*
X305488Y485150D01*
X305469Y485252D01*
X305445Y485352D01*
X305416Y485451D01*
X305381Y485548D01*
X305342Y485643D01*
X305297Y485736D01*
X305248Y485827D01*
X305194Y485915D01*
X305136Y486000D01*
X305073Y486081D01*
X305006Y486160D01*
X304935Y486235D01*
X304860Y486305D01*
X304782Y486372D01*
X304700Y486435D01*
X304615Y486493D01*
X304528Y486547D01*
X304437Y486596D01*
X304344Y486641D01*
X304249Y486680D01*
X304152Y486715D01*
X304053Y486744D01*
X303953Y486768D01*
X303851Y486787D01*
X303749Y486800D01*
X303646Y486808D01*
X303543Y486811D01*
D02*
G37*
G36*
X258661D02*
X258558Y486808D01*
X258456Y486800D01*
X258353Y486787D01*
X258252Y486768D01*
X258152Y486744D01*
X258053Y486715D01*
X257956Y486680D01*
X257861Y486641D01*
X257768Y486596D01*
X257677Y486547D01*
X257589Y486493D01*
X257504Y486435D01*
X257423Y486372D01*
X257344Y486305D01*
X257270Y486235D01*
X257199Y486160D01*
X257132Y486081D01*
X257069Y486000D01*
X257011Y485915D01*
X256957Y485827D01*
X256908Y485736D01*
X256863Y485643D01*
X256824Y485548D01*
X256789Y485451D01*
X256760Y485352D01*
X256736Y485252D01*
X256717Y485150D01*
X256704Y485048D01*
X256696Y484945D01*
X256693Y484842D01*
Y481890D01*
Y478937D01*
X256696Y478834D01*
X256704Y478731D01*
X256717Y478629D01*
X256736Y478528D01*
X256760Y478428D01*
X256789Y478329D01*
X256824Y478232D01*
X256863Y478136D01*
X256908Y478043D01*
X256957Y477953D01*
X257011Y477865D01*
X257069Y477780D01*
X257132Y477698D01*
X257199Y477620D01*
X257270Y477545D01*
X257344Y477474D01*
X257423Y477407D01*
X257504Y477344D01*
X257589Y477286D01*
X257677Y477232D01*
X257768Y477183D01*
X257861Y477139D01*
X257956Y477099D01*
X258053Y477065D01*
X258152Y477036D01*
X258252Y477011D01*
X258353Y476993D01*
X258456Y476979D01*
X258558Y476971D01*
X258661Y476968D01*
X258764Y476971D01*
X258867Y476979D01*
X258969Y476993D01*
X259071Y477011D01*
X259171Y477036D01*
X259270Y477065D01*
X259367Y477099D01*
X259462Y477139D01*
X259555Y477183D01*
X259646Y477232D01*
X259734Y477286D01*
X259819Y477344D01*
X259900Y477407D01*
X259979Y477474D01*
X260053Y477545D01*
X260124Y477620D01*
X260191Y477698D01*
X260254Y477780D01*
X260312Y477865D01*
X260366Y477953D01*
X260415Y478043D01*
X260460Y478136D01*
X260499Y478232D01*
X260534Y478329D01*
X260563Y478428D01*
X260587Y478528D01*
X260606Y478629D01*
X260619Y478731D01*
X260627Y478834D01*
X260630Y478937D01*
Y481890D01*
Y484842D01*
X260627Y484945D01*
X260619Y485048D01*
X260606Y485150D01*
X260587Y485252D01*
X260563Y485352D01*
X260534Y485451D01*
X260499Y485548D01*
X260460Y485643D01*
X260415Y485736D01*
X260366Y485827D01*
X260312Y485915D01*
X260254Y486000D01*
X260191Y486081D01*
X260124Y486160D01*
X260053Y486235D01*
X259979Y486305D01*
X259900Y486372D01*
X259819Y486435D01*
X259734Y486493D01*
X259646Y486547D01*
X259555Y486596D01*
X259462Y486641D01*
X259367Y486680D01*
X259270Y486715D01*
X259171Y486744D01*
X259071Y486768D01*
X258969Y486787D01*
X258867Y486800D01*
X258764Y486808D01*
X258661Y486811D01*
D02*
G37*
G36*
X364567Y484842D02*
X364464Y484840D01*
X364361Y484832D01*
X364259Y484818D01*
X364158Y484799D01*
X364057Y484775D01*
X363959Y484746D01*
X363861Y484712D01*
X363766Y484672D01*
X363673Y484628D01*
X363583Y484579D01*
X363495Y484525D01*
X363410Y484467D01*
X363328Y484404D01*
X363250Y484337D01*
X363175Y484266D01*
X363104Y484191D01*
X363037Y484113D01*
X362974Y484031D01*
X362916Y483946D01*
X362862Y483858D01*
X362813Y483768D01*
X362769Y483675D01*
X362729Y483579D01*
X362695Y483482D01*
X362666Y483384D01*
X362641Y483283D01*
X362623Y483182D01*
X362609Y483080D01*
X362601Y482977D01*
X362598Y482874D01*
Y479921D01*
Y476968D01*
X362601Y476865D01*
X362609Y476763D01*
X362623Y476661D01*
X362641Y476559D01*
X362666Y476459D01*
X362695Y476360D01*
X362729Y476263D01*
X362769Y476168D01*
X362813Y476075D01*
X362862Y475984D01*
X362916Y475896D01*
X362974Y475811D01*
X363037Y475730D01*
X363104Y475651D01*
X363175Y475577D01*
X363250Y475506D01*
X363328Y475439D01*
X363410Y475376D01*
X363495Y475318D01*
X363583Y475264D01*
X363673Y475214D01*
X363766Y475170D01*
X363861Y475131D01*
X363959Y475096D01*
X364057Y475067D01*
X364158Y475043D01*
X364259Y475024D01*
X364361Y475011D01*
X364464Y475003D01*
X364567Y475000D01*
X364670Y475003D01*
X364773Y475011D01*
X364875Y475024D01*
X364976Y475043D01*
X365076Y475067D01*
X365175Y475096D01*
X365272Y475131D01*
X365368Y475170D01*
X365461Y475214D01*
X365551Y475264D01*
X365639Y475318D01*
X365724Y475376D01*
X365806Y475439D01*
X365884Y475506D01*
X365959Y475577D01*
X366030Y475651D01*
X366097Y475730D01*
X366160Y475811D01*
X366218Y475896D01*
X366272Y475984D01*
X366321Y476075D01*
X366365Y476168D01*
X366405Y476263D01*
X366439Y476360D01*
X366468Y476459D01*
X366492Y476559D01*
X366511Y476661D01*
X366525Y476763D01*
X366533Y476865D01*
X366535Y476968D01*
Y479921D01*
Y482874D01*
X366533Y482977D01*
X366525Y483080D01*
X366511Y483182D01*
X366492Y483283D01*
X366468Y483384D01*
X366439Y483482D01*
X366405Y483579D01*
X366365Y483675D01*
X366321Y483768D01*
X366272Y483858D01*
X366218Y483946D01*
X366160Y484031D01*
X366097Y484113D01*
X366030Y484191D01*
X365959Y484266D01*
X365884Y484337D01*
X365806Y484404D01*
X365724Y484467D01*
X365639Y484525D01*
X365551Y484579D01*
X365461Y484628D01*
X365368Y484672D01*
X365272Y484712D01*
X365175Y484746D01*
X365076Y484775D01*
X364976Y484799D01*
X364875Y484818D01*
X364773Y484832D01*
X364670Y484840D01*
X364567Y484842D01*
D02*
G37*
G36*
X319685D02*
X319582Y484840D01*
X319479Y484832D01*
X319377Y484818D01*
X319276Y484799D01*
X319176Y484775D01*
X319077Y484746D01*
X318980Y484712D01*
X318884Y484672D01*
X318791Y484628D01*
X318701Y484579D01*
X318613Y484525D01*
X318528Y484467D01*
X318446Y484404D01*
X318368Y484337D01*
X318293Y484266D01*
X318222Y484191D01*
X318155Y484113D01*
X318092Y484031D01*
X318034Y483946D01*
X317980Y483858D01*
X317931Y483768D01*
X317887Y483675D01*
X317847Y483579D01*
X317813Y483482D01*
X317784Y483384D01*
X317759Y483283D01*
X317741Y483182D01*
X317727Y483080D01*
X317719Y482977D01*
X317717Y482874D01*
Y479921D01*
Y476968D01*
X317719Y476865D01*
X317727Y476763D01*
X317741Y476661D01*
X317759Y476559D01*
X317784Y476459D01*
X317813Y476360D01*
X317847Y476263D01*
X317887Y476168D01*
X317931Y476075D01*
X317980Y475984D01*
X318034Y475896D01*
X318092Y475811D01*
X318155Y475730D01*
X318222Y475651D01*
X318293Y475577D01*
X318368Y475506D01*
X318446Y475439D01*
X318528Y475376D01*
X318613Y475318D01*
X318701Y475264D01*
X318791Y475214D01*
X318884Y475170D01*
X318980Y475131D01*
X319077Y475096D01*
X319176Y475067D01*
X319276Y475043D01*
X319377Y475024D01*
X319479Y475011D01*
X319582Y475003D01*
X319685Y475000D01*
X319788Y475003D01*
X319891Y475011D01*
X319993Y475024D01*
X320094Y475043D01*
X320195Y475067D01*
X320293Y475096D01*
X320391Y475131D01*
X320486Y475170D01*
X320579Y475214D01*
X320669Y475264D01*
X320757Y475318D01*
X320842Y475376D01*
X320924Y475439D01*
X321002Y475506D01*
X321077Y475577D01*
X321148Y475651D01*
X321215Y475730D01*
X321278Y475811D01*
X321336Y475896D01*
X321390Y475984D01*
X321439Y476075D01*
X321483Y476168D01*
X321523Y476263D01*
X321557Y476360D01*
X321586Y476459D01*
X321610Y476559D01*
X321629Y476661D01*
X321643Y476763D01*
X321651Y476865D01*
X321654Y476968D01*
Y479921D01*
Y482874D01*
X321651Y482977D01*
X321643Y483080D01*
X321629Y483182D01*
X321610Y483283D01*
X321586Y483384D01*
X321557Y483482D01*
X321523Y483579D01*
X321483Y483675D01*
X321439Y483768D01*
X321390Y483858D01*
X321336Y483946D01*
X321278Y484031D01*
X321215Y484113D01*
X321148Y484191D01*
X321077Y484266D01*
X321002Y484337D01*
X320924Y484404D01*
X320842Y484467D01*
X320757Y484525D01*
X320669Y484579D01*
X320579Y484628D01*
X320486Y484672D01*
X320391Y484712D01*
X320293Y484746D01*
X320195Y484775D01*
X320094Y484799D01*
X319993Y484818D01*
X319891Y484832D01*
X319788Y484840D01*
X319685Y484842D01*
D02*
G37*
G36*
X116929Y482874D02*
X116826Y482871D01*
X116723Y482863D01*
X116621Y482850D01*
X116520Y482831D01*
X116420Y482807D01*
X116321Y482778D01*
X116224Y482743D01*
X116129Y482704D01*
X116035Y482659D01*
X115945Y482610D01*
X115857Y482556D01*
X115772Y482498D01*
X115690Y482435D01*
X115612Y482368D01*
X115537Y482298D01*
X115466Y482223D01*
X115399Y482144D01*
X115337Y482063D01*
X115278Y481978D01*
X115224Y481890D01*
X115175Y481799D01*
X115131Y481706D01*
X115091Y481611D01*
X115057Y481514D01*
X115028Y481415D01*
X115004Y481315D01*
X114985Y481214D01*
X114971Y481111D01*
X114963Y481008D01*
X114961Y480905D01*
Y477953D01*
Y475000D01*
X114963Y474897D01*
X114971Y474794D01*
X114985Y474692D01*
X115004Y474591D01*
X115028Y474490D01*
X115057Y474392D01*
X115091Y474295D01*
X115131Y474199D01*
X115175Y474106D01*
X115224Y474016D01*
X115278Y473928D01*
X115337Y473843D01*
X115399Y473761D01*
X115466Y473683D01*
X115537Y473608D01*
X115612Y473537D01*
X115690Y473470D01*
X115772Y473407D01*
X115857Y473349D01*
X115945Y473295D01*
X116035Y473246D01*
X116129Y473202D01*
X116224Y473162D01*
X116321Y473128D01*
X116420Y473099D01*
X116520Y473074D01*
X116621Y473056D01*
X116723Y473042D01*
X116826Y473034D01*
X116929Y473032D01*
X117032Y473034D01*
X117135Y473042D01*
X117237Y473056D01*
X117338Y473074D01*
X117439Y473099D01*
X117537Y473128D01*
X117635Y473162D01*
X117730Y473202D01*
X117823Y473246D01*
X117913Y473295D01*
X118001Y473349D01*
X118086Y473407D01*
X118168Y473470D01*
X118246Y473537D01*
X118321Y473608D01*
X118392Y473683D01*
X118459Y473761D01*
X118522Y473843D01*
X118580Y473928D01*
X118634Y474016D01*
X118683Y474106D01*
X118727Y474199D01*
X118767Y474295D01*
X118801Y474392D01*
X118831Y474490D01*
X118855Y474591D01*
X118873Y474692D01*
X118887Y474794D01*
X118895Y474897D01*
X118898Y475000D01*
Y477953D01*
Y480905D01*
X118895Y481008D01*
X118887Y481111D01*
X118873Y481214D01*
X118855Y481315D01*
X118831Y481415D01*
X118801Y481514D01*
X118767Y481611D01*
X118727Y481706D01*
X118683Y481799D01*
X118634Y481890D01*
X118580Y481978D01*
X118522Y482063D01*
X118459Y482144D01*
X118392Y482223D01*
X118321Y482298D01*
X118246Y482368D01*
X118168Y482435D01*
X118086Y482498D01*
X118001Y482556D01*
X117913Y482610D01*
X117823Y482659D01*
X117730Y482704D01*
X117635Y482743D01*
X117537Y482778D01*
X117439Y482807D01*
X117338Y482831D01*
X117237Y482850D01*
X117135Y482863D01*
X117032Y482871D01*
X116929Y482874D01*
D02*
G37*
G36*
X161811D02*
X161708Y482871D01*
X161605Y482863D01*
X161503Y482850D01*
X161402Y482831D01*
X161302Y482807D01*
X161203Y482778D01*
X161106Y482743D01*
X161010Y482704D01*
X160917Y482659D01*
X160827Y482610D01*
X160739Y482556D01*
X160654Y482498D01*
X160572Y482435D01*
X160494Y482368D01*
X160419Y482298D01*
X160348Y482223D01*
X160281Y482144D01*
X160219Y482063D01*
X160160Y481978D01*
X160106Y481890D01*
X160057Y481799D01*
X160013Y481706D01*
X159973Y481611D01*
X159939Y481514D01*
X159910Y481415D01*
X159886Y481315D01*
X159867Y481214D01*
X159853Y481111D01*
X159845Y481008D01*
X159843Y480905D01*
Y477953D01*
Y475000D01*
X159845Y474897D01*
X159853Y474794D01*
X159867Y474692D01*
X159886Y474591D01*
X159910Y474490D01*
X159939Y474392D01*
X159973Y474295D01*
X160013Y474199D01*
X160057Y474106D01*
X160106Y474016D01*
X160160Y473928D01*
X160219Y473843D01*
X160281Y473761D01*
X160348Y473683D01*
X160419Y473608D01*
X160494Y473537D01*
X160572Y473470D01*
X160654Y473407D01*
X160739Y473349D01*
X160827Y473295D01*
X160917Y473246D01*
X161010Y473202D01*
X161106Y473162D01*
X161203Y473128D01*
X161302Y473099D01*
X161402Y473074D01*
X161503Y473056D01*
X161605Y473042D01*
X161708Y473034D01*
X161811Y473032D01*
X161914Y473034D01*
X162017Y473042D01*
X162119Y473056D01*
X162220Y473074D01*
X162320Y473099D01*
X162419Y473128D01*
X162516Y473162D01*
X162612Y473202D01*
X162705Y473246D01*
X162795Y473295D01*
X162883Y473349D01*
X162968Y473407D01*
X163050Y473470D01*
X163128Y473537D01*
X163203Y473608D01*
X163274Y473683D01*
X163341Y473761D01*
X163404Y473843D01*
X163462Y473928D01*
X163516Y474016D01*
X163565Y474106D01*
X163609Y474199D01*
X163649Y474295D01*
X163683Y474392D01*
X163712Y474490D01*
X163736Y474591D01*
X163755Y474692D01*
X163769Y474794D01*
X163777Y474897D01*
X163779Y475000D01*
Y477953D01*
Y480905D01*
X163777Y481008D01*
X163769Y481111D01*
X163755Y481214D01*
X163736Y481315D01*
X163712Y481415D01*
X163683Y481514D01*
X163649Y481611D01*
X163609Y481706D01*
X163565Y481799D01*
X163516Y481890D01*
X163462Y481978D01*
X163404Y482063D01*
X163341Y482144D01*
X163274Y482223D01*
X163203Y482298D01*
X163128Y482368D01*
X163050Y482435D01*
X162968Y482498D01*
X162883Y482556D01*
X162795Y482610D01*
X162705Y482659D01*
X162612Y482704D01*
X162516Y482743D01*
X162419Y482778D01*
X162320Y482807D01*
X162220Y482831D01*
X162119Y482850D01*
X162017Y482863D01*
X161914Y482871D01*
X161811Y482874D01*
D02*
G37*
%LPD*%
D10*
X125591Y467717D02*
D03*
X135433D02*
D03*
X143307D02*
D03*
X153150D02*
D03*
X355906Y469685D02*
D03*
X346063D02*
D03*
X338189D02*
D03*
X328346D02*
D03*
X190551Y471654D02*
D03*
X200394D02*
D03*
X208268D02*
D03*
X218110D02*
D03*
X294882D02*
D03*
X285039D02*
D03*
X277165D02*
D03*
X267323D02*
D03*
D12*
X450000Y423524D02*
D03*
X453150D02*
D03*
X472047D02*
D03*
X475197D02*
D03*
X392126Y420768D02*
D03*
X395276D02*
D03*
X414173D02*
D03*
X417323D02*
D03*
X268504Y423130D02*
D03*
X271654D02*
D03*
X290551D02*
D03*
X293701D02*
D03*
D13*
X455709Y423524D02*
D03*
X469488D02*
D03*
X457677D02*
D03*
X467520D02*
D03*
X459646D02*
D03*
X465551D02*
D03*
X461614D02*
D03*
X463583D02*
D03*
X397835Y420768D02*
D03*
X411614D02*
D03*
X399803D02*
D03*
X409646D02*
D03*
X401772D02*
D03*
X407677D02*
D03*
X403740D02*
D03*
X405709D02*
D03*
X274213Y423130D02*
D03*
X287992D02*
D03*
X276181D02*
D03*
X286024D02*
D03*
X278150D02*
D03*
X284055D02*
D03*
X280118D02*
D03*
X282087D02*
D03*
D14*
X442480Y421260D02*
D03*
X482717D02*
D03*
X442480Y405787D02*
D03*
X482717D02*
D03*
X384606Y418504D02*
D03*
X424843D02*
D03*
X384606Y403031D02*
D03*
X424843D02*
D03*
X260984Y420866D02*
D03*
X301220D02*
D03*
X260984Y405394D02*
D03*
X301220D02*
D03*
D15*
X412894Y470965D02*
D03*
X385630D02*
D03*
X328839Y420374D02*
D03*
X356102D02*
D03*
D16*
X404331Y471654D02*
D03*
X401772D02*
D03*
X399213D02*
D03*
X396654D02*
D03*
X394094D02*
D03*
X337402Y419685D02*
D03*
X339961D02*
D03*
X342520D02*
D03*
X345079D02*
D03*
X347638D02*
D03*
D17*
X395472Y484744D02*
D03*
X402953D02*
D03*
X346260Y406595D02*
D03*
X338779D02*
D03*
D18*
X246457Y109847D02*
D03*
X252756D02*
D03*
X279134Y170083D02*
D03*
X285433D02*
D03*
X278740Y183862D02*
D03*
X285039D02*
D03*
X278838Y332977D02*
D03*
X285138D02*
D03*
X279232Y319197D02*
D03*
X285532D02*
D03*
X246555Y258961D02*
D03*
X252854D02*
D03*
D19*
X252854Y119685D02*
D03*
X246358D02*
D03*
X252953Y268799D02*
D03*
X246457D02*
D03*
D20*
X287012Y221260D02*
D03*
Y214961D02*
D03*
X298823Y221260D02*
D03*
Y214961D02*
D03*
X288972Y134252D02*
D03*
Y140551D02*
D03*
X298815Y134252D02*
D03*
Y140551D02*
D03*
X289071Y283366D02*
D03*
Y289666D02*
D03*
X298913Y283366D02*
D03*
Y289666D02*
D03*
X287110Y370374D02*
D03*
Y364075D02*
D03*
X298921Y370374D02*
D03*
Y364075D02*
D03*
D21*
X275295Y221358D02*
D03*
Y214862D02*
D03*
X275197Y134153D02*
D03*
Y140650D02*
D03*
X275295Y283268D02*
D03*
Y289764D02*
D03*
X275394Y370472D02*
D03*
Y363976D02*
D03*
D22*
X288583Y235827D02*
D03*
X297244Y239764D02*
D03*
Y231890D02*
D03*
X286614Y113779D02*
D03*
X295276Y117717D02*
D03*
Y109843D02*
D03*
X286713Y262894D02*
D03*
X295374Y266831D02*
D03*
Y258957D02*
D03*
X288681Y384941D02*
D03*
X297342Y388878D02*
D03*
Y381004D02*
D03*
D23*
X263681Y189370D02*
D03*
Y186221D02*
D03*
Y167323D02*
D03*
Y164173D02*
D03*
X263779Y338484D02*
D03*
Y335335D02*
D03*
Y316437D02*
D03*
Y313287D02*
D03*
D24*
X263681Y183661D02*
D03*
Y169882D02*
D03*
Y181693D02*
D03*
Y171850D02*
D03*
Y179724D02*
D03*
Y173819D02*
D03*
Y177756D02*
D03*
Y175787D02*
D03*
X263779Y332776D02*
D03*
Y318996D02*
D03*
Y330807D02*
D03*
Y320965D02*
D03*
Y328839D02*
D03*
Y322933D02*
D03*
Y326870D02*
D03*
Y324902D02*
D03*
D25*
X261417Y196890D02*
D03*
Y156653D02*
D03*
X245945Y196890D02*
D03*
Y156653D02*
D03*
X261516Y346004D02*
D03*
Y305768D02*
D03*
X246043Y346004D02*
D03*
Y305768D02*
D03*
D27*
X100000Y100000D02*
X493701D01*
Y493701D01*
X100000D02*
X493701D01*
X100000Y100000D02*
Y493701D01*
X238976Y100000D02*
Y493701D01*
D32*
X161811Y473032D02*
G03*
X163779Y475000I0J1969D01*
G01*
X159843D02*
G03*
X161811Y473032I1969J0D01*
G01*
Y482874D02*
G03*
X159843Y480905I0J-1969D01*
G01*
X163779D02*
G03*
X161811Y482874I-1969J0D01*
G01*
X116929Y473032D02*
G03*
X118898Y475000I0J1969D01*
G01*
X114961D02*
G03*
X116929Y473032I1969J0D01*
G01*
Y482874D02*
G03*
X114961Y480905I0J-1969D01*
G01*
X118898D02*
G03*
X116929Y482874I-1969J0D01*
G01*
X321654D02*
G03*
X319685Y484842I-1969J0D01*
G01*
D02*
G03*
X317717Y482874I0J-1969D01*
G01*
Y476968D02*
G03*
X319685Y475000I1969J0D01*
G01*
D02*
G03*
X321654Y476968I0J1969D01*
G01*
X366535Y482874D02*
G03*
X364567Y484842I-1969J0D01*
G01*
D02*
G03*
X362598Y482874I0J-1969D01*
G01*
Y476968D02*
G03*
X364567Y475000I1969J0D01*
G01*
D02*
G03*
X366535Y476968I0J1969D01*
G01*
X226772D02*
G03*
X228740Y478937I0J1969D01*
G01*
X224803D02*
G03*
X226772Y476968I1969J0D01*
G01*
Y486811D02*
G03*
X224803Y484842I0J-1969D01*
G01*
X228740D02*
G03*
X226772Y486811I-1969J0D01*
G01*
X181890Y476968D02*
G03*
X183858Y478937I0J1969D01*
G01*
X179921D02*
G03*
X181890Y476968I1969J0D01*
G01*
Y486811D02*
G03*
X179921Y484842I0J-1969D01*
G01*
X183858D02*
G03*
X181890Y486811I-1969J0D01*
G01*
X260630Y484842D02*
G03*
X258661Y486811I-1969J0D01*
G01*
D02*
G03*
X256693Y484842I0J-1969D01*
G01*
Y478937D02*
G03*
X258661Y476968I1969J0D01*
G01*
D02*
G03*
X260630Y478937I0J1969D01*
G01*
X305512Y484842D02*
G03*
X303543Y486811I-1969J0D01*
G01*
D02*
G03*
X301575Y484842I0J-1969D01*
G01*
Y478937D02*
G03*
X303543Y476968I1969J0D01*
G01*
D02*
G03*
X305512Y478937I0J1969D01*
G01*
X159843Y475000D02*
Y480905D01*
X163779Y475000D02*
Y480905D01*
X114961Y475000D02*
Y480905D01*
X118898Y475000D02*
Y480905D01*
X321654Y476968D02*
Y482874D01*
X317717Y476968D02*
Y482874D01*
X366535Y476968D02*
Y482874D01*
X362598Y476968D02*
Y482874D01*
X224803Y478937D02*
Y484842D01*
X228740Y478937D02*
Y484842D01*
X179921Y478937D02*
Y484842D01*
X183858Y478937D02*
Y484842D01*
X260630Y478937D02*
Y484842D01*
X256693Y478937D02*
Y484842D01*
X305512Y478937D02*
Y484842D01*
X301575Y478937D02*
Y484842D01*
D54*
X388386Y480512D02*
D03*
X410039Y480512D02*
D03*
X353346Y410827D02*
D03*
X331693Y410827D02*
D03*
D55*
X389665Y470965D02*
D03*
X408760D02*
D03*
X352067Y420374D02*
D03*
X332972D02*
D03*
D56*
X413583Y476083D02*
D03*
X328150Y415256D02*
D03*
D57*
X384842Y476083D02*
D03*
X356890Y415256D02*
D03*
M02*
