G04*
G04 #@! TF.GenerationSoftware,Altium Limited,CircuitStudio,1.5.2 (1.5.2.30)*
G04*
G04 Layer_Color=8150272*
%FSLAX25Y25*%
%MOIN*%
G70*
G01*
G75*
%ADD27C,0.01000*%
%ADD32C,0.00000*%
%ADD75C,0.06902*%
%ADD76O,0.07493X0.11430*%
%ADD77O,0.05131X0.07296*%
%ADD78C,0.03359*%
%ADD79R,0.05118X0.06693*%
%ADD80R,0.05512X0.07480*%
%ADD81C,0.14816*%
%ADD82C,0.12611*%
%ADD83C,0.09855*%
%ADD84C,0.06422*%
%ADD85R,0.06422X0.06422*%
%ADD86O,0.11430X0.07493*%
%ADD87O,0.07296X0.05131*%
%ADD88R,0.07887X0.07887*%
%ADD89C,0.07887*%
%ADD90C,0.13398*%
%ADD91R,0.07887X0.07887*%
%ADD92C,0.05800*%
D27*
X100000Y100000D02*
X493701D01*
Y493701D01*
X100000D02*
X493701D01*
X100000Y100000D02*
Y493701D01*
X238976Y100000D02*
Y493701D01*
D32*
X161811Y473032D02*
G03*
X163779Y475000I0J1969D01*
G01*
X159843D02*
G03*
X161811Y473032I1969J0D01*
G01*
Y482874D02*
G03*
X159843Y480905I0J-1969D01*
G01*
X163779D02*
G03*
X161811Y482874I-1969J0D01*
G01*
X116929Y473032D02*
G03*
X118898Y475000I0J1969D01*
G01*
X114961D02*
G03*
X116929Y473032I1969J0D01*
G01*
Y482874D02*
G03*
X114961Y480905I0J-1969D01*
G01*
X118898D02*
G03*
X116929Y482874I-1969J0D01*
G01*
X321654D02*
G03*
X319685Y484842I-1969J0D01*
G01*
D02*
G03*
X317717Y482874I0J-1969D01*
G01*
Y476968D02*
G03*
X319685Y475000I1969J0D01*
G01*
D02*
G03*
X321654Y476968I0J1969D01*
G01*
X366535Y482874D02*
G03*
X364567Y484842I-1969J0D01*
G01*
D02*
G03*
X362598Y482874I0J-1969D01*
G01*
Y476968D02*
G03*
X364567Y475000I1969J0D01*
G01*
D02*
G03*
X366535Y476968I0J1969D01*
G01*
X226772D02*
G03*
X228740Y478937I0J1969D01*
G01*
X224803D02*
G03*
X226772Y476968I1969J0D01*
G01*
Y486811D02*
G03*
X224803Y484842I0J-1969D01*
G01*
X228740D02*
G03*
X226772Y486811I-1969J0D01*
G01*
X181890Y476968D02*
G03*
X183858Y478937I0J1969D01*
G01*
X179921D02*
G03*
X181890Y476968I1969J0D01*
G01*
Y486811D02*
G03*
X179921Y484842I0J-1969D01*
G01*
X183858D02*
G03*
X181890Y486811I-1969J0D01*
G01*
X260630Y484842D02*
G03*
X258661Y486811I-1969J0D01*
G01*
D02*
G03*
X256693Y484842I0J-1969D01*
G01*
Y478937D02*
G03*
X258661Y476968I1969J0D01*
G01*
D02*
G03*
X260630Y478937I0J1969D01*
G01*
X305512Y484842D02*
G03*
X303543Y486811I-1969J0D01*
G01*
D02*
G03*
X301575Y484842I0J-1969D01*
G01*
Y478937D02*
G03*
X303543Y476968I1969J0D01*
G01*
D02*
G03*
X305512Y478937I0J1969D01*
G01*
X159843Y475000D02*
Y480905D01*
X163779Y475000D02*
Y480905D01*
X114961Y475000D02*
Y480905D01*
X118898Y475000D02*
Y480905D01*
X321654Y476968D02*
Y482874D01*
X317717Y476968D02*
Y482874D01*
X366535Y476968D02*
Y482874D01*
X362598Y476968D02*
Y482874D01*
X224803Y478937D02*
Y484842D01*
X228740Y478937D02*
Y484842D01*
X179921Y478937D02*
Y484842D01*
X183858Y478937D02*
Y484842D01*
X260630Y478937D02*
Y484842D01*
X256693Y478937D02*
Y484842D01*
X305512Y478937D02*
Y484842D01*
X301575Y478937D02*
Y484842D01*
D75*
X148228Y477953D02*
D03*
X130512D02*
D03*
X333268Y479921D02*
D03*
X350984D02*
D03*
X213189Y481890D02*
D03*
X195472D02*
D03*
X272244D02*
D03*
X289961D02*
D03*
D76*
X447441Y482087D02*
D03*
X476181D02*
D03*
X220669Y406890D02*
D03*
X191929D02*
D03*
D77*
X455512Y461024D02*
D03*
X461811D02*
D03*
X468110D02*
D03*
X458661Y468110D02*
D03*
X464961D02*
D03*
X212598Y427953D02*
D03*
X206299D02*
D03*
X200000D02*
D03*
X209449Y420866D02*
D03*
X203150D02*
D03*
D78*
X451221Y419291D02*
D03*
X473976D02*
D03*
X393347Y416535D02*
D03*
X416102D02*
D03*
X259449Y188150D02*
D03*
Y165394D02*
D03*
X269724Y418898D02*
D03*
X292480D02*
D03*
X259547Y337264D02*
D03*
Y314508D02*
D03*
D79*
X389665Y470965D02*
D03*
X408760D02*
D03*
X352067Y420374D02*
D03*
X332972D02*
D03*
D80*
X410039Y482776D02*
D03*
X388386D02*
D03*
X331693Y408563D02*
D03*
X353346D02*
D03*
D81*
X317323Y122047D02*
D03*
X463189D02*
D03*
Y228740D02*
D03*
X317323D02*
D03*
X317421Y271161D02*
D03*
X463287D02*
D03*
Y377854D02*
D03*
X317421D02*
D03*
D82*
X483661Y211811D02*
D03*
Y142559D02*
D03*
X248780D02*
D03*
Y211811D02*
D03*
X483760Y360925D02*
D03*
Y291673D02*
D03*
X248878D02*
D03*
Y360925D02*
D03*
D83*
X112992Y115472D02*
D03*
Y167205D02*
D03*
Y294606D02*
D03*
Y346339D02*
D03*
Y186339D02*
D03*
Y238071D02*
D03*
D84*
X123661Y127559D02*
D03*
Y137402D02*
D03*
Y145276D02*
D03*
Y306693D02*
D03*
Y316535D02*
D03*
Y324410D02*
D03*
Y198425D02*
D03*
Y208268D02*
D03*
Y216142D02*
D03*
D85*
Y155118D02*
D03*
Y334252D02*
D03*
Y225984D02*
D03*
D86*
X202559Y153740D02*
D03*
Y125000D02*
D03*
X196653Y224606D02*
D03*
Y195866D02*
D03*
D87*
X181496Y145669D02*
D03*
Y139370D02*
D03*
Y133071D02*
D03*
X188583Y142520D02*
D03*
Y136221D02*
D03*
X175591Y216535D02*
D03*
Y210236D02*
D03*
Y203937D02*
D03*
X182677Y213386D02*
D03*
Y207087D02*
D03*
D88*
X192520Y324410D02*
D03*
Y314567D02*
D03*
X182677D02*
D03*
D89*
Y324410D02*
D03*
X145276Y430709D02*
D03*
D90*
X204331Y343110D02*
D03*
Y295866D02*
D03*
X163976Y409055D02*
D03*
X116732D02*
D03*
D91*
X145276Y420866D02*
D03*
X135433D02*
D03*
Y430709D02*
D03*
D92*
X267323Y440945D02*
D03*
X293307Y439764D02*
D03*
X416535Y456299D02*
D03*
X390945Y444095D02*
D03*
X397244Y459449D02*
D03*
X408661Y455905D02*
D03*
X294882Y177953D02*
D03*
X316535Y241732D02*
D03*
X306693D02*
D03*
X200394Y460236D02*
D03*
X125197Y457480D02*
D03*
X306791Y390846D02*
D03*
X316634D02*
D03*
X294980Y327067D02*
D03*
M02*
