G04*
G04 #@! TF.GenerationSoftware,Altium Limited,CircuitStudio,1.5.2 (1.5.2.30)*
G04*
G04 Layer_Color=20142*
%FSLAX25Y25*%
%MOIN*%
G70*
G01*
G75*
%ADD27C,0.01000*%
%ADD32C,0.00000*%
%ADD58R,0.07480X0.03150*%
%ADD59R,0.05512X0.01378*%
%ADD60R,0.05524X0.08674*%
%ADD61R,0.03162X0.05328*%
%ADD62R,0.01981X0.05328*%
%ADD63R,0.09383X0.08674*%
%ADD64R,0.03937X0.05906*%
%ADD65R,0.01969X0.07284*%
%ADD66R,0.05906X0.10236*%
%ADD67R,0.04343X0.04343*%
%ADD68R,0.03950X0.03950*%
%ADD69R,0.04343X0.04343*%
%ADD70R,0.03950X0.03950*%
%ADD71R,0.04343X0.03950*%
%ADD72R,0.05328X0.03162*%
%ADD73R,0.05328X0.01981*%
%ADD74R,0.08674X0.09383*%
%ADD75C,0.06902*%
%ADD76O,0.07493X0.11430*%
%ADD77O,0.05131X0.07296*%
%ADD78C,0.03359*%
%ADD79R,0.05118X0.06693*%
%ADD80R,0.05512X0.07480*%
%ADD81C,0.14816*%
%ADD82C,0.12611*%
%ADD83C,0.09855*%
%ADD84C,0.06422*%
%ADD85R,0.06422X0.06422*%
%ADD86O,0.11430X0.07493*%
%ADD87O,0.07296X0.05131*%
%ADD88R,0.07887X0.07887*%
%ADD89C,0.07887*%
%ADD90C,0.13398*%
%ADD91R,0.07887X0.07887*%
%ADD92C,0.05800*%
G36*
X323224Y471654D02*
X316142D01*
Y488191D01*
X323224D01*
Y471654D01*
D02*
G37*
G36*
X368150D02*
X361024D01*
Y488202D01*
X368150D01*
Y471654D01*
D02*
G37*
G36*
X120468Y469685D02*
X113386D01*
Y486222D01*
X120468D01*
Y469685D01*
D02*
G37*
G36*
X165394D02*
X158268D01*
Y486233D01*
X165394D01*
Y469685D01*
D02*
G37*
G36*
X262201Y473622D02*
X255118D01*
Y490159D01*
X262201D01*
Y473622D01*
D02*
G37*
G36*
X307127D02*
X300000D01*
Y490170D01*
X307127D01*
Y473622D01*
D02*
G37*
G36*
X185429D02*
X178347D01*
Y490159D01*
X185429D01*
Y473622D01*
D02*
G37*
G36*
X230355D02*
X223228D01*
Y490170D01*
X230355D01*
Y473622D01*
D02*
G37*
D27*
X100000Y100000D02*
X493701D01*
Y493701D01*
X100000D02*
X493701D01*
X100000Y100000D02*
Y493701D01*
X238976Y100000D02*
Y493701D01*
D32*
X161811Y473032D02*
G03*
X163779Y475000I0J1969D01*
G01*
X159843D02*
G03*
X161811Y473032I1969J0D01*
G01*
Y482874D02*
G03*
X159843Y480905I0J-1969D01*
G01*
X163779D02*
G03*
X161811Y482874I-1969J0D01*
G01*
X116929Y473032D02*
G03*
X118898Y475000I0J1969D01*
G01*
X114961D02*
G03*
X116929Y473032I1969J0D01*
G01*
Y482874D02*
G03*
X114961Y480905I0J-1969D01*
G01*
X118898D02*
G03*
X116929Y482874I-1969J0D01*
G01*
X321654D02*
G03*
X319685Y484842I-1969J0D01*
G01*
D02*
G03*
X317717Y482874I0J-1969D01*
G01*
Y476968D02*
G03*
X319685Y475000I1969J0D01*
G01*
D02*
G03*
X321654Y476968I0J1969D01*
G01*
X366535Y482874D02*
G03*
X364567Y484842I-1969J0D01*
G01*
D02*
G03*
X362598Y482874I0J-1969D01*
G01*
Y476968D02*
G03*
X364567Y475000I1969J0D01*
G01*
D02*
G03*
X366535Y476968I0J1969D01*
G01*
X226772D02*
G03*
X228740Y478937I0J1969D01*
G01*
X224803D02*
G03*
X226772Y476968I1969J0D01*
G01*
Y486811D02*
G03*
X224803Y484842I0J-1969D01*
G01*
X228740D02*
G03*
X226772Y486811I-1969J0D01*
G01*
X181890Y476968D02*
G03*
X183858Y478937I0J1969D01*
G01*
X179921D02*
G03*
X181890Y476968I1969J0D01*
G01*
Y486811D02*
G03*
X179921Y484842I0J-1969D01*
G01*
X183858D02*
G03*
X181890Y486811I-1969J0D01*
G01*
X260630Y484842D02*
G03*
X258661Y486811I-1969J0D01*
G01*
D02*
G03*
X256693Y484842I0J-1969D01*
G01*
Y478937D02*
G03*
X258661Y476968I1969J0D01*
G01*
D02*
G03*
X260630Y478937I0J1969D01*
G01*
X305512Y484842D02*
G03*
X303543Y486811I-1969J0D01*
G01*
D02*
G03*
X301575Y484842I0J-1969D01*
G01*
Y478937D02*
G03*
X303543Y476968I1969J0D01*
G01*
D02*
G03*
X305512Y478937I0J1969D01*
G01*
X159843Y475000D02*
Y480905D01*
X163779Y475000D02*
Y480905D01*
X114961Y475000D02*
Y480905D01*
X118898Y475000D02*
Y480905D01*
X321654Y476968D02*
Y482874D01*
X317717Y476968D02*
Y482874D01*
X366535Y476968D02*
Y482874D01*
X362598Y476968D02*
Y482874D01*
X224803Y478937D02*
Y484842D01*
X228740Y478937D02*
Y484842D01*
X179921Y478937D02*
Y484842D01*
X183858Y478937D02*
Y484842D01*
X260630Y478937D02*
Y484842D01*
X256693Y478937D02*
Y484842D01*
X305512Y478937D02*
Y484842D01*
X301575Y478937D02*
Y484842D01*
D58*
X387402Y476083D02*
D03*
X411024D02*
D03*
X354331Y415256D02*
D03*
X330709D02*
D03*
D59*
X410039Y478346D02*
D03*
X388386D02*
D03*
X331693Y412992D02*
D03*
X353346D02*
D03*
D60*
X125591Y467717D02*
D03*
X135433D02*
D03*
X143307D02*
D03*
X153150D02*
D03*
X355906Y469685D02*
D03*
X346063D02*
D03*
X338189D02*
D03*
X328346D02*
D03*
X190551Y471654D02*
D03*
X200394D02*
D03*
X208268D02*
D03*
X218110D02*
D03*
X294882D02*
D03*
X285039D02*
D03*
X277165D02*
D03*
X267323D02*
D03*
D61*
X450000Y423524D02*
D03*
X453150D02*
D03*
X472047D02*
D03*
X475197D02*
D03*
X392126Y420768D02*
D03*
X395276D02*
D03*
X414173D02*
D03*
X417323D02*
D03*
X268504Y423130D02*
D03*
X271654D02*
D03*
X290551D02*
D03*
X293701D02*
D03*
D62*
X455709Y423524D02*
D03*
X469488D02*
D03*
X457677D02*
D03*
X467520D02*
D03*
X459646D02*
D03*
X465551D02*
D03*
X461614D02*
D03*
X463583D02*
D03*
X397835Y420768D02*
D03*
X411614D02*
D03*
X399803D02*
D03*
X409646D02*
D03*
X401772D02*
D03*
X407677D02*
D03*
X403740D02*
D03*
X405709D02*
D03*
X274213Y423130D02*
D03*
X287992D02*
D03*
X276181D02*
D03*
X286024D02*
D03*
X278150D02*
D03*
X284055D02*
D03*
X280118D02*
D03*
X282087D02*
D03*
D63*
X442480Y421260D02*
D03*
X482717D02*
D03*
X442480Y405787D02*
D03*
X482717D02*
D03*
X384606Y418504D02*
D03*
X424843D02*
D03*
X384606Y403031D02*
D03*
X424843D02*
D03*
X260984Y420866D02*
D03*
X301220D02*
D03*
X260984Y405394D02*
D03*
X301220D02*
D03*
D64*
X412894Y470965D02*
D03*
X385630D02*
D03*
X328839Y420374D02*
D03*
X356102D02*
D03*
D65*
X404331Y471654D02*
D03*
X401772D02*
D03*
X399213D02*
D03*
X396654D02*
D03*
X394094D02*
D03*
X337402Y419685D02*
D03*
X339961D02*
D03*
X342520D02*
D03*
X345079D02*
D03*
X347638D02*
D03*
D66*
X395472Y484744D02*
D03*
X402953D02*
D03*
X346260Y406595D02*
D03*
X338779D02*
D03*
D67*
X246457Y109847D02*
D03*
X252756D02*
D03*
X279134Y170083D02*
D03*
X285433D02*
D03*
X278740Y183862D02*
D03*
X285039D02*
D03*
X278838Y332977D02*
D03*
X285138D02*
D03*
X279232Y319197D02*
D03*
X285532D02*
D03*
X246555Y258961D02*
D03*
X252854D02*
D03*
D68*
X252854Y119685D02*
D03*
X246358D02*
D03*
X252953Y268799D02*
D03*
X246457D02*
D03*
D69*
X287012Y221260D02*
D03*
Y214961D02*
D03*
X298823Y221260D02*
D03*
Y214961D02*
D03*
X288972Y134252D02*
D03*
Y140551D02*
D03*
X298815Y134252D02*
D03*
Y140551D02*
D03*
X289071Y283366D02*
D03*
Y289666D02*
D03*
X298913Y283366D02*
D03*
Y289666D02*
D03*
X287110Y370374D02*
D03*
Y364075D02*
D03*
X298921Y370374D02*
D03*
Y364075D02*
D03*
D70*
X275295Y221358D02*
D03*
Y214862D02*
D03*
X275197Y134153D02*
D03*
Y140650D02*
D03*
X275295Y283268D02*
D03*
Y289764D02*
D03*
X275394Y370472D02*
D03*
Y363976D02*
D03*
D71*
X288583Y235827D02*
D03*
X297244Y239764D02*
D03*
Y231890D02*
D03*
X286614Y113779D02*
D03*
X295276Y117717D02*
D03*
Y109843D02*
D03*
X286713Y262894D02*
D03*
X295374Y266831D02*
D03*
Y258957D02*
D03*
X288681Y384941D02*
D03*
X297342Y388878D02*
D03*
Y381004D02*
D03*
D72*
X263681Y189370D02*
D03*
Y186221D02*
D03*
Y167323D02*
D03*
Y164173D02*
D03*
X263779Y338484D02*
D03*
Y335335D02*
D03*
Y316437D02*
D03*
Y313287D02*
D03*
D73*
X263681Y183661D02*
D03*
Y169882D02*
D03*
Y181693D02*
D03*
Y171850D02*
D03*
Y179724D02*
D03*
Y173819D02*
D03*
Y177756D02*
D03*
Y175787D02*
D03*
X263779Y332776D02*
D03*
Y318996D02*
D03*
Y330807D02*
D03*
Y320965D02*
D03*
Y328839D02*
D03*
Y322933D02*
D03*
Y326870D02*
D03*
Y324902D02*
D03*
D74*
X261417Y196890D02*
D03*
Y156653D02*
D03*
X245945Y196890D02*
D03*
Y156653D02*
D03*
X261516Y346004D02*
D03*
Y305768D02*
D03*
X246043Y346004D02*
D03*
Y305768D02*
D03*
D75*
X148228Y477953D02*
D03*
X130512D02*
D03*
X333268Y479921D02*
D03*
X350984D02*
D03*
X213189Y481890D02*
D03*
X195472D02*
D03*
X272244D02*
D03*
X289961D02*
D03*
D76*
X447441Y482087D02*
D03*
X476181D02*
D03*
X220669Y406890D02*
D03*
X191929D02*
D03*
D77*
X455512Y461024D02*
D03*
X461811D02*
D03*
X468110D02*
D03*
X458661Y468110D02*
D03*
X464961D02*
D03*
X212598Y427953D02*
D03*
X206299D02*
D03*
X200000D02*
D03*
X209449Y420866D02*
D03*
X203150D02*
D03*
D78*
X451221Y419291D02*
D03*
X473976D02*
D03*
X393347Y416535D02*
D03*
X416102D02*
D03*
X259449Y188150D02*
D03*
Y165394D02*
D03*
X269724Y418898D02*
D03*
X292480D02*
D03*
X259547Y337264D02*
D03*
Y314508D02*
D03*
D79*
X389665Y470965D02*
D03*
X408760D02*
D03*
X352067Y420374D02*
D03*
X332972D02*
D03*
D80*
X410039Y482776D02*
D03*
X388386D02*
D03*
X331693Y408563D02*
D03*
X353346D02*
D03*
D81*
X317323Y122047D02*
D03*
X463189D02*
D03*
Y228740D02*
D03*
X317323D02*
D03*
X317421Y271161D02*
D03*
X463287D02*
D03*
Y377854D02*
D03*
X317421D02*
D03*
D82*
X483661Y211811D02*
D03*
Y142559D02*
D03*
X248780D02*
D03*
Y211811D02*
D03*
X483760Y360925D02*
D03*
Y291673D02*
D03*
X248878D02*
D03*
Y360925D02*
D03*
D83*
X112992Y115472D02*
D03*
Y167205D02*
D03*
Y294606D02*
D03*
Y346339D02*
D03*
Y186339D02*
D03*
Y238071D02*
D03*
D84*
X123661Y127559D02*
D03*
Y137402D02*
D03*
Y145276D02*
D03*
Y306693D02*
D03*
Y316535D02*
D03*
Y324410D02*
D03*
Y198425D02*
D03*
Y208268D02*
D03*
Y216142D02*
D03*
D85*
Y155118D02*
D03*
Y334252D02*
D03*
Y225984D02*
D03*
D86*
X202559Y153740D02*
D03*
Y125000D02*
D03*
X196653Y224606D02*
D03*
Y195866D02*
D03*
D87*
X181496Y145669D02*
D03*
Y139370D02*
D03*
Y133071D02*
D03*
X188583Y142520D02*
D03*
Y136221D02*
D03*
X175591Y216535D02*
D03*
Y210236D02*
D03*
Y203937D02*
D03*
X182677Y213386D02*
D03*
Y207087D02*
D03*
D88*
X192520Y324410D02*
D03*
Y314567D02*
D03*
X182677D02*
D03*
D89*
Y324410D02*
D03*
X145276Y430709D02*
D03*
D90*
X204331Y343110D02*
D03*
Y295866D02*
D03*
X163976Y409055D02*
D03*
X116732D02*
D03*
D91*
X145276Y420866D02*
D03*
X135433D02*
D03*
Y430709D02*
D03*
D92*
X267323Y440945D02*
D03*
X293307Y439764D02*
D03*
X416535Y456299D02*
D03*
X390945Y444095D02*
D03*
X397244Y459449D02*
D03*
X408661Y455905D02*
D03*
X294882Y177953D02*
D03*
X316535Y241732D02*
D03*
X306693D02*
D03*
X200394Y460236D02*
D03*
X125197Y457480D02*
D03*
X306791Y390846D02*
D03*
X316634D02*
D03*
X294980Y327067D02*
D03*
M02*
