M48
;Layer_Color=6321
;FILE_FORMAT=4:4
METRIC,LZ
;TYPE=PLATED
T1F00S00C0.7000
T3F00S00C0.7112
T4F00S00C0.9000
T5F00S00C0.9200
T6F00S00C1.1700
T7F00S00C2.3000
T8F00S00C3.5600
;TYPE=NON_PLATED
T9F00S00C0.6500
T10F00S00C1.5500
T11F00S00C2.3000
T12F00S00C3.5600
%
T01
X00464Y00338
Y00354
Y0037
X00476Y00362
Y00346
X00461Y00526
Y00542
X00449Y0055
Y00534
Y00518
X00516Y01072
X00532
X0054Y01084
X00524
X00508
X01157Y01174
X01173
X01189
X01181Y01186
X01165
T03
X00749Y00452
X00318Y01162
X00509Y01169
X00679Y0112
X00745Y01117
X0074925Y0083075
X00993Y01128
X01009Y01167
X01038Y01158
X01058Y01159
T04
X00804Y00614
X00779
X00369Y01069
X00344
Y01094
X00369
X00464Y00824
X00489
Y00799
X00464
X0077925Y0099275
X0080425
T05
X003141Y00324
Y00349
Y00369
Y00394
Y00504
Y00529
Y00549
Y00574
Y00779
Y00804
Y00824
Y00849
T06
X006319Y003621
X012285
Y00538
X0122875Y0074085
X0063215
X006319Y00538
X0063215Y0091675
X0122875
T07
X00519Y007515
X002965Y01039
X004165
X00519Y008715
T08
X011765Y0031
Y00581
X0117675Y0068875
Y0095975
T09
X00659Y004201
Y004779
X0065925Y0079885
Y0085665
X006851Y01064
X007429
X009991Y01058
X010569
X011461Y01065
X012039
T10
X008465Y01219
X008915
X007365Y01224
X006915
X005415
X004965
X003765Y01214
X003315
T11
X00287Y002933
Y004247
Y004733
Y006047
Y007483
Y008797
T12
X00806Y0031
Y00581
X0080625Y0068875
Y0095975
M30
